STARTFONT 2.1
COMMENT
COMMENT Converted from OpenType font "NimbusSans-Regular.otf" by "otf2bdf 3.0".
COMMENT
FONT -FreeType-Nimbus Sans-Medium-R-Normal--47-340-100-100-P-246-ISO10646-1
SIZE 34 100 100
FONTBOUNDINGBOX 59 65 -10 -14
STARTPROPERTIES 19
FOUNDRY "FreeType"
FAMILY_NAME "Nimbus Sans"
WEIGHT_NAME "Medium"
SLANT "R"
SETWIDTH_NAME "Normal"
ADD_STYLE_NAME ""
PIXEL_SIZE 47
POINT_SIZE 340
RESOLUTION_X 100
RESOLUTION_Y 100
SPACING "P"
AVERAGE_WIDTH 246
CHARSET_REGISTRY "ISO10646"
CHARSET_ENCODING "1"
FONT_ASCENT 34
FONT_DESCENT 12
COPYRIGHT "(URW)++,Copyright 2014 by (URW)++ Design & Development"
_OTF_FONTFILE "NimbusSans-Regular.otf"
_OTF_PSNAME "NimbusSans-Regular"
ENDPROPERTIES
CHARS 854
STARTCHAR 0020
ENCODING 32
SWIDTH 275 0
DWIDTH 13 0
BBX 0 0 0 0
BITMAP
ENDCHAR
STARTCHAR 0021
ENCODING 33
SWIDTH 275 0
DWIDTH 13 0
BBX 4 34 6 0
BITMAP
F0
F0
F0
F0
F0
F0
F0
F0
F0
F0
F0
F0
F0
F0
F0
F0
F0
F0
F0
E0
E0
E0
60
60
60
60
00
00
00
F0
F0
F0
F0
F0
ENDCHAR
STARTCHAR 0022
ENCODING 34
SWIDTH 360 0
DWIDTH 17 0
BBX 12 11 2 22
BITMAP
F8F0
F8F0
F8F0
F8F0
F8F0
78F0
70F0
7070
7070
7060
3060
ENDCHAR
STARTCHAR 0023
ENCODING 35
SWIDTH 550 0
DWIDTH 26 0
BBX 25 33 1 -1
BITMAP
00703C00
00F03C00
00F03800
00F03800
00E07800
00E07800
00E07800
01E07000
01E07000
7FFFFF80
7FFFFF80
7FFFFF80
03C0E000
03C0E000
03C0E000
0381E000
0381E000
0781E000
0781C000
0781C000
FFFFFE00
FFFFFE00
FFFFFE00
0F038000
0F038000
0F078000
0E078000
0E078000
1E078000
1E070000
1E070000
1C0F0000
1C0F0000
ENDCHAR
STARTCHAR 0024
ENCODING 36
SWIDTH 550 0
DWIDTH 26 0
BBX 23 42 2 -6
BITMAP
003800
003800
00FE00
07FF80
0FFFE0
1FFFF0
3E38F8
7C3878
783878
78383C
70383C
70383C
783800
783800
7C3800
7E3800
3FB800
1FF800
0FFF80
07FFE0
00FFF0
003FF8
0038FC
00387C
00383E
00381E
F0381E
F0381E
F0381E
F0381C
F0383C
78383C
7C3878
3F3BF8
1FFFF0
0FFFC0
03FF00
003800
003800
003800
003800
003800
ENDCHAR
STARTCHAR 0025
ENCODING 37
SWIDTH 889 0
DWIDTH 42 0
BBX 40 34 1 -1
BITMAP
0000001C00
07F0001C00
1FFC003800
3FFE003800
3C3E007000
780F007000
700700E000
700701E000
F00701C000
F007038000
7007038000
700F070000
780F070000
3E7E0E0000
1FFC0E0000
0FF81C0000
03E01C0000
0000380000
00007807C0
0000701FF0
0000F03FF8
0000E07EFC
0001C0F01E
0001C0E00E
000380E00E
000381E00F
000701E00F
000700E00E
000E00F00E
000E00F01E
001C007E7C
003C003FF8
0038001FF0
00700007C0
ENDCHAR
STARTCHAR 0026
ENCODING 38
SWIDTH 677 0
DWIDTH 32 0
BBX 28 34 2 -1
BITMAP
003E0000
00FF8000
03FFC000
03E7E000
0781F000
0780F000
0F00F000
0F00F000
0F00F000
0780F000
0781E000
03C3E000
03EFC000
01FF8000
00FE0000
01FC0000
07FC0000
0F9E0780
1F1F0780
3E0F8780
7C07C780
7803E700
7801EF00
7001FF00
F000FE00
F8007E00
78003E00
78007F00
7C00FF00
3F03FF80
3FFFE7C0
1FFFC3E0
0FFF01F0
01FC0000
ENDCHAR
STARTCHAR 0027
ENCODING 39
SWIDTH 190 0
DWIDTH 9 0
BBX 5 11 2 22
BITMAP
F8
F8
F8
F8
F8
F8
70
70
70
70
70
ENDCHAR
STARTCHAR 0028
ENCODING 40
SWIDTH 338 0
DWIDTH 16 0
BBX 10 44 3 -10
BITMAP
00C0
01C0
0380
0380
0700
0700
0E00
0E00
1E00
1C00
1C00
3C00
3C00
3800
7800
7800
7800
7800
7000
7000
7000
F000
F000
F000
7000
7000
7800
7800
7800
7800
3800
3800
3C00
3C00
1C00
1E00
0E00
0E00
0F00
0700
0380
0380
01C0
01C0
ENDCHAR
STARTCHAR 0029
ENCODING 41
SWIDTH 338 0
DWIDTH 16 0
BBX 10 44 2 -10
BITMAP
E000
7000
7000
3800
3800
1C00
1C00
1E00
0E00
0F00
0F00
0700
0780
0780
0780
0380
03C0
03C0
03C0
03C0
03C0
03C0
03C0
03C0
03C0
03C0
03C0
03C0
0380
0380
0780
0780
0700
0700
0F00
0E00
0E00
1E00
1C00
3C00
3800
7000
7000
E000
ENDCHAR
STARTCHAR 002A
ENCODING 42
SWIDTH 381 0
DWIDTH 18 0
BBX 14 13 2 20
BITMAP
0380
0300
0300
0300
F31C
FFFC
7FF8
0FC0
0FC0
0FE0
1CE0
3C70
1870
ENDCHAR
STARTCHAR 002B
ENCODING 43
SWIDTH 592 0
DWIDTH 28 0
BBX 23 23 2 -1
BITMAP
003800
003800
003800
003800
003800
003800
003800
003800
003800
003800
FFFFFE
FFFFFE
FFFFFE
003800
003800
003800
003800
003800
003800
003800
003800
003800
003800
ENDCHAR
STARTCHAR 002C
ENCODING 44
SWIDTH 275 0
DWIDTH 13 0
BBX 5 12 4 -7
BITMAP
F8
F8
F8
F8
F8
18
18
18
18
30
F0
C0
ENDCHAR
STARTCHAR 002D
ENCODING 45
SWIDTH 338 0
DWIDTH 16 0
BBX 11 3 2 12
BITMAP
FFE0
FFE0
FFE0
ENDCHAR
STARTCHAR 002E
ENCODING 46
SWIDTH 275 0
DWIDTH 13 0
BBX 5 5 4 0
BITMAP
F8
F8
F8
F8
F8
ENDCHAR
STARTCHAR 002F
ENCODING 47
SWIDTH 275 0
DWIDTH 13 0
BBX 13 35 0 -1
BITMAP
0018
0038
0038
0030
0070
0070
0060
00E0
00E0
00C0
01C0
01C0
0180
0380
0380
0300
0300
0700
0600
0600
0E00
0E00
0C00
1C00
1C00
1800
3800
3800
3000
7000
7000
6000
E000
E000
C000
ENDCHAR
STARTCHAR 0030
ENCODING 48
SWIDTH 550 0
DWIDTH 26 0
BBX 22 35 2 -1
BITMAP
00FC00
03FF00
0FFFC0
1FFFE0
1F03E0
3E01F0
3C00F0
7C00F8
780078
780078
780078
78007C
F8007C
F0003C
F0003C
F0003C
F0003C
F0003C
F0003C
F0003C
F0003C
F0003C
F8007C
F8007C
780078
780078
780078
7C00F8
3C00F0
3E01F0
1F03E0
1FFFC0
0FFFC0
03FF00
00FC00
ENDCHAR
STARTCHAR 0031
ENCODING 49
SWIDTH 550 0
DWIDTH 26 0
BBX 11 34 5 0
BITMAP
00E0
00E0
00E0
01E0
01E0
07E0
7FE0
FFE0
FFE0
FFE0
01E0
01E0
01E0
01E0
01E0
01E0
01E0
01E0
01E0
01E0
01E0
01E0
01E0
01E0
01E0
01E0
01E0
01E0
01E0
01E0
01E0
01E0
01E0
01E0
ENDCHAR
STARTCHAR 0032
ENCODING 50
SWIDTH 550 0
DWIDTH 26 0
BBX 22 34 2 0
BITMAP
00FE00
07FFC0
0FFFE0
1FFFF0
3F01F8
3E00F8
7C007C
78007C
78003C
78003C
F8003C
F8003C
00007C
00007C
0000F8
0001F0
0003F0
000FE0
003FC0
007F00
01FE00
03F800
0FE000
1F8000
1F0000
3E0000
7C0000
780000
F80000
F00000
FFFFFC
FFFFFC
FFFFFC
FFFFFC
ENDCHAR
STARTCHAR 0033
ENCODING 51
SWIDTH 550 0
DWIDTH 26 0
BBX 22 35 2 -1
BITMAP
01FC00
07FF80
1FFFC0
3FFFE0
3E03F0
7C01F0
7800F8
7800F8
F80078
F00078
F00078
0000F8
0000F0
0001F0
0007E0
00FFC0
00FF80
00FFE0
000FF0
0001F8
0000F8
00007C
00007C
00003C
F0003C
F0003C
F0007C
F0007C
F80078
7C00F8
7E03F0
3FFFE0
1FFFC0
0FFF80
01FC00
ENDCHAR
STARTCHAR 0034
ENCODING 52
SWIDTH 550 0
DWIDTH 26 0
BBX 24 34 1 0
BITMAP
0001E0
0003E0
0003E0
0007E0
000FE0
000FE0
001FE0
003FE0
007BE0
007BE0
00F3E0
01E3E0
01E3E0
03C3E0
0783E0
0F03E0
0F03E0
1E03E0
3C03E0
3C03E0
7803E0
F003E0
FFFFFF
FFFFFF
FFFFFF
FFFFFF
0003E0
0003E0
0003E0
0003E0
0003E0
0003E0
0003E0
0003E0
ENDCHAR
STARTCHAR 0035
ENCODING 53
SWIDTH 550 0
DWIDTH 26 0
BBX 22 34 2 -1
BITMAP
1FFFF0
1FFFF0
1FFFF0
1FFFF0
1C0000
3C0000
3C0000
3C0000
3C0000
3C0000
3C0000
383C00
79FF80
7FFFC0
7FFFE0
7F03F0
7C01F8
7800F8
00007C
00007C
00003C
00003C
00003C
00003C
00003C
F0003C
F0007C
F80078
7C00F8
7E01F0
3FFFE0
1FFFC0
07FF80
01FC00
ENDCHAR
STARTCHAR 0036
ENCODING 54
SWIDTH 550 0
DWIDTH 26 0
BBX 22 35 2 -1
BITMAP
007E00
01FF80
07FFE0
0FFFE0
1F81F0
1E00F8
3E0078
3C0078
7C007C
780000
780000
780000
F80000
F07E00
F1FFC0
F7FFE0
FFFFF0
FF01F8
FE00F8
FC007C
F8007C
F8003C
F8003C
F8003C
F8003C
78003C
78003C
78007C
3C0078
3E00F8
1F01F0
1FFFE0
0FFFC0
03FF80
00FE00
ENDCHAR
STARTCHAR 0037
ENCODING 55
SWIDTH 550 0
DWIDTH 26 0
BBX 23 33 2 0
BITMAP
FFFFFE
FFFFFE
FFFFFE
FFFFFE
00003C
000078
000070
0000F0
0001E0
0001C0
0003C0
000780
000780
000F00
000E00
001E00
003C00
003C00
007800
007800
007800
00F000
00F000
01E000
01E000
01E000
03C000
03C000
03C000
07C000
078000
078000
078000
ENDCHAR
STARTCHAR 0038
ENCODING 56
SWIDTH 550 0
DWIDTH 26 0
BBX 22 35 2 -1
BITMAP
00FE00
07FF80
0FFFC0
1FFFE0
3F03F0
3C01F0
7C00F8
780078
780078
780078
780078
7C00F8
3C00F0
3E01F0
1FFFE0
0FFF80
07FF80
1FFFE0
3F03F0
7C00F8
780078
F8007C
F0003C
F0003C
F0003C
F0003C
F0003C
F8007C
F80078
7C00F8
3E01F0
3FFFF0
1FFFE0
07FF80
01FE00
ENDCHAR
STARTCHAR 0039
ENCODING 57
SWIDTH 550 0
DWIDTH 26 0
BBX 22 35 2 -1
BITMAP
01FC00
07FF00
0FFFC0
1FFFE0
3E03E0
7C01F0
7800F0
F80078
F00078
F00078
F0007C
F0007C
F0007C
F0007C
F8007C
F800FC
7C01FC
7E03FC
3FFFFC
1FFFBC
0FFE3C
01F83C
00007C
00007C
000078
000078
780078
7800F0
7C01F0
7C01E0
3E07E0
1FFFC0
1FFF80
07FF00
01F800
ENDCHAR
STARTCHAR 003A
ENCODING 58
SWIDTH 275 0
DWIDTH 13 0
BBX 5 25 5 0
BITMAP
F8
F8
F8
F8
F8
00
00
00
00
00
00
00
00
00
00
00
00
00
00
00
F8
F8
F8
F8
F8
ENDCHAR
STARTCHAR 003B
ENCODING 59
SWIDTH 275 0
DWIDTH 13 0
BBX 5 32 5 -7
BITMAP
F8
F8
F8
F8
F8
00
00
00
00
00
00
00
00
00
00
00
00
00
00
00
F8
F8
F8
F8
F8
18
18
18
18
30
F0
C0
ENDCHAR
STARTCHAR 003C
ENCODING 60
SWIDTH 592 0
DWIDTH 28 0
BBX 23 23 2 -1
BITMAP
000002
00000E
00003E
0001FE
0007FC
001FE0
00FF80
03FC00
0FF000
7FC000
FE0000
F80000
FE0000
7F8000
1FF000
07FC00
00FF80
003FE0
0007F8
0001FE
00007E
00000E
000002
ENDCHAR
STARTCHAR 003D
ENCODING 61
SWIDTH 592 0
DWIDTH 28 0
BBX 23 12 2 5
BITMAP
FFFFFE
FFFFFE
FFFFFE
000000
000000
000000
000000
000000
000000
FFFFFE
FFFFFE
FFFFFE
ENDCHAR
STARTCHAR 003E
ENCODING 62
SWIDTH 592 0
DWIDTH 28 0
BBX 23 23 2 -1
BITMAP
800000
E00000
FC0000
FF0000
3FE000
0FF800
01FE00
007FC0
001FF0
0003FC
0000FE
00001E
00007E
0003FE
000FF0
003FC0
01FF00
07F800
3FE000
FF8000
FC0000
F00000
C00000
ENDCHAR
STARTCHAR 003F
ENCODING 63
SWIDTH 550 0
DWIDTH 26 0
BBX 20 35 4 0
BITMAP
03FC00
0FFF00
1FFF80
3FFFC0
7C07E0
7803E0
F001F0
F000F0
F000F0
F000F0
F000F0
0001F0
0001E0
0003E0
0007C0
000F80
001F00
003E00
007C00
00F800
00F000
01F000
01F000
01F000
01F000
01F000
000000
000000
000000
000000
01F000
01F000
01F000
01F000
01F000
ENDCHAR
STARTCHAR 0040
ENCODING 64
SWIDTH 1016 0
DWIDTH 48 0
BBX 43 42 2 -7
BITMAP
00003FF00000
0001FFFE0000
000FFFFF8000
001FFFFFE000
007F800FF000
00FC0003FC00
01F00000FE00
03E000007E00
07C000001F00
0F8000000F80
1F000F800F80
1E007FE787C0
3C00FFE783C0
3C01F0F783C0
7803E03F03E0
7807C03F01E0
700F801F01E0
F00F001E01E0
F01F001E01E0
F01E001E01E0
F01E003C01E0
F01E003C03C0
F01E003C03C0
F03E007803C0
F01E00780780
F01E00F80F80
F01F00F80F00
F81F01F81E00
780FC7F87C00
7C07FF7FF800
7C03FE3FF000
3E01F81FC000
1F0000000000
1F8000000000
0FC000000000
07F000000000
03FC00000000
00FF803E0000
007FFFFE0000
001FFFFF0000
0003FFF80000
00001F000000
ENDCHAR
STARTCHAR 0041
ENCODING 65
SWIDTH 677 0
DWIDTH 32 0
BBX 30 34 1 0
BITMAP
000FC000
000FC000
001FE000
001FE000
003FE000
003FF000
003DF000
007CF000
0078F800
00787800
00F87800
00F07C00
00F03C00
01F03E00
01E03E00
03E01E00
03C01F00
03C01F00
07C00F00
07800F80
07FFFF80
0FFFFF80
0FFFFFC0
0FFFFFC0
1F0003C0
1E0003E0
3E0003E0
3E0001F0
3C0001F0
7C0001F0
7C0000F8
780000F8
F80000F8
F800007C
ENDCHAR
STARTCHAR 0042
ENCODING 66
SWIDTH 677 0
DWIDTH 32 0
BBX 25 34 4 0
BITMAP
FFFFC000
FFFFF000
FFFFF800
FFFFFC00
F0007E00
F0003E00
F0001F00
F0001F00
F0001F00
F0000F00
F0001F00
F0001F00
F0001E00
F0003E00
F000FC00
FFFFF800
FFFFE000
FFFFF800
FFFFFE00
F0003F00
F0001F80
F0000F80
F0000780
F0000780
F0000780
F0000780
F0000780
F0000F80
F0000F80
F0003F00
FFFFFE00
FFFFFC00
FFFFF800
FFFFE000
ENDCHAR
STARTCHAR 0043
ENCODING 67
SWIDTH 720 0
DWIDTH 34 0
BBX 30 36 2 -1
BITMAP
000FF000
007FFE00
01FFFF80
03FFFFC0
07F00FE0
0FC003E0
1F8001F0
1F0001F0
3E0000F8
3C0000F8
7C000078
7C000000
78000000
78000000
78000000
F8000000
F8000000
F8000000
F8000000
F8000000
F8000000
F8000000
7800007C
7800007C
7C00007C
7C000078
3E0000F8
3E0000F8
1F0001F0
1F8001F0
0FC003E0
07F00FE0
03FFFFC0
01FFFF80
007FFE00
001FF000
ENDCHAR
STARTCHAR 0044
ENCODING 68
SWIDTH 720 0
DWIDTH 34 0
BBX 27 34 4 0
BITMAP
FFFFC000
FFFFF000
FFFFFC00
FFFFFE00
F8007F00
F8001F80
F8000F80
F80007C0
F80007C0
F80003C0
F80003E0
F80003E0
F80001E0
F80001E0
F80001E0
F80001E0
F80001E0
F80001E0
F80001E0
F80001E0
F80001E0
F80001E0
F80001E0
F80003E0
F80003C0
F80007C0
F80007C0
F8000F80
F8001F00
F8007F00
FFFFFE00
FFFFFC00
FFFFF000
FFFF8000
ENDCHAR
STARTCHAR 0045
ENCODING 69
SWIDTH 677 0
DWIDTH 32 0
BBX 25 34 4 0
BITMAP
FFFFFF00
FFFFFF00
FFFFFF00
FFFFFF00
F8000000
F8000000
F8000000
F8000000
F8000000
F8000000
F8000000
F8000000
F8000000
F8000000
F8000000
FFFFFE00
FFFFFE00
FFFFFE00
FFFFFE00
F8000000
F8000000
F8000000
F8000000
F8000000
F8000000
F8000000
F8000000
F8000000
F8000000
F8000000
FFFFFF80
FFFFFF80
FFFFFF80
FFFFFF80
ENDCHAR
STARTCHAR 0046
ENCODING 70
SWIDTH 614 0
DWIDTH 29 0
BBX 23 34 4 0
BITMAP
FFFFFE
FFFFFE
FFFFFE
FFFFFE
F80000
F80000
F80000
F80000
F80000
F80000
F80000
F80000
F80000
F80000
F80000
FFFFF8
FFFFF8
FFFFF8
FFFFF8
F80000
F80000
F80000
F80000
F80000
F80000
F80000
F80000
F80000
F80000
F80000
F80000
F80000
F80000
F80000
ENDCHAR
STARTCHAR 0047
ENCODING 71
SWIDTH 783 0
DWIDTH 37 0
BBX 31 36 2 -1
BITMAP
000FF800
007FFF00
01FFFFC0
03FFFFE0
07F807F0
0FC001F8
1F8000F8
1F00007C
3E00003C
3E00003E
7C00003E
7C000000
78000000
78000000
F8000000
F8000000
F8000000
F8007FFE
F8007FFE
F8007FFE
F8007FFE
F800000E
F800000E
7800000E
7C00001E
7C00001E
3E00001E
3E00003E
1F00007E
1F8000FE
0FC001FE
07F807EE
03FFFFCE
01FFFF0E
007FFE06
000FF000
ENDCHAR
STARTCHAR 0048
ENCODING 72
SWIDTH 720 0
DWIDTH 34 0
BBX 26 34 4 0
BITMAP
F00003C0
F00003C0
F00003C0
F00003C0
F00003C0
F00003C0
F00003C0
F00003C0
F00003C0
F00003C0
F00003C0
F00003C0
F00003C0
F00003C0
F00003C0
FFFFFFC0
FFFFFFC0
FFFFFFC0
FFFFFFC0
F00003C0
F00003C0
F00003C0
F00003C0
F00003C0
F00003C0
F00003C0
F00003C0
F00003C0
F00003C0
F00003C0
F00003C0
F00003C0
F00003C0
F00003C0
ENDCHAR
STARTCHAR 0049
ENCODING 73
SWIDTH 275 0
DWIDTH 13 0
BBX 4 34 5 0
BITMAP
F0
F0
F0
F0
F0
F0
F0
F0
F0
F0
F0
F0
F0
F0
F0
F0
F0
F0
F0
F0
F0
F0
F0
F0
F0
F0
F0
F0
F0
F0
F0
F0
F0
F0
ENDCHAR
STARTCHAR 004A
ENCODING 74
SWIDTH 508 0
DWIDTH 24 0
BBX 19 35 1 -1
BITMAP
0001E0
0001E0
0001E0
0001E0
0001E0
0001E0
0001E0
0001E0
0001E0
0001E0
0001E0
0001E0
0001E0
0001E0
0001E0
0001E0
0001E0
0001E0
0001E0
0001E0
0001E0
0001E0
0001E0
F001E0
F001E0
F001E0
F001E0
F803E0
F803E0
F807C0
7E0FC0
7FFF80
3FFF00
0FFE00
03F800
ENDCHAR
STARTCHAR 004B
ENCODING 75
SWIDTH 677 0
DWIDTH 32 0
BBX 27 34 4 0
BITMAP
F00007C0
F0000F80
F0001F00
F0003E00
F0007C00
F000F800
F001F000
F003E000
F007C000
F00F8000
F01F0000
F03E0000
F07C0000
F0F80000
F1F80000
F3FC0000
F7FE0000
FFBE0000
FF1F0000
FE0F8000
FC0FC000
F807C000
F003E000
F001F000
F001F000
F000F800
F0007C00
F0007E00
F0003E00
F0001F00
F0001F80
F0000F80
F00007C0
F00003E0
ENDCHAR
STARTCHAR 004C
ENCODING 76
SWIDTH 550 0
DWIDTH 26 0
BBX 21 34 4 0
BITMAP
F00000
F00000
F00000
F00000
F00000
F00000
F00000
F00000
F00000
F00000
F00000
F00000
F00000
F00000
F00000
F00000
F00000
F00000
F00000
F00000
F00000
F00000
F00000
F00000
F00000
F00000
F00000
F00000
F00000
F00000
FFFFF8
FFFFF8
FFFFF8
FFFFF8
ENDCHAR
STARTCHAR 004D
ENCODING 77
SWIDTH 825 0
DWIDTH 39 0
BBX 32 34 4 0
BITMAP
FC00003F
FC00007F
FE00007F
FE00007F
FE0000FF
FF0000FF
FF0000EF
FF0001EF
F78001EF
F78001CF
F78003CF
F3C003CF
F3C0038F
F3C0078F
F1E0078F
F1E0070F
F1E00F0F
F0F00F0F
F0F00E0F
F0F01E0F
F0781E0F
F0781C0F
F0383C0F
F03C3C0F
F03C380F
F01C780F
F01E780F
F01E700F
F00EF00F
F00FF00F
F00FE00F
F007E00F
F007E00F
F007C00F
ENDCHAR
STARTCHAR 004E
ENCODING 78
SWIDTH 720 0
DWIDTH 34 0
BBX 27 34 4 0
BITMAP
F80003E0
F80003E0
FC0003E0
FE0003E0
FE0003E0
FF0003E0
FF8003E0
FF8003E0
F7C003E0
F3E003E0
F3E003E0
F1F003E0
F0F003E0
F0F803E0
F07C03E0
F03C03E0
F03E03E0
F01F03E0
F00F03E0
F00F83E0
F007C3E0
F007C3E0
F003E3E0
F001F3E0
F001F3E0
F000FBE0
F0007FE0
F0007FE0
F0003FE0
F0001FE0
F0001FE0
F0000FE0
F00007E0
F00007E0
ENDCHAR
STARTCHAR 004F
ENCODING 79
SWIDTH 783 0
DWIDTH 37 0
BBX 33 36 2 -1
BITMAP
000FF80000
007FFF0000
01FFFFC000
03FFFFE000
07F00FF000
0FC001F800
1F8000FC00
1F00007C00
3E00003E00
3C00001E00
7C00001F00
7800001F00
F800000F00
F800000F80
F800000F80
F000000F80
F000000780
F000000780
F000000780
F000000780
F000000780
F800000F80
F800000F80
F800000F00
7800000F00
7C00001F00
7C00001E00
3E00003E00
3F00007C00
1F8000FC00
0FC001F800
07F80FF000
03FFFFE000
01FFFFC000
007FFF0000
000FF80000
ENDCHAR
STARTCHAR 0050
ENCODING 80
SWIDTH 677 0
DWIDTH 32 0
BBX 25 34 4 0
BITMAP
FFFFE000
FFFFF800
FFFFFC00
FFFFFE00
F8007F00
F8001F00
F8000F80
F8000F80
F8000F80
F8000780
F8000780
F8000F80
F8000F80
F8000F80
F8001F00
F8007F00
FFFFFE00
FFFFFC00
FFFFF800
FFFFC000
F8000000
F8000000
F8000000
F8000000
F8000000
F8000000
F8000000
F8000000
F8000000
F8000000
F8000000
F8000000
F8000000
F8000000
ENDCHAR
STARTCHAR 0051
ENCODING 81
SWIDTH 783 0
DWIDTH 37 0
BBX 33 38 2 -3
BITMAP
000FF80000
007FFF0000
01FFFFC000
03FFFFE000
07F00FF000
0FC001F800
1F8000FC00
1F00007C00
3E00003E00
3C00001E00
7C00001F00
7800000F00
F800000F00
F800000F80
F800000F80
F000000780
F000000780
F000000780
F000000780
F000000780
F000000780
F800000F80
F800000F80
F800000F00
7800000F00
7C00001F00
7C000C1E00
3E001E3E00
3F001FFC00
1F800FFC00
0FC003F800
07F00FF000
03FFFFFC00
01FFFFFE00
007FFF1F00
000FF80F00
0000000600
0000000200
ENDCHAR
STARTCHAR 0052
ENCODING 82
SWIDTH 720 0
DWIDTH 34 0
BBX 28 34 4 0
BITMAP
FFFFF000
FFFFFE00
FFFFFF00
FFFFFF80
F8001FC0
F80007C0
F80007E0
F80003E0
F80003E0
F80003E0
F80003E0
F80003C0
F80003C0
F80007C0
F8001F80
FFFFFF00
FFFFFC00
FFFFFE00
FFFFFF00
F8001F80
F8000F80
F80007C0
F80007C0
F80003C0
F80003C0
F80003C0
F80003C0
F80003C0
F80003C0
F80003C0
F80003C0
F80003E0
F80003F0
F80001F0
ENDCHAR
STARTCHAR 0053
ENCODING 83
SWIDTH 677 0
DWIDTH 32 0
BBX 27 36 2 -1
BITMAP
007FC000
01FFF800
07FFFC00
0FFFFF00
1F803F00
3F000F80
3E000780
3C0007C0
7C0003C0
7C0003C0
7C0003C0
7C000000
3E000000
3F000000
3FE00000
1FFE0000
0FFFE000
03FFFC00
003FFF00
0007FF80
00007FC0
00000FC0
000007E0
000003E0
F00001E0
F80001E0
F80001E0
780001E0
7C0003E0
7C0003C0
3F0007C0
1FC01F80
0FFFFF00
07FFFE00
03FFFC00
007FE000
ENDCHAR
STARTCHAR 0054
ENCODING 84
SWIDTH 614 0
DWIDTH 29 0
BBX 27 34 1 0
BITMAP
FFFFFFE0
FFFFFFE0
FFFFFFE0
FFFFFFE0
001F0000
001F0000
001F0000
001F0000
001F0000
001F0000
001F0000
001F0000
001F0000
001F0000
001F0000
001F0000
001F0000
001F0000
001F0000
001F0000
001F0000
001F0000
001F0000
001F0000
001F0000
001F0000
001F0000
001F0000
001F0000
001F0000
001F0000
001F0000
001F0000
001F0000
ENDCHAR
STARTCHAR 0055
ENCODING 85
SWIDTH 720 0
DWIDTH 34 0
BBX 26 35 4 -1
BITMAP
F00003C0
F00003C0
F00003C0
F00003C0
F00003C0
F00003C0
F00003C0
F00003C0
F00003C0
F00003C0
F00003C0
F00003C0
F00003C0
F00003C0
F00003C0
F00003C0
F00003C0
F00003C0
F00003C0
F00003C0
F00003C0
F00003C0
F00003C0
F00003C0
F00003C0
F80003C0
F80003C0
780007C0
7C000F80
7E001F80
3F807F00
1FFFFE00
0FFFFC00
03FFF000
007FC000
ENDCHAR
STARTCHAR 0056
ENCODING 86
SWIDTH 677 0
DWIDTH 32 0
BBX 28 34 2 0
BITMAP
F00000F0
F80001F0
F80001F0
780001E0
7C0003E0
7C0003E0
3C0003C0
3E0007C0
3E000780
1E000780
1F000F80
0F000F00
0F800F00
0F801F00
07801E00
07C01E00
07C03E00
03C03C00
03E03C00
03E07C00
01E07800
01F07800
00F0F800
00F0F000
00F8F000
0079E000
0079E000
007DE000
003FC000
003FC000
003FC000
001F8000
001F8000
000F8000
ENDCHAR
STARTCHAR 0057
ENCODING 87
SWIDTH 952 0
DWIDTH 45 0
BBX 43 34 1 0
BITMAP
F8001F0003E0
F8001F0003C0
7C003F8007C0
7C003F8007C0
7C003F8007C0
7C003F800780
3C007FC00F80
3E007BC00F80
3E007BC00F80
3E00F3C00F00
1E00F1E00F00
1F00F1E01F00
1F00F1E01F00
0F01E1F01E00
0F01E0F01E00
0F81E0F03E00
0F83E0F03E00
0783C0783C00
0783C0783C00
07C3C0787C00
07C7807C7C00
03C7803C7800
03C7803C7800
03C7803C7800
03EF001EF800
01EF001EF000
01EF001EF000
01FE001FF000
01FE000FF000
00FE000FE000
00FE000FE000
00FC0007E000
00FC0007E000
007C0007C000
ENDCHAR
STARTCHAR 0058
ENCODING 88
SWIDTH 677 0
DWIDTH 32 0
BBX 29 34 1 0
BITMAP
7C0001F8
3E0001F0
3F0003E0
1F0003E0
0F8007C0
07C00F80
07C00F80
03E01F00
01F03E00
01F03C00
00F87C00
007CF800
007CF000
003FF000
001FE000
001FC000
000FC000
000FC000
001FE000
003FF000
007DF000
007CF800
00F87C00
01F07C00
01F03E00
03E01F00
07C01F00
07C00F80
0F8007C0
1F0007E0
3F0003E0
3E0001F0
7C0001F8
FC0000F8
ENDCHAR
STARTCHAR 0059
ENCODING 89
SWIDTH 677 0
DWIDTH 32 0
BBX 30 34 1 0
BITMAP
F800007C
7C0000F8
7E0001F8
3E0001F0
3F0003E0
1F0003E0
0F8007C0
0FC007C0
07C00F80
03E01F00
03E01F00
01F03E00
00F83C00
00F87C00
007CF800
003EF800
003FF000
001FE000
001FE000
000FC000
00078000
00078000
00078000
00078000
00078000
00078000
00078000
00078000
00078000
00078000
00078000
00078000
00078000
00078000
ENDCHAR
STARTCHAR 005A
ENCODING 90
SWIDTH 614 0
DWIDTH 29 0
BBX 27 34 1 0
BITMAP
3FFFFFC0
3FFFFFC0
3FFFFFC0
3FFFFFC0
00000FC0
00000F80
00001F00
00003F00
00007E00
00007C00
0000F800
0001F800
0003F000
0007E000
0007C000
000F8000
001F8000
003F0000
007E0000
007C0000
00F80000
01F80000
03F00000
03E00000
07C00000
0F800000
1F800000
3F000000
3E000000
7C000000
FFFFFFE0
FFFFFFE0
FFFFFFE0
FFFFFFE0
ENDCHAR
STARTCHAR 005B
ENCODING 91
SWIDTH 275 0
DWIDTH 13 0
BBX 9 44 3 -10
BITMAP
FF80
FF80
FF80
F000
F000
F000
F000
F000
F000
F000
F000
F000
F000
F000
F000
F000
F000
F000
F000
F000
F000
F000
F000
F000
F000
F000
F000
F000
F000
F000
F000
F000
F000
F000
F000
F000
F000
F000
F000
F000
F000
FF80
FF80
FF80
ENDCHAR
STARTCHAR 005C
ENCODING 92
SWIDTH 275 0
DWIDTH 13 0
BBX 13 35 0 -1
BITMAP
C000
E000
E000
6000
7000
7000
3000
3800
3800
1800
1C00
1C00
0C00
0E00
0E00
0600
0700
0700
0300
0300
0380
0380
0180
01C0
01C0
00C0
00E0
00E0
0060
0070
0070
0030
0038
0038
0018
ENDCHAR
STARTCHAR 005D
ENCODING 93
SWIDTH 275 0
DWIDTH 13 0
BBX 9 44 1 -10
BITMAP
FF80
FF80
FF80
0780
0780
0780
0780
0780
0780
0780
0780
0780
0780
0780
0780
0780
0780
0780
0780
0780
0780
0780
0780
0780
0780
0780
0780
0780
0780
0780
0780
0780
0780
0780
0780
0780
0780
0780
0780
0780
0780
FF80
FF80
FF80
ENDCHAR
STARTCHAR 005E
ENCODING 94
SWIDTH 465 0
DWIDTH 22 0
BBX 18 17 2 16
BITMAP
01E000
01F000
03F000
03F000
07B800
073800
0F3C00
0E1C00
0E1C00
1E0E00
1C0E00
3C0F00
380700
380700
780380
700380
F003C0
ENDCHAR
STARTCHAR 005F
ENCODING 95
SWIDTH 550 0
DWIDTH 26 0
BBX 28 2 -1 -8
BITMAP
FFFFFFF0
FFFFFFF0
ENDCHAR
STARTCHAR 0060
ENCODING 96
SWIDTH 338 0
DWIDTH 16 0
BBX 9 7 2 28
BITMAP
F800
7800
3C00
1E00
0E00
0700
0380
ENDCHAR
STARTCHAR 0061
ENCODING 97
SWIDTH 550 0
DWIDTH 26 0
BBX 23 27 2 -1
BITMAP
01FE00
07FFC0
1FFFE0
3FFFF0
3E01F0
7C00F0
7800F0
7800F0
0000F0
0000F0
0001F0
001FF0
07FFF0
1FFFF0
3FF0F0
7E00F0
7800F0
F800F0
F000F0
F000F0
F000F0
F801F0
F807F0
7FBF78
3FFE7E
1FFC7E
07E03E
ENDCHAR
STARTCHAR 0062
ENCODING 98
SWIDTH 550 0
DWIDTH 26 0
BBX 22 35 3 -1
BITMAP
E00000
E00000
E00000
E00000
E00000
E00000
E00000
E00000
E0FE00
E3FF80
E7FFC0
EFFFE0
FE07F0
FC01F0
F800F8
F800F8
F00078
F00078
F0007C
F0007C
F0003C
E0003C
F0003C
F0007C
F00078
F00078
F00078
F800F8
F800F0
FC01F0
FE03E0
EFFFE0
EFFFC0
E3FF00
00FC00
ENDCHAR
STARTCHAR 0063
ENCODING 99
SWIDTH 508 0
DWIDTH 24 0
BBX 22 27 1 -1
BITMAP
00FE00
03FF80
07FFE0
0FFFE0
1F01F0
3E00F8
3C00F8
7C0078
780078
780000
780000
780000
780000
F80000
F80000
780000
780000
78003C
780078
7C0078
3C0078
3E00F8
1F01F0
1FFFE0
0FFFC0
03FF80
00FE00
ENDCHAR
STARTCHAR 0064
ENCODING 100
SWIDTH 550 0
DWIDTH 26 0
BBX 22 35 1 -1
BITMAP
00003C
00003C
00003C
00003C
00003C
00003C
00003C
00003C
00FC3C
03FF3C
0FFFBC
1FFFFC
1F01FC
3E00FC
7C007C
7C007C
78003C
78003C
F8003C
F0003C
F0003C
F0003C
F0003C
F0003C
F8003C
78003C
78003C
7C007C
7C007C
3E00FC
3F01FC
1FFFDC
0FFF9C
07FF1C
00FC00
ENDCHAR
STARTCHAR 0065
ENCODING 101
SWIDTH 550 0
DWIDTH 26 0
BBX 22 27 2 -1
BITMAP
00FE00
03FF80
0FFFC0
1FFFE0
3F03F0
3E00F8
7C0078
78007C
78007C
F0003C
F0003C
F0003C
FFFFFC
FFFFFC
FFFFFC
F00000
F00000
F00000
F8003C
780078
7C0078
7C00F8
3F01F0
1FFFE0
0FFFC0
07FF80
01FE00
ENDCHAR
STARTCHAR 0066
ENCODING 102
SWIDTH 275 0
DWIDTH 13 0
BBX 11 35 1 0
BITMAP
03E0
07E0
0FE0
0F80
1E00
1E00
1E00
1E00
1E00
1E00
FFE0
FFE0
FFE0
1E00
1E00
1E00
1E00
1E00
1E00
1E00
1E00
1E00
1E00
1E00
1E00
1E00
1E00
1E00
1E00
1E00
1E00
1E00
1E00
1E00
1E00
ENDCHAR
STARTCHAR 0067
ENCODING 103
SWIDTH 550 0
DWIDTH 26 0
BBX 21 36 2 -10
BITMAP
01F800
07FE78
0FFF78
1FFF78
3E07F8
3C03F8
7801F8
7800F8
F000F8
F000F8
F000F8
F00078
F00078
F00078
F00078
F00078
F00078
F000F8
F000F8
F800F8
7801F8
7C03F8
3E07F8
1FFF78
0FFE78
07FC78
01F078
0000F0
0000F0
7800F0
7801F0
7C01E0
3E07E0
3FFFC0
0FFF80
07FE00
ENDCHAR
STARTCHAR 0068
ENCODING 104
SWIDTH 550 0
DWIDTH 26 0
BBX 20 34 3 0
BITMAP
F00000
F00000
F00000
F00000
F00000
F00000
F00000
F00000
F07F00
F1FFC0
F3FFE0
F7DFE0
FE03F0
FC01F0
FC00F0
F800F0
F800F0
F000F0
F000F0
F000F0
F000F0
F000F0
F000F0
F000F0
F000F0
F000F0
F000F0
F000F0
F000F0
F000F0
F000F0
F000F0
F000F0
F000F0
ENDCHAR
STARTCHAR 0069
ENCODING 105
SWIDTH 211 0
DWIDTH 10 0
BBX 4 34 3 0
BITMAP
F0
F0
F0
F0
F0
00
00
00
00
F0
F0
F0
F0
F0
F0
F0
F0
F0
F0
F0
F0
F0
F0
F0
F0
F0
F0
F0
F0
F0
F0
F0
F0
F0
ENDCHAR
STARTCHAR 006A
ENCODING 106
SWIDTH 211 0
DWIDTH 10 0
BBX 8 44 -1 -10
BITMAP
0F
0F
0F
0F
0F
00
00
00
00
0F
0F
0F
0F
0F
0F
0F
0F
0F
0F
0F
0F
0F
0F
0F
0F
0F
0F
0F
0F
0F
0F
0F
0F
0F
0F
0F
0F
0F
0F
0F
1F
FF
FE
FC
ENDCHAR
STARTCHAR 006B
ENCODING 107
SWIDTH 508 0
DWIDTH 24 0
BBX 20 34 3 0
BITMAP
F00000
F00000
F00000
F00000
F00000
F00000
F00000
F00000
F00000
F003E0
F007C0
F00F80
F01F00
F03E00
F07C00
F0F800
F1F000
F3E000
F7E000
FFF000
FFF000
FCF800
F87C00
F07C00
F03E00
F01E00
F01F00
F00F80
F00F80
F007C0
F003E0
F003E0
F001F0
F000F0
ENDCHAR
STARTCHAR 006C
ENCODING 108
SWIDTH 211 0
DWIDTH 10 0
BBX 4 34 3 0
BITMAP
F0
F0
F0
F0
F0
F0
F0
F0
F0
F0
F0
F0
F0
F0
F0
F0
F0
F0
F0
F0
F0
F0
F0
F0
F0
F0
F0
F0
F0
F0
F0
F0
F0
F0
ENDCHAR
STARTCHAR 006D
ENCODING 109
SWIDTH 825 0
DWIDTH 39 0
BBX 33 26 3 0
BITMAP
007E01F800
F1FF07FE00
F3FF9FFF00
F7FFFF7F00
FE07F81F80
FC03F00F80
F803F00780
F801E00780
F801E00780
F001E00780
F001E00780
F001E00780
F001E00780
F001E00780
F001E00780
F001E00780
F001E00780
F001E00780
F001E00780
F001E00780
F001E00780
F001E00780
F001E00780
F001E00780
F001E00780
F001E00780
ENDCHAR
STARTCHAR 006E
ENCODING 110
SWIDTH 550 0
DWIDTH 26 0
BBX 20 26 3 0
BITMAP
003F00
F1FF80
F3FFE0
F7DFE0
FE03F0
FC01F0
FC00F0
F800F0
F800F0
F800F0
F000F0
F000F0
F000F0
F000F0
F000F0
F000F0
F000F0
F000F0
F000F0
F000F0
F000F0
F000F0
F000F0
F000F0
F000F0
F000F0
ENDCHAR
STARTCHAR 006F
ENCODING 111
SWIDTH 550 0
DWIDTH 26 0
BBX 22 27 2 -1
BITMAP
01FE00
07FF80
0FFFC0
1FFFE0
3F03F0
7C01F0
7C00F8
780078
F8007C
F0007C
F0003C
F0003C
F0003C
F0003C
F0003C
F0003C
F0003C
F0003C
F8007C
780078
7C00F8
7C00F0
3F03F0
1FFFE0
0FFFC0
07FF80
01FC00
ENDCHAR
STARTCHAR 0070
ENCODING 112
SWIDTH 550 0
DWIDTH 26 0
BBX 22 36 3 -10
BITMAP
007C00
E3FF80
E7FFC0
EFFFE0
FE03E0
FC01F0
F800F8
F800F8
F00078
F00078
F0007C
F0007C
F0003C
F0003C
F0003C
F0007C
F0007C
F00078
F00078
F800F8
F800F8
FC01F0
FE03E0
FFFFE0
F7FFC0
F3FF00
F0FC00
F00000
F00000
F00000
F00000
F00000
F00000
F00000
F00000
F00000
ENDCHAR
STARTCHAR 0071
ENCODING 113
SWIDTH 550 0
DWIDTH 26 0
BBX 22 36 1 -10
BITMAP
00FC00
03FF1C
0FFF9C
1FFFDC
1F01FC
3E00FC
3C007C
7C007C
78003C
78003C
78003C
F0003C
F0003C
F0003C
F0003C
F0003C
F8003C
78003C
78003C
7C007C
7C007C
3E00FC
3F01FC
1FFFFC
0FFFBC
07FF3C
01FC3C
00003C
00003C
00003C
00003C
00003C
00003C
00003C
00003C
00003C
ENDCHAR
STARTCHAR 0072
ENCODING 114
SWIDTH 338 0
DWIDTH 16 0
BBX 12 26 3 0
BITMAP
00F0
F1F0
F3F0
F7F0
FFE0
FE00
FC00
F800
F800
F800
F000
F000
F000
F000
F000
F000
F000
F000
F000
F000
F000
F000
F000
F000
F000
F000
ENDCHAR
STARTCHAR 0073
ENCODING 115
SWIDTH 508 0
DWIDTH 24 0
BBX 20 27 2 -1
BITMAP
03FC00
0FFF00
3FFF80
3FFFC0
7C07C0
7803C0
F003E0
F003E0
F80000
F80000
7E0000
7FE000
3FFC00
0FFF80
03FFC0
003FE0
0003E0
0001F0
F001F0
F000F0
F001F0
F801E0
FC03E0
7FFFC0
3FFF80
1FFF00
07F800
ENDCHAR
STARTCHAR 0074
ENCODING 116
SWIDTH 275 0
DWIDTH 13 0
BBX 11 33 1 -1
BITMAP
1E00
1E00
1E00
1E00
1E00
1E00
1E00
FFE0
FFE0
FFE0
1E00
1E00
1E00
1E00
1E00
1E00
1E00
1E00
1E00
1E00
1E00
1E00
1E00
1E00
1E00
1E00
1E00
1E00
1E00
1FA0
1FE0
0FE0
07E0
ENDCHAR
STARTCHAR 0075
ENCODING 117
SWIDTH 550 0
DWIDTH 26 0
BBX 20 26 3 -1
BITMAP
F000F0
F000F0
F000F0
F000F0
F000F0
F000F0
F000F0
F000F0
F000F0
F000F0
F000F0
F000F0
F000F0
F000F0
F000F0
F000F0
F000F0
F001F0
F001F0
F001F0
F803F0
FC07F0
7FBFF0
3FFEF0
1FF8F0
07F000
ENDCHAR
STARTCHAR 0076
ENCODING 118
SWIDTH 508 0
DWIDTH 24 0
BBX 22 25 1 0
BITMAP
F0007C
F00078
F80078
7800F8
7800F0
7C00F0
3C01E0
3C01E0
3E01E0
1E03C0
1E03C0
1F03C0
0F0780
0F0780
0F8700
078F00
078F00
03DE00
03DE00
03DE00
01FC00
01FC00
01F800
00F800
00F800
ENDCHAR
STARTCHAR 0077
ENCODING 119
SWIDTH 720 0
DWIDTH 34 0
BBX 33 25 0 0
BITMAP
F803E00780
7803F00780
7803F00F80
7C03F00F00
3C07F00F00
3C07F80F00
3C07781F00
3E07781E00
1E0F781E00
1E0F3C1E00
1E0E3C3C00
0F0E3C3C00
0F1E3C3C00
0F1E1E3800
0F1C1E7800
079C1E7800
07BC1E7800
07BC0F7000
03B80FF000
03F80FF000
03F807E000
03F807E000
01F807E000
01F007E000
01F003C000
ENDCHAR
STARTCHAR 0078
ENCODING 120
SWIDTH 508 0
DWIDTH 24 0
BBX 21 25 1 0
BITMAP
7800F8
7C00F0
3C01E0
1E03E0
1F03C0
0F0780
078F80
07CF00
03DE00
01FE00
01FC00
00F800
00F800
00FC00
01FC00
03FE00
03DF00
078F00
0F8780
0F07C0
1E03C0
3E03E0
3C01F0
7800F0
F800F8
ENDCHAR
STARTCHAR 0079
ENCODING 121
SWIDTH 508 0
DWIDTH 24 0
BBX 21 35 1 -10
BITMAP
F00078
F80078
7800F8
7800F0
7C00F0
3C01F0
3C01E0
3E01E0
1E03C0
1E03C0
1F03C0
0F0780
0F0780
0F8780
078F00
078F00
07DF00
03DE00
03DE00
03FC00
01FC00
01FC00
00F800
00F800
00F800
00F000
00F000
01E000
01E000
03E000
03C000
3FC000
3F8000
3F0000
3E0000
ENDCHAR
STARTCHAR 007A
ENCODING 122
SWIDTH 508 0
DWIDTH 24 0
BBX 21 25 1 0
BITMAP
7FFFF0
7FFFF0
7FFFF0
0001F0
0003E0
0003C0
000780
000F80
001F00
003E00
007C00
007800
00F800
01F000
03E000
07C000
078000
0F8000
1F0000
3E0000
7C0000
F80000
FFFFF8
FFFFF8
FFFFF8
ENDCHAR
STARTCHAR 007B
ENCODING 123
SWIDTH 338 0
DWIDTH 16 0
BBX 11 44 2 -10
BITMAP
01E0
07E0
07E0
0F00
0F00
0E00
0E00
0E00
0E00
0E00
0E00
0E00
0E00
0E00
0E00
0E00
0E00
1E00
1E00
3E00
FC00
F800
F000
F800
3C00
1E00
1E00
1E00
0E00
0E00
0E00
0E00
0E00
0E00
0E00
0E00
0E00
0E00
0E00
0E00
0F00
0FE0
07E0
03E0
ENDCHAR
STARTCHAR 007C
ENCODING 124
SWIDTH 254 0
DWIDTH 12 0
BBX 3 44 5 -10
BITMAP
E0
E0
E0
E0
E0
E0
E0
E0
E0
E0
E0
E0
E0
E0
E0
E0
E0
E0
E0
E0
E0
E0
E0
E0
E0
E0
E0
E0
E0
E0
E0
E0
E0
E0
E0
E0
E0
E0
E0
E0
E0
E0
E0
E0
ENDCHAR
STARTCHAR 007D
ENCODING 125
SWIDTH 338 0
DWIDTH 16 0
BBX 11 44 1 -10
BITMAP
F800
FC00
FE00
1E00
0F00
0F00
0F00
0F00
0F00
0F00
0F00
0F00
0F00
0F00
0F00
0F00
0F00
0F00
0780
0780
03E0
01E0
00E0
03E0
07C0
0780
0700
0F00
0F00
0F00
0F00
0F00
0F00
0F00
0F00
0F00
0F00
0F00
0F00
0F00
0F00
FE00
FE00
FC00
ENDCHAR
STARTCHAR 007E
ENCODING 126
SWIDTH 592 0
DWIDTH 28 0
BBX 20 8 4 13
BITMAP
1E0000
7F0070
7FC070
F3F070
E1F870
C07FE0
C03FE0
000FC0
ENDCHAR
STARTCHAR 00A0
ENCODING 160
SWIDTH 275 0
DWIDTH 13 0
BBX 0 0 0 0
BITMAP
ENDCHAR
STARTCHAR 00A1
ENCODING 161
SWIDTH 338 0
DWIDTH 16 0
BBX 4 34 6 -9
BITMAP
F0
F0
F0
F0
F0
00
00
00
60
60
60
E0
E0
E0
E0
E0
E0
F0
F0
F0
F0
F0
F0
F0
F0
F0
F0
F0
F0
F0
F0
F0
F0
F0
ENDCHAR
STARTCHAR 00A2
ENCODING 162
SWIDTH 550 0
DWIDTH 26 0
BBX 22 36 2 -6
BITMAP
001800
001800
001800
001800
001800
01FF80
03FFE0
0FFFF0
1FDBF0
1F18F8
3E1878
3C187C
7C183C
78183C
781800
781800
781800
F81800
F81800
F81800
781800
78183C
78183C
7C183C
3C187C
3E1878
1F18F8
1FFFF0
0FFFE0
03FFC0
00FF00
001800
001800
001800
001800
001800
ENDCHAR
STARTCHAR 00A3
ENCODING 163
SWIDTH 550 0
DWIDTH 26 0
BBX 24 35 1 -1
BITMAP
007F00
01FFE0
07FFF0
0FFFF8
1F80FC
1F007C
3E003E
3C003E
3C001E
3C001E
3C001E
3C0000
3E0000
3E0000
1F0000
0F0000
FFFF00
FFFF00
FFFF00
03C000
03C000
03E000
01E000
01C000
03C000
03C000
078000
070000
0F0000
1E3800
3FFF9E
7FFFFF
7FFFFF
381FFE
0001F8
ENDCHAR
STARTCHAR 00A4
ENCODING 164
SWIDTH 550 0
DWIDTH 26 0
BBX 20 19 3 6
BITMAP
200040
7060E0
FBFDF0
7FFFF0
3FFFE0
3F0FC0
3C03C0
3C03C0
7801E0
7801E0
7801E0
7801E0
3C03C0
3C03C0
3F0F80
3FFFC0
7FFFE0
7BFDF0
3060C0
ENDCHAR
STARTCHAR 00A5
ENCODING 165
SWIDTH 550 0
DWIDTH 26 0
BBX 25 34 1 0
BITMAP
F0000780
F0000F00
78001E00
78001E00
3C003C00
1E003C00
1E007800
0F007800
0F00F000
0780E000
0781E000
03C3C000
01E3C000
01E78000
00F78000
00FF0000
007F0000
3FFFFC00
3FFFFC00
003C0000
003C0000
003C0000
003C0000
003C0000
3FFFFC00
3FFFFC00
003C0000
003C0000
003C0000
003C0000
003C0000
003C0000
003C0000
003C0000
ENDCHAR
STARTCHAR 00A6
ENCODING 166
SWIDTH 254 0
DWIDTH 12 0
BBX 3 44 5 -10
BITMAP
E0
E0
E0
E0
E0
E0
E0
E0
E0
E0
E0
E0
E0
E0
E0
E0
E0
E0
E0
00
00
00
00
00
00
00
E0
E0
E0
E0
E0
E0
E0
E0
E0
E0
E0
E0
E0
E0
E0
E0
E0
E0
ENDCHAR
STARTCHAR 00A7
ENCODING 167
SWIDTH 550 0
DWIDTH 26 0
BBX 22 44 2 -10
BITMAP
007E00
01FF80
07FFC0
0FFFE0
0F83E0
1F01F0
1E00F0
1E00F0
1F00F0
1F0000
0FC000
07E000
0FF800
1FFC00
3C7F00
783F80
701FE0
F007F0
F003F8
F000F8
F0007C
F8007C
7C003C
7F003C
3F803C
1FC03C
0FF078
03F878
01FDF0
007FE0
003F80
000FC0
0007C0
0003E0
0001E0
3C01E0
3C01E0
3C01E0
3E03E0
1F07C0
1FFFC0
0FFF80
07FF00
01FC00
ENDCHAR
STARTCHAR 00A8
ENCODING 168
SWIDTH 338 0
DWIDTH 16 0
BBX 13 5 1 29
BITMAP
F8F8
F8F8
F8F8
F8F8
F8F8
ENDCHAR
STARTCHAR 00A9
ENCODING 169
SWIDTH 741 0
DWIDTH 35 0
BBX 36 36 -1 -1
BITMAP
0003FE0000
001FFFC000
007FFFF000
00FC03F800
01F0007C00
07C0001E00
0780000F00
0F00FC0780
1E03FF03C0
1C07FF81C0
3C0F0781E0
381E03C0E0
781C01C0F0
703C01C070
7038000070
7038000070
F038000070
F038000070
F038000070
F038000070
703800E070
703801E070
703C01E070
781C01C0F0
381E03C0E0
3C0F0781E0
1C07FF01C0
1E03FE03C0
0F00FC0780
0780000F00
07C0001E00
01F0007C00
00FC01F800
007FFFF000
001FFFC000
0003FC0000
ENDCHAR
STARTCHAR 00AA
ENCODING 170
SWIDTH 360 0
DWIDTH 17 0
BBX 14 21 2 14
BITMAP
1FC0
3FE0
7DF0
7070
E070
0070
00F0
1FF0
7F70
E070
E070
E070
E0F0
FBF0
7FBC
3E3C
0000
0000
0000
FFF8
FFF8
ENDCHAR
STARTCHAR 00AB
ENCODING 171
SWIDTH 550 0
DWIDTH 26 0
BBX 16 15 5 6
BITMAP
0601
0E03
1E07
3C1F
F83E
F07C
E070
C070
F078
F83C
7C1F
3E0F
0E07
0601
0201
ENDCHAR
STARTCHAR 00AC
ENCODING 172
SWIDTH 592 0
DWIDTH 28 0
BBX 24 14 2 4
BITMAP
FFFFFF
FFFFFF
FFFFFF
00000F
00000F
00000F
00000F
00000F
00000F
00000F
00000F
00000F
00000F
00000F
ENDCHAR
STARTCHAR 00AD
ENCODING 173
SWIDTH 338 0
DWIDTH 16 0
BBX 11 3 2 12
BITMAP
FFE0
FFE0
FFE0
ENDCHAR
STARTCHAR 00AE
ENCODING 174
SWIDTH 741 0
DWIDTH 35 0
BBX 36 36 -1 -1
BITMAP
0003FE0000
001FFFC000
007FFFF000
00FC03F800
03F0007E00
07C0001F00
0780000F00
0F1FFF0780
1E1FFF83C0
1C1FFFC1C0
3C1C03E1E0
381C01E0E0
781C01E0F0
701C01E070
701C01E070
701C01E070
F01C03C070
F01FFF8070
F01FFF8070
F01FFFC070
701C03C070
701C01C070
701C01E070
781C01E0F0
381C01E0E0
3C1C01E1E0
3C1C01E1C0
1E1C00F3C0
0F00000780
0F80000F00
07C0001F00
03F0007C00
00FC01F800
007FFFF000
001FFFC000
0003FC0000
ENDCHAR
STARTCHAR 00AF
ENCODING 175
SWIDTH 338 0
DWIDTH 16 0
BBX 13 3 1 30
BITMAP
FFF8
FFF8
FFF8
ENDCHAR
STARTCHAR 00B0
ENCODING 176
SWIDTH 402 0
DWIDTH 19 0
BBX 15 15 2 18
BITMAP
0380
0FE0
3FF8
3878
701C
601C
E00E
E00E
E00E
E00C
701C
783C
3FF8
1FF0
07C0
ENDCHAR
STARTCHAR 00B1
ENCODING 177
SWIDTH 592 0
DWIDTH 28 0
BBX 23 30 2 -1
BITMAP
003800
003800
003800
003800
003800
003800
003800
003800
003800
003800
FFFFFE
FFFFFE
FFFFFE
003800
003800
003800
003800
003800
003800
003800
003800
003800
003800
000000
000000
000000
000000
FFFFFE
FFFFFE
FFFFFE
ENDCHAR
STARTCHAR 00B2
ENCODING 178
SWIDTH 338 0
DWIDTH 16 0
BBX 15 20 0 13
BITMAP
07E0
1FF8
3FFC
381C
700E
700E
700E
000E
001C
007C
00F8
03E0
0F80
1E00
3C00
7800
7000
7FFE
7FFE
FFFE
ENDCHAR
STARTCHAR 00B3
ENCODING 179
SWIDTH 338 0
DWIDTH 16 0
BBX 15 21 0 12
BITMAP
0FE0
1FF0
3FF8
783C
701C
701C
701C
001C
03F8
03F0
03F8
003C
001E
000E
E00E
F00E
701C
783C
3FF8
1FF0
0100
ENDCHAR
STARTCHAR 00B4
ENCODING 180
SWIDTH 338 0
DWIDTH 16 0
BBX 9 7 5 28
BITMAP
0F80
1F00
3E00
3C00
7800
F000
E000
ENDCHAR
STARTCHAR 00B5
ENCODING 181
SWIDTH 550 0
DWIDTH 26 0
BBX 23 35 3 -10
BITMAP
F000F0
F000F0
F000F0
F000F0
F000F0
F000F0
F000F0
F000F0
F000F0
F000F0
F000F0
F000F0
F000F0
F000F0
F000F0
F000F0
F000F0
F001F0
F001F0
F001F0
F803F0
FC07F0
FFBFF8
FFFEFE
FFF87E
F7E03E
F00000
F00000
F00000
F00000
F00000
F00000
F00000
F00000
F00000
ENDCHAR
STARTCHAR 00B6
ENCODING 182
SWIDTH 529 0
DWIDTH 25 0
BBX 23 43 2 -9
BITMAP
00FFFE
03FFFE
0FFFFE
1FF870
3FF870
3FF870
7FF870
7FF870
7FF870
FFF870
FFF870
FFF870
FFF870
FFF870
7FF870
7FF870
7FF870
3FF870
1FF870
1FF870
07F870
03F870
003870
003870
003870
003870
003870
003870
003870
003870
003870
003870
003870
003870
003870
003870
003870
003870
003870
003870
003870
003870
003870
ENDCHAR
STARTCHAR 00B7
ENCODING 183
SWIDTH 275 0
DWIDTH 13 0
BBX 5 5 5 11
BITMAP
F8
F8
F8
F8
F8
ENDCHAR
STARTCHAR 00B8
ENCODING 184
SWIDTH 338 0
DWIDTH 16 0
BBX 12 10 2 -10
BITMAP
0200
0600
0600
0FE0
0BE0
00F0
00E0
E1E0
FFC0
1F80
ENDCHAR
STARTCHAR 00B9
ENCODING 185
SWIDTH 338 0
DWIDTH 16 0
BBX 8 20 2 13
BITMAP
03
07
07
FF
FF
FF
07
07
07
07
07
07
07
07
07
07
07
07
07
07
ENDCHAR
STARTCHAR 00BA
ENCODING 186
SWIDTH 360 0
DWIDTH 17 0
BBX 13 21 2 14
BITMAP
0F80
3FE0
7DF0
7078
E038
E038
E038
E018
E018
E038
E038
E038
7070
7DF0
3FE0
0F80
0000
0000
0000
FFF8
FFF8
ENDCHAR
STARTCHAR 00BB
ENCODING 187
SWIDTH 550 0
DWIDTH 26 0
BBX 16 15 5 6
BITMAP
8060
C070
F078
F87C
7C1F
1E0F
0E07
0E03
1E0F
3E1F
F83E
F078
E070
C060
8040
ENDCHAR
STARTCHAR 00BC
ENCODING 188
SWIDTH 825 0
DWIDTH 39 0
BBX 37 34 1 -1
BITMAP
0300001C00
0700001800
0700003800
3F00007000
FF00006000
FF0000E000
070001C000
070001C000
0700038000
0700030000
0700070000
07000E0000
07000C0000
07001C00C0
07001801C0
07003803C0
07007003C0
07006007C0
0700E00FC0
0701C01DC0
0001C039C0
00038039C0
00030071C0
000700E1C0
000E01C1C0
000C01C1C0
001C03FFF8
003803FFF8
003803FFF8
00700001C0
00600001C0
00E00001C0
01C00001C0
0180000000
ENDCHAR
STARTCHAR 00BD
ENCODING 189
SWIDTH 825 0
DWIDTH 39 0
BBX 37 34 1 -1
BITMAP
0300003800
0700007000
0F00006000
FF0000E000
FF0001C000
FF0001C000
0700038000
0700030000
0700070000
07000E0000
07000E0000
07001C0000
0700180000
0700381F80
0700707FE0
070060FFF0
0700E0E078
0701C0E038
0701C1C038
070381C038
0003000038
0007000078
000E0000F0
000C0003E0
001C000FC0
0038001F00
0038007C00
007000F000
006000E000
00E001E000
01C001FFF8
018001FFF8
038001FFF8
0700000000
ENDCHAR
STARTCHAR 00BE
ENCODING 190
SWIDTH 825 0
DWIDTH 39 0
BBX 37 34 1 -1
BITMAP
0FC0000600
1FF0000E00
3FF8001C00
783C001C00
701C003800
701C003000
701C007000
003C00E000
03F800C000
03E001C000
03F8038000
003C038000
001C070000
000E0600C0
E00E0E01C0
E00E1C03C0
701C1807C0
783C3807C0
3FF8700FC0
1FF0701DC0
0000E039C0
0000C039C0
0001C071C0
000380E1C0
000301C1C0
000701C1C0
000E03FFF8
000E03FFF8
001C03FFF8
00180001C0
00380001C0
00700001C0
00600001C0
00E0000000
ENDCHAR
STARTCHAR 00BF
ENCODING 191
SWIDTH 614 0
DWIDTH 29 0
BBX 20 35 5 -10
BITMAP
00F000
00F000
00F000
00F000
00F000
000000
000000
000000
000000
00F000
00F000
00F000
00F000
00F000
01F000
03E000
07E000
0FC000
1F8000
3E0000
7C0000
7C0000
F80000
F00000
F000F0
F000F0
F000F0
F000F0
F001E0
F801E0
7C07E0
7FFFC0
3FFF80
1FFF00
03F800
ENDCHAR
STARTCHAR 00C0
ENCODING 192
SWIDTH 677 0
DWIDTH 32 0
BBX 30 44 1 0
BITMAP
00FC0000
007C0000
003E0000
001F0000
000F0000
00078000
0003C000
00000000
00000000
00000000
000FC000
000FC000
001FE000
001FE000
003FE000
003FF000
003DF000
007CF000
0078F800
00787800
00F87800
00F07C00
00F03C00
01F03E00
01E03E00
03E01E00
03C01F00
03C01F00
07C00F00
07800F80
07FFFF80
0FFFFF80
0FFFFFC0
0FFFFFC0
1F0003C0
1E0003E0
3E0003E0
3E0001F0
3C0001F0
7C0001F0
7C0000F8
780000F8
F80000F8
F800007C
ENDCHAR
STARTCHAR 00C1
ENCODING 193
SWIDTH 677 0
DWIDTH 32 0
BBX 30 44 1 0
BITMAP
0000F800
0000F000
0001E000
0003C000
00038000
00070000
000E0000
00000000
00000000
00000000
000FC000
000FC000
001FE000
001FE000
003FE000
003FF000
003DF000
007CF000
0078F800
00787800
00F87800
00F07C00
00F03C00
01F03E00
01E03E00
03E01E00
03C01F00
03C01F00
07C00F00
07800F80
07FFFF80
0FFFFF80
0FFFFFC0
0FFFFFC0
1F0003C0
1E0003E0
3E0003E0
3E0001F0
3C0001F0
7C0001F0
7C0000F8
780000F8
F80000F8
F800007C
ENDCHAR
STARTCHAR 00C2
ENCODING 194
SWIDTH 677 0
DWIDTH 32 0
BBX 30 44 1 0
BITMAP
000F8000
000FC000
001FE000
003CE000
0038F000
00707800
00F03800
00000000
00000000
00000000
000FC000
000FC000
001FE000
001FE000
003FE000
003FF000
003DF000
007CF000
0078F800
00787800
00F87800
00F07C00
00F03C00
01F03E00
01E03E00
03E01E00
03C01F00
03C01F00
07C00F00
07800F80
07FFFF80
0FFFFF80
0FFFFFC0
0FFFFFC0
1F0003C0
1E0003E0
3E0003E0
3E0001F0
3C0001F0
7C0001F0
7C0000F8
780000F8
F80000F8
F800007C
ENDCHAR
STARTCHAR 00C3
ENCODING 195
SWIDTH 677 0
DWIDTH 32 0
BBX 30 43 1 0
BITMAP
003C1C00
007F1C00
00FFFC00
00E7F800
01C0F000
00000000
00000000
00000000
00000000
000FC000
000FC000
001FE000
001FE000
003FE000
003FF000
003DF000
007CF000
0078F800
00787800
00F87800
00F07C00
00F03C00
01F03E00
01E03E00
03E01E00
03C01F00
03C01F00
07C00F00
07800F80
07FFFF80
0FFFFF80
0FFFFFC0
0FFFFFC0
1F0003C0
1E0003E0
3E0003E0
3E0001F0
3C0001F0
7C0001F0
7C0000F8
780000F8
F80000F8
F800007C
ENDCHAR
STARTCHAR 00C4
ENCODING 196
SWIDTH 677 0
DWIDTH 32 0
BBX 30 43 1 0
BITMAP
0078F800
0078F800
0078F800
0078F800
0078F800
00000000
00000000
00000000
00000000
000FC000
000FC000
001FE000
001FE000
003FE000
003FF000
003DF000
007CF000
0078F800
00787800
00F87800
00F07C00
00F03C00
01F03E00
01E03E00
03E01E00
03C01F00
03C01F00
07C00F00
07800F80
07FFFF80
0FFFFF80
0FFFFFC0
0FFFFFC0
1F0003C0
1E0003E0
3E0003E0
3E0001F0
3C0001F0
7C0001F0
7C0000F8
780000F8
F80000F8
F800007C
ENDCHAR
STARTCHAR 00C5
ENCODING 197
SWIDTH 677 0
DWIDTH 32 0
BBX 30 45 1 0
BITMAP
00078000
000FC000
001CE000
00186000
00186000
00186000
001CE000
000FC000
00078000
00000000
00000000
000FC000
000FC000
001FE000
001FE000
003FE000
003FF000
003DF000
007CF000
0078F800
00787800
00F87800
00F07C00
00F03C00
01F03E00
01E03E00
03E01E00
03C01F00
03C01F00
07C00F00
07800F80
07FFFF80
0FFFFF80
0FFFFFC0
0FFFFFC0
1F0003C0
1E0003E0
3E0003E0
3E0001F0
3C0001F0
7C0001F0
7C0000F8
780000F8
F80000F8
F800007C
ENDCHAR
STARTCHAR 00C6
ENCODING 198
SWIDTH 995 0
DWIDTH 47 0
BBX 44 34 1 0
BITMAP
0007FFFFFFE0
0007FFFFFFE0
0007FFFFFFE0
000FFFFFFFE0
000F07800000
001F07800000
001E07800000
001E07800000
003E07800000
003C07800000
007C07800000
007807800000
00F807800000
00F807800000
00F007800000
01F007FFFFC0
01E007FFFFC0
03E007FFFFC0
03E007FFFFC0
03C007800000
07FFFF800000
07FFFF800000
0FFFFF800000
0FFFFF800000
1F0007800000
1F0007800000
1E0007800000
3E0007800000
3E0007800000
7C0007800000
7C0007FFFFF0
780007FFFFF0
F80007FFFFF0
F80007FFFFF0
ENDCHAR
STARTCHAR 00C7
ENCODING 199
SWIDTH 720 0
DWIDTH 34 0
BBX 30 45 2 -10
BITMAP
000FF000
007FFE00
01FFFF80
03FFFFC0
07F00FE0
0FC003E0
1F8001F0
1F0001F0
3E0000F8
3C0000F8
7C000078
7C000000
78000000
78000000
78000000
F8000000
F8000000
F8000000
F8000000
F8000000
F8000000
78000000
7800007C
7800007C
7C00007C
7C000078
3E0000F8
3E0000F8
1F0001F0
1F8001F0
0FC007E0
07F81FC0
03FFFFC0
01FFFF00
007FFE00
000FE000
00030000
0007C000
0007F000
0000F000
00007000
00007000
0070F000
007FE000
001F8000
ENDCHAR
STARTCHAR 00C8
ENCODING 200
SWIDTH 677 0
DWIDTH 32 0
BBX 25 44 4 0
BITMAP
03E00000
01F00000
00F80000
00780000
003C0000
001E0000
000E0000
00000000
00000000
00000000
FFFFFF00
FFFFFF00
FFFFFF00
FFFFFF00
F8000000
F8000000
F8000000
F8000000
F8000000
F8000000
F8000000
F8000000
F8000000
F8000000
F8000000
FFFFFE00
FFFFFE00
FFFFFE00
FFFFFE00
F8000000
F8000000
F8000000
F8000000
F8000000
F8000000
F8000000
F8000000
F8000000
F8000000
F8000000
FFFFFF80
FFFFFF80
FFFFFF80
FFFFFF80
ENDCHAR
STARTCHAR 00C9
ENCODING 201
SWIDTH 677 0
DWIDTH 32 0
BBX 25 44 4 0
BITMAP
0007C000
000F8000
000F0000
001E0000
003C0000
00380000
00700000
00000000
00000000
00000000
FFFFFF00
FFFFFF00
FFFFFF00
FFFFFF00
F8000000
F8000000
F8000000
F8000000
F8000000
F8000000
F8000000
F8000000
F8000000
F8000000
F8000000
FFFFFE00
FFFFFE00
FFFFFE00
FFFFFE00
F8000000
F8000000
F8000000
F8000000
F8000000
F8000000
F8000000
F8000000
F8000000
F8000000
F8000000
FFFFFF80
FFFFFF80
FFFFFF80
FFFFFF80
ENDCHAR
STARTCHAR 00CA
ENCODING 202
SWIDTH 677 0
DWIDTH 32 0
BBX 25 44 4 0
BITMAP
003E0000
007E0000
00FF0000
00F78000
01E38000
01C1C000
0380E000
00000000
00000000
00000000
FFFFFF00
FFFFFF00
FFFFFF00
FFFFFF00
F8000000
F8000000
F8000000
F8000000
F8000000
F8000000
F8000000
F8000000
F8000000
F8000000
F8000000
FFFFFE00
FFFFFE00
FFFFFE00
FFFFFE00
F8000000
F8000000
F8000000
F8000000
F8000000
F8000000
F8000000
F8000000
F8000000
F8000000
F8000000
FFFFFF80
FFFFFF80
FFFFFF80
FFFFFF80
ENDCHAR
STARTCHAR 00CB
ENCODING 203
SWIDTH 677 0
DWIDTH 32 0
BBX 25 43 4 0
BITMAP
03E3E000
03E3E000
03E3E000
03E3E000
03E3E000
00000000
00000000
00000000
00000000
FFFFFF00
FFFFFF00
FFFFFF00
FFFFFF00
F8000000
F8000000
F8000000
F8000000
F8000000
F8000000
F8000000
F8000000
F8000000
F8000000
F8000000
FFFFFE00
FFFFFE00
FFFFFE00
FFFFFE00
F8000000
F8000000
F8000000
F8000000
F8000000
F8000000
F8000000
F8000000
F8000000
F8000000
F8000000
FFFFFF80
FFFFFF80
FFFFFF80
FFFFFF80
ENDCHAR
STARTCHAR 00CC
ENCODING 204
SWIDTH 275 0
DWIDTH 13 0
BBX 10 44 0 0
BITMAP
FC00
7C00
3E00
1F00
0F00
0780
03C0
0000
0000
0000
0780
0780
0780
0780
0780
0780
0780
0780
0780
0780
0780
0780
0780
0780
0780
0780
0780
0780
0780
0780
0780
0780
0780
0780
0780
0780
0780
0780
0780
0780
0780
0780
0780
0780
ENDCHAR
STARTCHAR 00CD
ENCODING 205
SWIDTH 275 0
DWIDTH 13 0
BBX 9 44 4 0
BITMAP
0F80
1F00
3E00
3C00
7800
F000
E000
0000
0000
0000
7800
7800
7800
7800
7800
7800
7800
7800
7800
7800
7800
7800
7800
7800
7800
7800
7800
7800
7800
7800
7800
7800
7800
7800
7800
7800
7800
7800
7800
7800
7800
7800
7800
7800
ENDCHAR
STARTCHAR 00CE
ENCODING 206
SWIDTH 275 0
DWIDTH 13 0
BBX 13 44 0 0
BITMAP
0F80
0FC0
1FE0
3DE0
38F0
7070
E038
0000
0000
0000
0780
0780
0780
0780
0780
0780
0780
0780
0780
0780
0780
0780
0780
0780
0780
0780
0780
0780
0780
0780
0780
0780
0780
0780
0780
0780
0780
0780
0780
0780
0780
0780
0780
0780
ENDCHAR
STARTCHAR 00CF
ENCODING 207
SWIDTH 275 0
DWIDTH 13 0
BBX 13 42 0 0
BITMAP
F8F8
F8F8
F8F8
F8F8
F8F8
0000
0000
0000
0780
0780
0780
0780
0780
0780
0780
0780
0780
0780
0780
0780
0780
0780
0780
0780
0780
0780
0780
0780
0780
0780
0780
0780
0780
0780
0780
0780
0780
0780
0780
0780
0780
0780
ENDCHAR
STARTCHAR 00D0
ENCODING 208
SWIDTH 720 0
DWIDTH 34 0
BBX 30 34 1 0
BITMAP
1FFFF800
1FFFFE00
1FFFFF80
1FFFFFC0
1F000FE0
1F0003F0
1F0001F0
1F0000F8
1F0000F8
1F000078
1F00007C
1F00003C
1F00003C
1F00003C
1F00003C
FFFF003C
FFFF003C
FFFF003C
1F00003C
1F00003C
1F00003C
1F00003C
1F00007C
1F00007C
1F000078
1F0000F8
1F0000F8
1F0001F0
1F0003E0
1F000FE0
1FFFFFC0
1FFFFF80
1FFFFE00
1FFFF000
ENDCHAR
STARTCHAR 00D1
ENCODING 209
SWIDTH 720 0
DWIDTH 34 0
BBX 27 43 4 0
BITMAP
00F03800
01FE7000
01FFF000
03CFF000
0383C000
00000000
00000000
00000000
00000000
F80003E0
F80003E0
FC0003E0
FE0003E0
FE0003E0
FF0003E0
FF8003E0
FF8003E0
F7C003E0
F3E003E0
F3E003E0
F1F003E0
F0F003E0
F0F803E0
F07C03E0
F03C03E0
F03E03E0
F01F03E0
F01F03E0
F00F83E0
F007C3E0
F007C3E0
F003E3E0
F001F3E0
F001F3E0
F000FBE0
F0007FE0
F0007FE0
F0003FE0
F0001FE0
F0001FE0
F0000FE0
F00007E0
F00007E0
ENDCHAR
STARTCHAR 00D2
ENCODING 210
SWIDTH 783 0
DWIDTH 37 0
BBX 33 45 2 -1
BITMAP
003E000000
001F000000
000F800000
0007800000
0003C00000
0001E00000
0000E00000
0000000000
0000000000
000FF80000
007FFF0000
01FFFFC000
03FFFFE000
07F00FF000
0FC001F800
1F8000FC00
1F00007C00
3E00003E00
3C00001E00
7C00001F00
7800001F00
F800000F00
F800000F80
F800000F80
F000000F80
F000000780
F000000780
F000000780
F000000780
F000000780
F800000F80
F800000F80
F800000F00
7800000F00
7C00001F00
7C00001E00
3E00003E00
3F00007C00
1F8000FC00
0FC001F800
07F80FF000
03FFFFE000
01FFFFC000
007FFF0000
000FF80000
ENDCHAR
STARTCHAR 00D3
ENCODING 211
SWIDTH 783 0
DWIDTH 37 0
BBX 33 45 2 -1
BITMAP
00007E0000
0000780000
0000F00000
0001E00000
0001C00000
0003800000
0007000000
0000000000
0000000000
000FF80000
007FFF0000
01FFFFC000
03FFFFE000
07F00FF000
0FC001F800
1F8000FC00
1F00007C00
3E00003E00
3C00001E00
7C00001F00
7800001F00
F800000F00
F800000F80
F800000F80
F000000F80
F000000780
F000000780
F000000780
F000000780
F000000780
F800000F80
F800000F80
F800000F00
7800000F00
7C00001F00
7C00001E00
3E00003E00
3F00007C00
1F8000FC00
0FC001F800
07F80FF000
03FFFFE000
01FFFFC000
007FFF0000
000FF80000
ENDCHAR
STARTCHAR 00D4
ENCODING 212
SWIDTH 783 0
DWIDTH 37 0
BBX 33 45 2 -1
BITMAP
0003E00000
0007F00000
000F780000
000E380000
001C3C0000
003C1C0000
00380E0000
0000000000
0000000000
000FF80000
007FFF0000
01FFFFC000
03FFFFE000
07F00FF000
0FC001F800
1F8000FC00
1F00007C00
3E00003E00
3C00001E00
7C00001F00
7800001F00
F800000F00
F800000F80
F800000F80
F000000F80
F000000780
F000000780
F000000780
F000000780
F000000780
F800000F80
F800000F80
F800000F00
7800000F00
7C00001F00
7C00001E00
3E00003E00
3F00007C00
1F8000FC00
0FC001F800
07F80FF000
03FFFFE000
01FFFFC000
007FFF0000
000FF80000
ENDCHAR
STARTCHAR 00D5
ENCODING 213
SWIDTH 783 0
DWIDTH 37 0
BBX 33 44 2 -1
BITMAP
001F070000
003FCF0000
003FFE0000
0071FE0000
0070380000
0000000000
0000000000
0000000000
000FF80000
007FFF0000
01FFFFC000
03FFFFE000
07F00FF000
0FC001F800
1F8000FC00
1F00007C00
3E00003E00
3C00001E00
7C00001F00
7800001F00
F800000F00
F800000F80
F800000F80
F000000F80
F000000780
F000000780
F000000780
F000000780
F000000780
F800000F80
F800000F80
F800000F00
7800000F00
7C00001F00
7C00001E00
3E00003E00
3F00007C00
1F8000FC00
0FC001F800
07F80FF000
03FFFFE000
01FFFFC000
007FFF0000
000FF80000
ENDCHAR
STARTCHAR 00D6
ENCODING 214
SWIDTH 783 0
DWIDTH 37 0
BBX 33 44 2 -1
BITMAP
003E3E0000
003E3E0000
003E3E0000
003E3E0000
003E3E0000
0000000000
0000000000
0000000000
000FF80000
007FFF0000
01FFFFC000
03FFFFE000
07F00FF000
0FC001F800
1F8000FC00
1F00007C00
3E00003E00
3C00001E00
7C00001F00
7800001F00
F800000F00
F800000F80
F800000F80
F000000F80
F000000780
F000000780
F000000780
F000000780
F000000780
F800000F80
F800000F80
F800000F00
7800000F00
7C00001F00
7C00001E00
3E00003E00
3F00007C00
1F8000FC00
0FC001F800
07F80FF000
03FFFFE000
01FFFFC000
007FFF0000
000FF80000
ENDCHAR
STARTCHAR 00D7
ENCODING 215
SWIDTH 592 0
DWIDTH 28 0
BBX 18 18 5 2
BITMAP
400100
E00380
F007C0
780F80
3E1F00
1F3E00
0FFC00
07F800
03F000
03F000
07F800
0FFC00
1F3E00
3E1F00
7C0F80
F80780
F003C0
600180
ENDCHAR
STARTCHAR 00D8
ENCODING 216
SWIDTH 783 0
DWIDTH 37 0
BBX 33 36 2 0
BITMAP
000FF80380
007FFF0780
01FFFF8F00
03FFFFFE00
07F00FFC00
0FC003F800
1F8000FC00
3F0000FC00
3E0001FE00
7C0003BE00
7C00071F00
78000F1F00
F8001E0F00
F8003C0F00
F000780F80
F000F00F80
F000E00F80
F001C00F80
F003800F80
F007000F80
F00E000F80
F01C000F80
F838000F00
F870000F00
78F0001F00
7DE0001F00
7FC0003E00
3F80003E00
3F00007C00
1F8000FC00
1FC001F800
3FF00FF000
73FFFFE000
E1FFFF8000
C07FFE0000
000FF00000
ENDCHAR
STARTCHAR 00D9
ENCODING 217
SWIDTH 720 0
DWIDTH 34 0
BBX 26 45 4 -1
BITMAP
01F00000
00F80000
00780000
003C0000
001E0000
000E0000
00070000
00000000
00000000
00000000
F00003C0
F00003C0
F00003C0
F00003C0
F00003C0
F00003C0
F00003C0
F00003C0
F00003C0
F00003C0
F00003C0
F00003C0
F00003C0
F00003C0
F00003C0
F00003C0
F00003C0
F00003C0
F00003C0
F00003C0
F00003C0
F00003C0
F00003C0
F00003C0
F00003C0
F80003C0
F80003C0
780007C0
7C000F80
3E001F80
3F807F00
1FFFFE00
0FFFFC00
03FFF000
007FC000
ENDCHAR
STARTCHAR 00DA
ENCODING 218
SWIDTH 720 0
DWIDTH 34 0
BBX 26 45 4 -1
BITMAP
0003E000
0007C000
00078000
000F0000
001E0000
001C0000
00380000
00000000
00000000
00000000
F00003C0
F00003C0
F00003C0
F00003C0
F00003C0
F00003C0
F00003C0
F00003C0
F00003C0
F00003C0
F00003C0
F00003C0
F00003C0
F00003C0
F00003C0
F00003C0
F00003C0
F00003C0
F00003C0
F00003C0
F00003C0
F00003C0
F00003C0
F00003C0
F00003C0
F80003C0
F80003C0
780007C0
7C000F80
3E001F80
3F807F00
1FFFFE00
0FFFFC00
03FFF000
007FC000
ENDCHAR
STARTCHAR 00DB
ENCODING 219
SWIDTH 720 0
DWIDTH 34 0
BBX 26 45 4 -1
BITMAP
001F0000
003F0000
007F8000
0073C000
00F1C000
00E0E000
01C0F000
00000000
00000000
00000000
F00003C0
F00003C0
F00003C0
F00003C0
F00003C0
F00003C0
F00003C0
F00003C0
F00003C0
F00003C0
F00003C0
F00003C0
F00003C0
F00003C0
F00003C0
F00003C0
F00003C0
F00003C0
F00003C0
F00003C0
F00003C0
F00003C0
F00003C0
F00003C0
F00003C0
F80003C0
F80003C0
780007C0
7C000F80
3E001F80
3F807F00
1FFFFE00
0FFFFC00
03FFF000
007FC000
ENDCHAR
STARTCHAR 00DC
ENCODING 220
SWIDTH 720 0
DWIDTH 34 0
BBX 26 44 4 -1
BITMAP
01F1F000
01F1F000
01F1F000
01F1F000
01F1F000
00000000
00000000
00000000
00000000
F00003C0
F00003C0
F00003C0
F00003C0
F00003C0
F00003C0
F00003C0
F00003C0
F00003C0
F00003C0
F00003C0
F00003C0
F00003C0
F00003C0
F00003C0
F00003C0
F00003C0
F00003C0
F00003C0
F00003C0
F00003C0
F00003C0
F00003C0
F00003C0
F00003C0
F80003C0
F80003C0
780007C0
7C000F80
3E001F80
3F807F00
1FFFFE00
0FFFFC00
03FFF000
007FC000
ENDCHAR
STARTCHAR 00DD
ENCODING 221
SWIDTH 677 0
DWIDTH 32 0
BBX 30 44 1 0
BITMAP
0000F800
0001F000
0001E000
0003C000
00078000
00070000
000E0000
00000000
00000000
00000000
F800007C
7C0000F8
7E0001F8
3E0001F0
3F0003E0
1F0003E0
0F8007C0
0FC00F80
07C00F80
03E01F00
03E01F00
01F03E00
00F83C00
00F87C00
007CF800
007CF000
003FF000
001FE000
001FE000
000FC000
00078000
00078000
00078000
00078000
00078000
00078000
00078000
00078000
00078000
00078000
00078000
00078000
00078000
00078000
ENDCHAR
STARTCHAR 00DE
ENCODING 222
SWIDTH 677 0
DWIDTH 32 0
BBX 25 34 4 0
BITMAP
F8000000
F8000000
F8000000
F8000000
F8000000
F8000000
FFFFC000
FFFFF800
FFFFFC00
FFFFFE00
F8007F00
F8001F00
F8000F80
F8000F80
F8000F80
F8000F80
F8000F80
F8000F80
F8000F80
F8001F00
F8007F00
FFFFFE00
FFFFFC00
FFFFF800
FFFFE000
F8000000
F8000000
F8000000
F8000000
F8000000
F8000000
F8000000
F8000000
F8000000
ENDCHAR
STARTCHAR 00DF
ENCODING 223
SWIDTH 614 0
DWIDTH 29 0
BBX 23 35 3 -1
BITMAP
00FE00
07FF80
1FFFE0
3FFFF0
7E01F8
7C00F8
780078
F0007C
F0007C
F0007C
F00078
F00078
F001F0
F007E0
F03FC0
F03F00
F03FE0
F03FF0
F000F8
F0007C
F0003E
F0001E
F0001E
F0001E
F0001E
F0001E
F0001E
F0003E
F0003C
F0007C
F001F8
F07FF0
F07FE0
F07FC0
007E00
ENDCHAR
STARTCHAR 00E0
ENCODING 224
SWIDTH 550 0
DWIDTH 26 0
BBX 23 36 2 -1
BITMAP
07C000
03E000
01F000
00F000
007800
003C00
001C00
000000
000000
01FE00
07FFC0
1FFFE0
3FFFF0
3E01F0
7C00F0
7800F0
7800F0
0000F0
0000F0
0001F0
001FF0
07FFF0
1FFFF0
3FF0F0
7E00F0
7800F0
F800F0
F000F0
F000F0
F000F0
F801F0
F807F0
7FBF78
3FFE7E
1FFC7E
07E03E
ENDCHAR
STARTCHAR 00E1
ENCODING 225
SWIDTH 550 0
DWIDTH 26 0
BBX 23 36 2 -1
BITMAP
000F80
001F00
001E00
003C00
007800
007000
00E000
000000
000000
01FE00
07FFC0
1FFFE0
3FFFF0
3E01F0
7C00F0
7800F0
7800F0
0000F0
0000F0
0001F0
001FF0
07FFF0
1FFFF0
3FF0F0
7E00F0
7800F0
F800F0
F000F0
F000F0
F000F0
F801F0
F807F0
7FBF78
3FFE7E
1FFC7E
07E03E
ENDCHAR
STARTCHAR 00E2
ENCODING 226
SWIDTH 550 0
DWIDTH 26 0
BBX 23 36 2 -1
BITMAP
00FC00
00FC00
01FE00
03CF00
038700
070380
0E01C0
000000
000000
01FE00
07FFC0
1FFFE0
3FFFF0
3E01F0
7C00F0
7800F0
7800F0
0000F0
0000F0
0001F0
001FF0
07FFF0
1FFFF0
3FF0F0
7E00F0
7800F0
F800F0
F000F0
F000F0
F000F0
F801F0
F807F0
7FBF78
3FFE7E
1FFC7E
07E03E
ENDCHAR
STARTCHAR 00E3
ENCODING 227
SWIDTH 550 0
DWIDTH 26 0
BBX 23 35 2 -1
BITMAP
03C0C0
07F1C0
0FFFC0
0E7F80
0C0F00
000000
000000
000000
01FE00
07FFC0
1FFFE0
3FFFF0
3E01F0
7C00F0
7800F0
7800F0
0000F0
0000F0
0001F0
001FF0
07FFF0
1FFFF0
3FF0F0
7E00F0
7800F0
F800F0
F000F0
F000F0
F000F0
F801F0
F807F0
7FBF78
3FFE7E
1FFC7E
07E03E
ENDCHAR
STARTCHAR 00E4
ENCODING 228
SWIDTH 550 0
DWIDTH 26 0
BBX 23 35 2 -1
BITMAP
07CF80
07CF80
07CF80
07CF80
07CF80
000000
000000
000000
01FE00
07FFC0
1FFFE0
3FFFF0
3E01F0
7C00F0
7800F0
7800F0
0000F0
0000F0
0001F0
001FF0
07FFF0
1FFFF0
3FF0F0
7E00F0
7800F0
F800F0
F000F0
F000F0
F000F0
F801F0
F807F0
7FBF78
3FFE7E
1FFC7E
07E03E
ENDCHAR
STARTCHAR 00E5
ENCODING 229
SWIDTH 550 0
DWIDTH 26 0
BBX 23 37 2 -1
BITMAP
007800
00FC00
01CE00
018600
018600
01CE00
00FC00
007800
000000
000000
01FE00
07FFC0
1FFFE0
3FFFF0
3E01F0
7C00F0
7800F0
7800F0
0000F0
0000F0
0001F0
001FF0
07FFF0
1FFFF0
3FF0F0
7E00F0
7800F0
F800F0
F000F0
F000F0
F000F0
F801F0
F807F0
7FBF78
3FFE7E
1FFC7E
07E03E
ENDCHAR
STARTCHAR 00E6
ENCODING 230
SWIDTH 889 0
DWIDTH 42 0
BBX 38 27 2 -1
BITMAP
01FC00FC00
0FFF87FF80
1FFFCFFFC0
3FFFFFFFE0
7E03FF03F0
7C01FC01F0
7800F800F8
7800F80078
0000F00078
0000F0007C
0000F0003C
0003F0003C
03FFFFFFFC
1FFFFFFFFC
3FFCFFFFFC
7F00F00000
F800F00000
F000F00000
F000F00078
F000F80078
F001F80078
F003FC00F0
F807BE03F0
7F7F1FFFE0
7FFE0FFFC0
3FF807FF80
0FE001FC00
ENDCHAR
STARTCHAR 00E7
ENCODING 231
SWIDTH 508 0
DWIDTH 24 0
BBX 22 36 1 -10
BITMAP
00FE00
03FF80
07FFE0
0FFFE0
1F01F0
3E00F8
3C00F8
7C0078
780078
780000
780000
780000
780000
F80000
F80000
780000
780000
78003C
780078
7C0078
3C00F8
3E00F0
1F83F0
0FFFE0
07FFC0
03FF80
007C00
006000
007C00
00FE00
000F00
000F00
000F00
060E00
0FFE00
01F800
ENDCHAR
STARTCHAR 00E8
ENCODING 232
SWIDTH 550 0
DWIDTH 26 0
BBX 22 36 2 -1
BITMAP
07C000
03E000
01F000
00F000
007800
003C00
001C00
000000
000000
00FE00
03FF80
0FFFC0
1FFFE0
3F03F0
3E00F8
7C0078
78007C
78007C
F0003C
F0003C
F0003C
FFFFFC
FFFFFC
FFFFFC
F00000
F00000
F00000
F8003C
780078
7C0078
7C00F8
3F01F0
1FFFE0
0FFFC0
07FF80
01FE00
ENDCHAR
STARTCHAR 00E9
ENCODING 233
SWIDTH 550 0
DWIDTH 26 0
BBX 22 36 2 -1
BITMAP
000F80
000F00
001E00
003C00
007800
007000
00E000
000000
000000
00FE00
03FF80
0FFFC0
1FFFE0
3F03F0
3E00F8
7C0078
78007C
78007C
F0003C
F0003C
F0003C
FFFFFC
FFFFFC
FFFFFC
F00000
F00000
F00000
F8003C
780078
7C0078
7C00F8
3F01F0
1FFFE0
0FFFC0
07FF80
01FE00
ENDCHAR
STARTCHAR 00EA
ENCODING 234
SWIDTH 550 0
DWIDTH 26 0
BBX 22 36 2 -1
BITMAP
007C00
00FE00
00EE00
01EF00
03C780
038380
0701C0
000000
000000
00FE00
03FF80
0FFFC0
1FFFE0
3F03F0
3E00F8
7C0078
78007C
78007C
F0003C
F0003C
F0003C
FFFFFC
FFFFFC
FFFFFC
F00000
F00000
F00000
F8003C
780078
7C0078
7C00F8
3F01F0
1FFFE0
0FFFC0
07FF80
01FE00
ENDCHAR
STARTCHAR 00EB
ENCODING 235
SWIDTH 550 0
DWIDTH 26 0
BBX 22 35 2 -1
BITMAP
07C7C0
07C7C0
07C7C0
07C7C0
07C7C0
000000
000000
000000
00FE00
03FF80
0FFFC0
1FFFE0
3F03F0
3E00F8
7C0078
78007C
78007C
F0003C
F0003C
F0003C
FFFFFC
FFFFFC
FFFFFC
F00000
F00000
F00000
F8003C
780078
7C0078
7C00F8
3F01F0
1FFFE0
0FFFC0
07FF80
01FE00
ENDCHAR
STARTCHAR 00EC
ENCODING 236
SWIDTH 275 0
DWIDTH 13 0
BBX 9 35 0 0
BITMAP
F800
7C00
3E00
1E00
0F00
0780
0380
0000
0000
0000
0F00
0F00
0F00
0F00
0F00
0F00
0F00
0F00
0F00
0F00
0F00
0F00
0F00
0F00
0F00
0F00
0F00
0F00
0F00
0F00
0F00
0F00
0F00
0F00
0F00
ENDCHAR
STARTCHAR 00ED
ENCODING 237
SWIDTH 275 0
DWIDTH 13 0
BBX 9 35 3 0
BITMAP
0F80
0F00
1E00
3C00
3800
7000
E000
0000
0000
0000
7800
7800
7800
7800
7800
7800
7800
7800
7800
7800
7800
7800
7800
7800
7800
7800
7800
7800
7800
7800
7800
7800
7800
7800
7800
ENDCHAR
STARTCHAR 00EE
ENCODING 238
SWIDTH 275 0
DWIDTH 13 0
BBX 13 35 0 0
BITMAP
0F80
1FC0
1FC0
3DE0
78F0
7070
E038
0000
0000
0000
0F00
0F00
0F00
0F00
0F00
0F00
0F00
0F00
0F00
0F00
0F00
0F00
0F00
0F00
0F00
0F00
0F00
0F00
0F00
0F00
0F00
0F00
0F00
0F00
0F00
ENDCHAR
STARTCHAR 00EF
ENCODING 239
SWIDTH 275 0
DWIDTH 13 0
BBX 13 33 0 0
BITMAP
F8F8
F8F8
F8F8
F8F8
F8F8
0000
0000
0000
0F00
0F00
0F00
0F00
0F00
0F00
0F00
0F00
0F00
0F00
0F00
0F00
0F00
0F00
0F00
0F00
0F00
0F00
0F00
0F00
0F00
0F00
0F00
0F00
0F00
ENDCHAR
STARTCHAR 00F0
ENCODING 240
SWIDTH 550 0
DWIDTH 26 0
BBX 22 37 2 -1
BITMAP
080000
1E0600
1F9F00
0FFC00
03F000
0FF800
3F7C00
1C3E00
001F00
000F80
01FFC0
07FFC0
0FFFE0
1FFFF0
3E03F0
7C01F8
7C00F8
780078
F8007C
F0003C
F0003C
F0003C
F0003C
F0003C
F0003C
F0003C
F0003C
F0003C
F8007C
780078
7C00F8
7C01F0
3F03F0
1FFFE0
0FFFC0
07FF80
01FE00
ENDCHAR
STARTCHAR 00F1
ENCODING 241
SWIDTH 550 0
DWIDTH 26 0
BBX 20 34 3 0
BITMAP
0781C0
0FF380
1FFF80
1CFF00
1C1E00
000000
000000
000000
003F00
F1FF80
F3FFE0
F7DFE0
FE03F0
FC01F0
FC00F0
F800F0
F800F0
F800F0
F000F0
F000F0
F000F0
F000F0
F000F0
F000F0
F000F0
F000F0
F000F0
F000F0
F000F0
F000F0
F000F0
F000F0
F000F0
F000F0
ENDCHAR
STARTCHAR 00F2
ENCODING 242
SWIDTH 550 0
DWIDTH 26 0
BBX 22 36 2 -1
BITMAP
07C000
03E000
01E000
00F000
007800
003800
001C00
000000
000000
01FE00
07FF80
0FFFC0
1FFFE0
3F03F0
7C01F0
7C00F8
780078
F8007C
F0007C
F0003C
F0003C
F0003C
F0003C
F0003C
F0003C
F0003C
F0003C
F8007C
780078
7C00F8
7C00F0
3F03F0
1FFFE0
0FFFC0
07FF80
01FC00
ENDCHAR
STARTCHAR 00F3
ENCODING 243
SWIDTH 550 0
DWIDTH 26 0
BBX 22 36 2 -1
BITMAP
000F80
001F00
003E00
003C00
007800
00F000
00E000
000000
000000
01FE00
07FF80
0FFFC0
1FFFE0
3F03F0
7C01F0
7C00F8
780078
F8007C
F0007C
F0003C
F0003C
F0003C
F0003C
F0003C
F0003C
F0003C
F0003C
F8007C
780078
7C00F8
7C00F0
3F03F0
1FFFE0
0FFFC0
07FF80
01FC00
ENDCHAR
STARTCHAR 00F4
ENCODING 244
SWIDTH 550 0
DWIDTH 26 0
BBX 22 36 2 -1
BITMAP
00F800
00FC00
01FE00
03CF00
038700
070380
0E03C0
000000
000000
01FE00
07FF80
0FFFC0
1FFFE0
3F03F0
7C01F0
7C00F8
780078
F8007C
F0007C
F0003C
F0003C
F0003C
F0003C
F0003C
F0003C
F0003C
F0003C
F8007C
780078
7C00F8
7C00F0
3F03F0
1FFFE0
0FFFC0
07FF80
01FC00
ENDCHAR
STARTCHAR 00F5
ENCODING 245
SWIDTH 550 0
DWIDTH 26 0
BBX 22 35 2 -1
BITMAP
03C0C0
07F9C0
0FFFC0
0E7F80
0C0F00
000000
000000
000000
01FE00
07FF80
0FFFC0
1FFFE0
3F03F0
7C01F0
7C00F8
780078
F8007C
F0007C
F0003C
F0003C
F0003C
F0003C
F0003C
F0003C
F0003C
F0003C
F8007C
780078
7C00F8
7C00F0
3F03F0
1FFFE0
0FFFC0
07FF80
01FC00
ENDCHAR
STARTCHAR 00F6
ENCODING 246
SWIDTH 550 0
DWIDTH 26 0
BBX 22 35 2 -1
BITMAP
07CF80
07CF80
07CF80
07CF80
07CF80
000000
000000
000000
01FE00
07FF80
0FFFC0
1FFFE0
3F03F0
7C01F0
7C00F8
780078
F8007C
F0007C
F0003C
F0003C
F0003C
F0003C
F0003C
F0003C
F0003C
F0003C
F8007C
780078
7C00F8
7C00F0
3F03F0
1FFFE0
0FFFC0
07FF80
01FC00
ENDCHAR
STARTCHAR 00F7
ENCODING 247
SWIDTH 592 0
DWIDTH 28 0
BBX 23 22 2 0
BITMAP
007C00
007C00
007C00
007C00
007C00
000000
000000
000000
000000
FFFFFE
FFFFFE
FFFFFE
000000
000000
000000
000000
000000
007C00
007C00
007C00
007C00
007C00
ENDCHAR
STARTCHAR 00F8
ENCODING 248
SWIDTH 614 0
DWIDTH 29 0
BBX 24 27 1 -1
BITMAP
00FF02
03FFC7
07FFEE
0FFFFC
1F81F8
3E00F8
3E007C
3C00FC
7C01FE
78039E
78071E
780E1E
780C1E
78181E
78381E
78701E
78E01E
79C01E
7F803E
3F003C
3E007C
3E0078
1F81F8
3FFFF0
77FFE0
E3FFC0
C0FE00
ENDCHAR
STARTCHAR 00F9
ENCODING 249
SWIDTH 550 0
DWIDTH 26 0
BBX 20 36 3 -1
BITMAP
0F8000
078000
03C000
01E000
00E000
007000
003800
000000
000000
000000
F000F0
F000F0
F000F0
F000F0
F000F0
F000F0
F000F0
F000F0
F000F0
F000F0
F000F0
F000F0
F000F0
F000F0
F000F0
F000F0
F000F0
F001F0
F001F0
F001F0
F803F0
FC07F0
7FBFF0
3FFEF0
1FF8F0
07F000
ENDCHAR
STARTCHAR 00FA
ENCODING 250
SWIDTH 550 0
DWIDTH 26 0
BBX 20 36 3 -1
BITMAP
001F00
003E00
007C00
007800
00F000
01E000
01C000
000000
000000
000000
F000F0
F000F0
F000F0
F000F0
F000F0
F000F0
F000F0
F000F0
F000F0
F000F0
F000F0
F000F0
F000F0
F000F0
F000F0
F000F0
F000F0
F001F0
F001F0
F001F0
F803F0
FC07F0
7FBFF0
3FFEF0
1FF8F0
07F000
ENDCHAR
STARTCHAR 00FB
ENCODING 251
SWIDTH 550 0
DWIDTH 26 0
BBX 20 36 3 -1
BITMAP
01F800
01F800
03FC00
079C00
070E00
0F0F00
0E0700
000000
000000
000000
F000F0
F000F0
F000F0
F000F0
F000F0
F000F0
F000F0
F000F0
F000F0
F000F0
F000F0
F000F0
F000F0
F000F0
F000F0
F000F0
F000F0
F001F0
F001F0
F001F0
F803F0
FC07F0
7FBFF0
3FFEF0
1FF8F0
07F000
ENDCHAR
STARTCHAR 00FC
ENCODING 252
SWIDTH 550 0
DWIDTH 26 0
BBX 20 35 3 -1
BITMAP
0F9F00
0F9F00
0F9F00
0F9F00
0F9F00
000000
000000
000000
000000
F000F0
F000F0
F000F0
F000F0
F000F0
F000F0
F000F0
F000F0
F000F0
F000F0
F000F0
F000F0
F000F0
F000F0
F000F0
F000F0
F000F0
F001F0
F001F0
F001F0
F803F0
FC07F0
7FBFF0
3FFEF0
1FF8F0
07F000
ENDCHAR
STARTCHAR 00FD
ENCODING 253
SWIDTH 508 0
DWIDTH 24 0
BBX 21 45 1 -10
BITMAP
001F80
001F00
003E00
007C00
007800
00E000
01C000
000000
000000
000000
F00078
F80078
7800F8
7800F0
7C00F0
3C01F0
3C01E0
3E01E0
1E03C0
1E03C0
1F03C0
0F0780
0F0780
0F8780
078F00
078F00
07DF00
03DE00
03DE00
03FC00
01FC00
01FC00
00F800
00F800
00F800
00F000
00F000
01E000
01E000
03E000
03C000
3FC000
3F8000
3F0000
3E0000
ENDCHAR
STARTCHAR 00FE
ENCODING 254
SWIDTH 550 0
DWIDTH 26 0
BBX 22 44 3 -10
BITMAP
E00000
E00000
E00000
E00000
E00000
E00000
E00000
E00000
E0FC00
E3FF00
E7FFC0
EFFFE0
FE07E0
FC01F0
F800F0
F800F8
F00078
F00078
F00078
F0007C
F0003C
E0003C
F0003C
F0007C
F00078
F00078
F00078
F800F8
F800F0
FC01F0
FE03E0
EFFFE0
E7FFC0
E3FF00
E0FC00
E00000
E00000
E00000
E00000
E00000
E00000
E00000
E00000
E00000
ENDCHAR
STARTCHAR 00FF
ENCODING 255
SWIDTH 508 0
DWIDTH 24 0
BBX 21 44 1 -10
BITMAP
0F8F80
0F8F80
0F8F80
0F8F80
0F8F80
000000
000000
000000
000000
F00078
F80078
7800F8
7800F0
7C00F0
3C01F0
3C01E0
3E01E0
1E03C0
1E03C0
1F03C0
0F0780
0F0780
0F8780
078F00
078F00
07DF00
03DE00
03DE00
03FC00
01FC00
01FC00
00F800
00F800
00F800
00F000
00F000
01E000
01E000
03E000
03C000
3FC000
3F8000
3F0000
3E0000
ENDCHAR
STARTCHAR 0100
ENCODING 256
SWIDTH 677 0
DWIDTH 32 0
BBX 30 42 1 0
BITMAP
00FFF800
00FFF800
00FFF800
00000000
00000000
00000000
00000000
00000000
000FC000
000FC000
001FE000
001FE000
003FE000
003FF000
003DF000
007CF000
0078F800
00787800
00F87800
00F07C00
00F03C00
01F03E00
01E03E00
03E01E00
03C01F00
03C01F00
07C00F00
07800F80
07FFFF80
0FFFFF80
0FFFFFC0
0FFFFFC0
1F0003C0
1E0003E0
3E0003E0
3E0001F0
3C0001F0
7C0001F0
7C0000F8
780000F8
F80000F8
F800007C
ENDCHAR
STARTCHAR 0101
ENCODING 257
SWIDTH 550 0
DWIDTH 26 0
BBX 23 34 2 -1
BITMAP
0FFF80
0FFF80
0FFF80
000000
000000
000000
000000
01FE00
07FFC0
1FFFE0
3FFFF0
3E01F0
7C00F0
7800F0
7800F0
0000F0
0000F0
0001F0
001FF0
07FFF0
1FFFF0
3FF0F0
7E00F0
7800F0
F800F0
F000F0
F000F0
F000F0
F801F0
F807F0
7FBF78
3FFE7E
1FFC7E
07E03E
ENDCHAR
STARTCHAR 0102
ENCODING 258
SWIDTH 677 0
DWIDTH 32 0
BBX 30 43 1 0
BITMAP
00E01C00
00E03C00
00F87800
007FF800
003FF000
000FC000
00000000
00000000
00000000
000FC000
000FC000
001FE000
001FE000
003FE000
003FF000
003DF000
007CF000
0078F800
00787800
00F87800
00F07C00
00F03C00
01F03E00
01E03E00
03E01E00
03C01F00
03C01F00
07C00F00
07800F80
07FFFF80
0FFFFF80
0FFFFFC0
0FFFFFC0
1F0003C0
1E0003E0
3E0003E0
3E0001F0
3C0001F0
7C0001F0
7C0000F8
780000F8
F80000F8
F800007C
ENDCHAR
STARTCHAR 0103
ENCODING 259
SWIDTH 550 0
DWIDTH 26 0
BBX 23 36 2 -1
BITMAP
0E01C0
0E01C0
0F03C0
07FF80
03FF00
01FE00
000000
000000
000000
01FE00
07FFC0
1FFFE0
3FFFF0
3E01F0
7C00F0
7800F0
7800F0
0000F0
0000F0
0001F0
001FF0
07FFF0
1FFFF0
3FF0F0
7E00F0
7800F0
F800F0
F000F0
F000F0
F000F0
F801F0
F807F0
7FBF78
3FFE7E
1FFC7E
07E03E
ENDCHAR
STARTCHAR 0104
ENCODING 260
SWIDTH 677 0
DWIDTH 32 0
BBX 32 44 1 -10
BITMAP
000FC000
000FC000
001FE000
001FE000
003FE000
003FF000
003DF000
007CF000
0078F800
00787800
00F87800
00F07C00
00F03C00
01F03E00
01E03E00
03E01E00
03C01F00
03C01F00
07C00F00
07800F80
07FFFF80
0FFFFF80
0FFFFFC0
0FFFFFC0
1F0003C0
1E0003E0
3E0003E0
3E0001F0
3C0001F0
7C0001F0
7C0000F8
780000F8
F80000F8
F800007C
00000038
000000E0
000001C0
000003C0
00000380
00000380
000003C0
000003E1
000001FF
0000007F
ENDCHAR
STARTCHAR 0105
ENCODING 261
SWIDTH 550 0
DWIDTH 26 0
BBX 26 36 2 -10
BITMAP
01FE0000
07FFC000
1FFFE000
3FFFF000
3E01F000
3C00F000
7C00F000
7800F000
0000F000
0000F000
0001F000
001FF000
07FFF000
1FFFF000
3FF0F000
7E00F000
7800F000
F800F000
F000F000
F000F000
F000F000
F801F000
7807F000
7FBF7800
3FFE7E00
1FFC7E00
07F03E00
00001C00
00003800
00007000
0000F000
0000F000
0000F000
00007800
00003FC0
00000FC0
ENDCHAR
STARTCHAR 0106
ENCODING 262
SWIDTH 720 0
DWIDTH 34 0
BBX 30 45 2 -1
BITMAP
00007C00
0000F800
0001F000
0001E000
0003C000
00078000
00070000
00000000
00000000
000FF000
007FFE00
01FFFF80
03FFFFC0
07F00FE0
0FC003E0
1F8001F0
1F0001F0
3E0000F8
3C0000F8
7C000078
7C000000
78000000
78000000
78000000
F8000000
F8000000
F8000000
F8000000
F8000000
F8000000
F8000000
7800007C
7800007C
7C00007C
7C000078
3E0000F8
3E0000F8
1F0001F0
1F8001F0
0FC003E0
07F00FE0
03FFFFC0
01FFFF80
007FFE00
001FF000
ENDCHAR
STARTCHAR 0107
ENCODING 263
SWIDTH 508 0
DWIDTH 24 0
BBX 22 36 1 -1
BITMAP
0007C0
000F80
001F00
001E00
003C00
007800
007000
000000
000000
00FE00
03FF80
07FFE0
0FFFE0
1F01F0
3E00F8
3C00F8
7C0078
780078
780000
780000
780000
780000
F80000
F80000
780000
780000
78003C
780078
7C0078
3C0078
3E00F8
1F01F0
1FFFE0
0FFFC0
03FF80
00FE00
ENDCHAR
STARTCHAR 0108
ENCODING 264
SWIDTH 720 0
DWIDTH 34 0
BBX 30 45 2 -1
BITMAP
0007C000
000FE000
000EF000
001E7000
003C3800
00383C00
00701C00
00000000
00000000
000FF000
007FFE00
01FFFF80
03FFFFC0
07F00FE0
0FC003E0
1F8001F0
1F0001F0
3E0000F8
3C0000F8
7C000078
7C000000
78000000
78000000
78000000
F8000000
F8000000
F8000000
F8000000
F8000000
F8000000
F8000000
7800007C
7800007C
7C00007C
7C000078
3E0000F8
3E0000F8
1F0001F0
1F8001F0
0FC003E0
07F00FE0
03FFFFC0
01FFFF80
007FFE00
001FF000
ENDCHAR
STARTCHAR 0109
ENCODING 265
SWIDTH 508 0
DWIDTH 24 0
BBX 22 36 1 -1
BITMAP
007C00
00FE00
00FF00
01E700
03C780
0383C0
0701C0
000000
000000
00FE00
03FF80
07FFE0
0FFFE0
1F01F0
3E00F8
3C00F8
7C0078
780078
780000
780000
780000
780000
F80000
F80000
780000
780000
78003C
780078
7C0078
3C0078
3E00F8
1F01F0
1FFFE0
0FFFC0
03FF80
00FE00
ENDCHAR
STARTCHAR 010A
ENCODING 266
SWIDTH 720 0
DWIDTH 34 0
BBX 30 44 2 -1
BITMAP
0003C000
0003C000
0003C000
0003C000
0003C000
00000000
00000000
00000000
000FF000
007FFE00
01FFFF80
03FFFFC0
07F00FE0
0FC003E0
1F8001F0
1F0001F0
3E0000F8
3C0000F8
7C000078
7C000000
78000000
78000000
78000000
F8000000
F8000000
F8000000
F8000000
F8000000
F8000000
F8000000
7800007C
7800007C
7C00007C
7C000078
3E0000F8
3E0000F8
1F0001F0
1F8001F0
0FC003E0
07F00FE0
03FFFFC0
01FFFF80
007FFE00
001FF000
ENDCHAR
STARTCHAR 010B
ENCODING 267
SWIDTH 508 0
DWIDTH 24 0
BBX 22 35 1 -1
BITMAP
007C00
007C00
007C00
007C00
007C00
000000
000000
000000
00FE00
03FF80
07FFE0
0FFFE0
1F01F0
3E00F8
3C00F8
7C0078
780078
780000
780000
780000
780000
F80000
F80000
780000
780000
78003C
780078
7C0078
3C0078
3E00F8
1F01F0
1FFFE0
0FFFC0
03FF80
00FE00
ENDCHAR
STARTCHAR 010C
ENCODING 268
SWIDTH 720 0
DWIDTH 34 0
BBX 30 45 2 -1
BITMAP
00381C00
003C3C00
001E7800
000E7000
000FF000
0007E000
0003C000
00000000
00000000
000FF000
007FFE00
01FFFF80
03FFFFC0
07F00FE0
0FC003E0
1F8001F0
1F0001F0
3E0000F8
3C0000F8
7C000078
7C000000
78000000
78000000
78000000
F8000000
F8000000
F8000000
F8000000
F8000000
F8000000
F8000000
7800007C
7800007C
7C00007C
7C000078
3E0000F8
3E0000F8
1F0001F0
1F8001F0
0FC003E0
07F00FE0
03FFFFC0
01FFFF80
007FFE00
001FF000
ENDCHAR
STARTCHAR 010D
ENCODING 269
SWIDTH 508 0
DWIDTH 24 0
BBX 22 36 1 -1
BITMAP
0701C0
038380
03C780
01EF00
00FE00
00FE00
007C00
000000
000000
00FE00
03FF80
07FFE0
0FFFE0
1F01F0
3E00F8
3C00F8
7C0078
780078
780000
780000
780000
780000
F80000
F80000
780000
780000
78003C
780078
7C0078
3C0078
3E00F8
1F01F0
1FFFE0
0FFFC0
03FF80
00FE00
ENDCHAR
STARTCHAR 010E
ENCODING 270
SWIDTH 720 0
DWIDTH 34 0
BBX 27 44 4 0
BITMAP
0781C000
0383C000
01C38000
01E78000
00FF0000
007E0000
007E0000
00000000
00000000
00000000
FFFFC000
FFFFF000
FFFFFC00
FFFFFE00
F8007F00
F8001F80
F8000F80
F80007C0
F80007C0
F80003C0
F80003E0
F80003E0
F80001E0
F80001E0
F80001E0
F80001E0
F80001E0
F80001E0
F80001E0
F80001E0
F80001E0
F80001E0
F80001E0
F80003E0
F80003C0
F80007C0
F80007C0
F8000F80
F8001F00
F8007F00
FFFFFE00
FFFFFC00
FFFFF000
FFFF8000
ENDCHAR
STARTCHAR 010F
ENCODING 271
SWIDTH 635 0
DWIDTH 30 0
BBX 30 35 1 -1
BITMAP
00003C7C
00003C7C
00003C7C
00003C7C
00003C7C
00003C1C
00003C18
00003C38
00FC3C70
03FF3C40
0FFFBC00
1FFFFC00
1F01FC00
3E00FC00
7C007C00
7C007C00
78003C00
78003C00
F8003C00
F0003C00
F0003C00
F0003C00
F0003C00
F0003C00
F8003C00
78003C00
78003C00
7C007C00
7C007C00
3E00FC00
3F01FC00
1FFFDC00
0FFF9C00
07FF1C00
00FC0000
ENDCHAR
STARTCHAR 0110
ENCODING 272
SWIDTH 720 0
DWIDTH 34 0
BBX 30 34 1 0
BITMAP
1FFFF800
1FFFFE00
1FFFFF80
1FFFFFC0
1F000FE0
1F0003F0
1F0001F0
1F0000F8
1F0000F8
1F000078
1F00007C
1F00003C
1F00003C
1F00003C
1F00003C
FFFF003C
FFFF003C
FFFF003C
1F00003C
1F00003C
1F00003C
1F00003C
1F00007C
1F00007C
1F000078
1F0000F8
1F0000F8
1F0001F0
1F0003E0
1F000FE0
1FFFFFC0
1FFFFF80
1FFFFE00
1FFFF000
ENDCHAR
STARTCHAR 0111
ENCODING 273
SWIDTH 550 0
DWIDTH 26 0
BBX 25 35 1 -1
BITMAP
00003C00
00003C00
00003C00
001FFF80
001FFF80
001FFF80
00003C00
00003C00
00FC3C00
03FF3C00
0FFFBC00
1FFFFC00
1F83FC00
3E00FC00
7C007C00
7C007C00
78003C00
78003C00
F8003C00
F0003C00
F0003C00
F0003C00
F0003C00
F0003C00
F8003C00
78003C00
78003C00
7C007C00
3C007C00
3E00FC00
1F83FC00
1FFFDC00
0FFF9C00
03FF1C00
00FC0000
ENDCHAR
STARTCHAR 0112
ENCODING 274
SWIDTH 677 0
DWIDTH 32 0
BBX 25 42 4 0
BITMAP
03FFE000
03FFE000
03FFE000
00000000
00000000
00000000
00000000
00000000
FFFFFF00
FFFFFF00
FFFFFF00
FFFFFF00
F8000000
F8000000
F8000000
F8000000
F8000000
F8000000
F8000000
F8000000
F8000000
F8000000
F8000000
FFFFFE00
FFFFFE00
FFFFFE00
FFFFFE00
F8000000
F8000000
F8000000
F8000000
F8000000
F8000000
F8000000
F8000000
F8000000
F8000000
F8000000
FFFFFF80
FFFFFF80
FFFFFF80
FFFFFF80
ENDCHAR
STARTCHAR 0113
ENCODING 275
SWIDTH 550 0
DWIDTH 26 0
BBX 22 34 2 -1
BITMAP
07FFC0
07FFC0
07FFC0
000000
000000
000000
000000
00FE00
03FF80
0FFFC0
1FFFE0
3F03F0
3E00F8
7C0078
78007C
78007C
F0003C
F0003C
F0003C
FFFFFC
FFFFFC
FFFFFC
F00000
F00000
F00000
F8003C
780078
7C0078
7C00F8
3F01F0
1FFFE0
0FFFC0
07FF80
01FE00
ENDCHAR
STARTCHAR 0114
ENCODING 276
SWIDTH 677 0
DWIDTH 32 0
BBX 25 43 4 0
BITMAP
0700E000
0780E000
03C3E000
03FFC000
01FF8000
007E0000
00000000
00000000
00000000
FFFFFF00
FFFFFF00
FFFFFF00
FFFFFF00
F8000000
F8000000
F8000000
F8000000
F8000000
F8000000
F8000000
F8000000
F8000000
F8000000
F8000000
FFFFFE00
FFFFFE00
FFFFFE00
FFFFFE00
F8000000
F8000000
F8000000
F8000000
F8000000
F8000000
F8000000
F8000000
F8000000
F8000000
F8000000
FFFFFF80
FFFFFF80
FFFFFF80
FFFFFF80
ENDCHAR
STARTCHAR 0115
ENCODING 277
SWIDTH 550 0
DWIDTH 26 0
BBX 22 36 2 -1
BITMAP
0E00E0
0701C0
0783C0
07FFC0
03FF80
00FE00
000000
000000
000000
00FE00
03FF80
0FFFC0
1FFFE0
3F03F0
3E00F8
7C0078
78007C
78007C
F0003C
F0003C
F0003C
FFFFFC
FFFFFC
FFFFFC
F00000
F00000
F00000
F8003C
780078
7C0078
7C00F8
3F01F0
1FFFE0
0FFFC0
07FF80
01FE00
ENDCHAR
STARTCHAR 0116
ENCODING 278
SWIDTH 677 0
DWIDTH 32 0
BBX 25 43 4 0
BITMAP
003E0000
003E0000
003E0000
003E0000
003E0000
00000000
00000000
00000000
00000000
FFFFFF00
FFFFFF00
FFFFFF00
FFFFFF00
F8000000
F8000000
F8000000
F8000000
F8000000
F8000000
F8000000
F8000000
F8000000
F8000000
F8000000
FFFFFE00
FFFFFE00
FFFFFE00
FFFFFE00
F8000000
F8000000
F8000000
F8000000
F8000000
F8000000
F8000000
F8000000
F8000000
F8000000
F8000000
FFFFFF80
FFFFFF80
FFFFFF80
FFFFFF80
ENDCHAR
STARTCHAR 0117
ENCODING 279
SWIDTH 550 0
DWIDTH 26 0
BBX 22 35 2 -1
BITMAP
007C00
007C00
007C00
007C00
007C00
000000
000000
000000
00FE00
03FF80
0FFFC0
1FFFE0
3F03F0
3E00F8
7C0078
78007C
78007C
F0003C
F0003C
F0003C
FFFFFC
FFFFFC
FFFFFC
F00000
F00000
F00000
F8003C
780078
7C0078
7C00F8
3F01F0
1FFFE0
0FFFC0
07FF80
01FE00
ENDCHAR
STARTCHAR 0118
ENCODING 280
SWIDTH 677 0
DWIDTH 32 0
BBX 27 44 4 -10
BITMAP
FFFFFF00
FFFFFF00
FFFFFF00
FFFFFF00
F8000000
F8000000
F8000000
F8000000
F8000000
F8000000
F8000000
F8000000
F8000000
F8000000
F8000000
FFFFFE00
FFFFFE00
FFFFFE00
FFFFFE00
F8000000
F8000000
F8000000
F8000000
F8000000
F8000000
F8000000
F8000000
F8000000
F8000000
F8000000
FFFFFF80
FFFFFF80
FFFFFF80
FFFFFF80
00000700
00001C00
00003800
00007800
00007000
00007000
00007800
00007C20
00003FE0
00000FE0
ENDCHAR
STARTCHAR 0119
ENCODING 281
SWIDTH 550 0
DWIDTH 26 0
BBX 22 36 2 -10
BITMAP
00FE00
03FF80
0FFFC0
1FFFE0
3F03F0
3E00F8
7C0078
78007C
78003C
F8003C
F0003C
F0003C
FFFFFC
FFFFFC
FFFFFC
F00000
F00000
F00000
F8003C
78007C
7C0078
7C00F8
3F01F0
1FFFE0
0FFFE0
07FFC0
01FF80
000700
000E00
000E00
001E00
001E00
001E00
000F00
000FF8
0003F8
ENDCHAR
STARTCHAR 011A
ENCODING 282
SWIDTH 677 0
DWIDTH 32 0
BBX 25 44 4 0
BITMAP
0380E000
03C1C000
01E38000
00E78000
00FF0000
007F0000
003E0000
00000000
00000000
00000000
FFFFFF00
FFFFFF00
FFFFFF00
FFFFFF00
F8000000
F8000000
F8000000
F8000000
F8000000
F8000000
F8000000
F8000000
F8000000
F8000000
F8000000
FFFFFE00
FFFFFE00
FFFFFE00
FFFFFE00
F8000000
F8000000
F8000000
F8000000
F8000000
F8000000
F8000000
F8000000
F8000000
F8000000
F8000000
FFFFFF80
FFFFFF80
FFFFFF80
FFFFFF80
ENDCHAR
STARTCHAR 011B
ENCODING 283
SWIDTH 550 0
DWIDTH 26 0
BBX 22 36 2 -1
BITMAP
0701C0
038380
03C780
01EF00
00FE00
00FE00
007C00
000000
000000
00FE00
03FF80
0FFFC0
1FFFE0
3F03F0
3E00F8
7C0078
78007C
78007C
F0003C
F0003C
F0003C
FFFFFC
FFFFFC
FFFFFC
F00000
F00000
F00000
F8003C
780078
7C0078
7C00F8
3F01F0
1FFFE0
0FFFC0
07FF80
01FE00
ENDCHAR
STARTCHAR 011C
ENCODING 284
SWIDTH 783 0
DWIDTH 37 0
BBX 31 45 2 -1
BITMAP
0007E000
0007F000
000FF000
001E7800
001C3C00
00381C00
00380E00
00000000
00000000
000FF800
007FFF00
01FFFFC0
03FFFFE0
07F807F0
0FC001F8
1F8000F8
1F00007C
3E00003C
3E00003E
7C00003E
7C000000
78000000
78000000
F8000000
F8000000
F8000000
F8007FFE
F8007FFE
F8007FFE
F8007FFE
F800000E
F800000E
7800000E
7C00001E
7C00001E
3E00001E
3E00003E
1F00007E
1F8000FE
0FC001FE
07F807EE
03FFFFCE
01FFFF0E
007FFE06
000FF000
ENDCHAR
STARTCHAR 011D
ENCODING 285
SWIDTH 550 0
DWIDTH 26 0
BBX 21 45 2 -10
BITMAP
00F800
00FC00
01FE00
03CE00
038700
070780
0E0380
000000
000000
01F800
07FE78
0FFF78
1FFF78
3E07F8
3C03F8
7801F8
7800F8
F000F8
F000F8
F000F8
F00078
F00078
F00078
F00078
F00078
F00078
F000F8
F000F8
F800F8
7801F8
7C03F8
3E07F8
1FFF78
0FFE78
07FC78
01F078
0000F0
0000F0
7800F0
7801F0
7C01E0
3E07E0
3FFFC0
0FFF80
07FE00
ENDCHAR
STARTCHAR 011E
ENCODING 286
SWIDTH 783 0
DWIDTH 37 0
BBX 31 45 2 -1
BITMAP
00380700
00380700
003C1E00
001FFE00
000FFC00
0007F800
00000000
00000000
00000000
000FF800
007FFF00
01FFFFC0
03FFFFE0
07F807F0
0FC001F8
1F8000F8
1F00007C
3E00003C
3E00003E
7C00003E
7C000000
78000000
78000000
F8000000
F8000000
F8000000
F8007FFE
F8007FFE
F8007FFE
F8007FFE
F800000E
F800000E
7800000E
7C00001E
7C00001E
3E00001E
3E00003E
1F00007E
1F8000FE
0FC001FE
07F807EE
03FFFFCE
01FFFF0E
007FFE06
000FF000
ENDCHAR
STARTCHAR 011F
ENCODING 287
SWIDTH 550 0
DWIDTH 26 0
BBX 21 45 2 -10
BITMAP
0E01C0
0E01C0
0F0780
07FF80
07FF00
01FC00
000000
000000
000000
01F800
07FE78
0FFF78
1FFF78
3E07F8
3C03F8
7801F8
7800F8
F000F8
F000F8
F000F8
F00078
F00078
F00078
F00078
F00078
F00078
F000F8
F000F8
F800F8
7801F8
7C03F8
3E07F8
1FFF78
0FFE78
07FC78
01F078
0000F0
0000F0
7800F0
7801F0
7C01E0
3E07E0
3FFFC0
0FFF80
07FE00
ENDCHAR
STARTCHAR 0120
ENCODING 288
SWIDTH 783 0
DWIDTH 37 0
BBX 31 44 2 -1
BITMAP
0003E000
0003E000
0003E000
0003E000
0003E000
00000000
00000000
00000000
000FF800
007FFF00
01FFFFC0
03FFFFE0
07F807F0
0FC001F8
1F8000F8
1F00007C
3E00003C
3E00003E
7C00003E
7C000000
78000000
78000000
F8000000
F8000000
F8000000
F8007FFE
F8007FFE
F8007FFE
F8007FFE
F800000E
F800000E
7800000E
7C00001E
7C00001E
3E00001E
3E00003E
1F00007E
1F8000FE
0FC001FE
07F807EE
03FFFFCE
01FFFF0E
007FFE06
000FF000
ENDCHAR
STARTCHAR 0121
ENCODING 289
SWIDTH 550 0
DWIDTH 26 0
BBX 21 44 2 -10
BITMAP
00F800
00F800
00F800
00F800
00F800
000000
000000
000000
01F800
07FE78
0FFF78
1FFF78
3E07F8
3C03F8
7801F8
7800F8
F000F8
F000F8
F000F8
F00078
F00078
F00078
F00078
F00078
F00078
F000F8
F000F8
F800F8
7801F8
7C03F8
3E07F8
1FFF78
0FFE78
07FC78
01F078
0000F0
0000F0
7800F0
7801F0
7C01E0
3E07E0
3FFFC0
0FFF80
07FE00
ENDCHAR
STARTCHAR 0122
ENCODING 290
SWIDTH 783 0
DWIDTH 37 0
BBX 31 49 2 -14
BITMAP
000FF800
007FFF00
01FFFFC0
03FFFFE0
07F807F0
0FC001F8
1F8000F8
1F00007C
3E00003C
3E00003E
7C00003E
7C000000
78000000
78000000
F8000000
F8000000
F8000000
F8007FFE
F8007FFE
F8007FFE
F8007FFE
F800000E
F800000E
7800000E
7C00001E
7C00001E
3E00001E
3E00003E
1F00007E
1F8000FE
0FC001FE
07F807EE
03FFFFCE
01FFFF0E
007FFE06
000FF000
00000000
00000000
0003E000
0003E000
0003E000
0003E000
0003E000
00006000
0000C000
0000C000
0001C000
00038000
00020000
ENDCHAR
STARTCHAR 0123
ENCODING 291
SWIDTH 550 0
DWIDTH 26 0
BBX 21 49 2 -10
BITMAP
001800
003800
006000
006000
00C000
00C000
00F800
00F800
00F800
00F800
00F800
000000
000000
01F800
07FE78
0FFF78
1FFF78
3E07F8
3C03F8
7801F8
7800F8
F000F8
F000F8
F000F8
F00078
F00078
F00078
F00078
F00078
F00078
F000F8
F000F8
F800F8
7801F8
7C03F8
3E07F8
1FFF78
0FFE78
07FC78
01F078
0000F0
0000F0
7800F0
7801F0
7C01E0
3E07E0
3FFFC0
0FFF80
07FE00
ENDCHAR
STARTCHAR 0124
ENCODING 292
SWIDTH 720 0
DWIDTH 34 0
BBX 26 44 4 0
BITMAP
001F0000
003F8000
003F8000
007BC000
00F1E000
00E0E000
01C07000
00000000
00000000
00000000
F00003C0
F00003C0
F00003C0
F00003C0
F00003C0
F00003C0
F00003C0
F00003C0
F00003C0
F00003C0
F00003C0
F00003C0
F00003C0
F00003C0
F00003C0
FFFFFFC0
FFFFFFC0
FFFFFFC0
FFFFFFC0
F00003C0
F00003C0
F00003C0
F00003C0
F00003C0
F00003C0
F00003C0
F00003C0
F00003C0
F00003C0
F00003C0
F00003C0
F00003C0
F00003C0
F00003C0
ENDCHAR
STARTCHAR 0125
ENCODING 293
SWIDTH 550 0
DWIDTH 26 0
BBX 24 44 -1 0
BITMAP
0F8000
1FC000
1FC000
3DE000
78E000
707000
E03800
000000
000000
000000
0F0000
0F0000
0F0000
0F0000
0F0000
0F0000
0F0000
0F0000
0F07F0
0F1FFC
0F3FFE
0F7DFE
0FE03F
0FC01F
0FC00F
0F800F
0F800F
0F000F
0F000F
0F000F
0F000F
0F000F
0F000F
0F000F
0F000F
0F000F
0F000F
0F000F
0F000F
0F000F
0F000F
0F000F
0F000F
0F000F
ENDCHAR
STARTCHAR 0126
ENCODING 294
SWIDTH 720 0
DWIDTH 34 0
BBX 34 34 0 0
BITMAP
0F00003C00
0F00003C00
0F00003C00
0F00003C00
0F00003C00
0F00003C00
0F00003C00
FFFFFFFFC0
FFFFFFFFC0
FFFFFFFFC0
0F00003C00
0F00003C00
0F00003C00
0F00003C00
0F00003C00
0FFFFFFC00
0FFFFFFC00
0FFFFFFC00
0FFFFFFC00
0F00003C00
0F00003C00
0F00003C00
0F00003C00
0F00003C00
0F00003C00
0F00003C00
0F00003C00
0F00003C00
0F00003C00
0F00003C00
0F00003C00
0F00003C00
0F00003C00
0F00003C00
ENDCHAR
STARTCHAR 0127
ENCODING 295
SWIDTH 550 0
DWIDTH 26 0
BBX 23 34 0 0
BITMAP
1E0000
1E0000
1E0000
FFFF80
FFFF80
FFFF80
1E0000
1E0000
1E0FE0
1E3FF8
1E7FFC
1EFBFC
1FC07E
1F803E
1F801E
1F001E
1F001E
1E001E
1E001E
1E001E
1E001E
1E001E
1E001E
1E001E
1E001E
1E001E
1E001E
1E001E
1E001E
1E001E
1E001E
1E001E
1E001E
1E001E
ENDCHAR
STARTCHAR 0128
ENCODING 296
SWIDTH 275 0
DWIDTH 13 0
BBX 15 43 -1 0
BITMAP
3C0E
7F9C
7FFC
E3F8
E0F0
0000
0000
0000
0000
03C0
03C0
03C0
03C0
03C0
03C0
03C0
03C0
03C0
03C0
03C0
03C0
03C0
03C0
03C0
03C0
03C0
03C0
03C0
03C0
03C0
03C0
03C0
03C0
03C0
03C0
03C0
03C0
03C0
03C0
03C0
03C0
03C0
03C0
ENDCHAR
STARTCHAR 0129
ENCODING 297
SWIDTH 275 0
DWIDTH 13 0
BBX 15 34 -1 0
BITMAP
3C0E
7F9C
7FFC
E3F8
E0F0
0000
0000
0000
0000
0780
0780
0780
0780
0780
0780
0780
0780
0780
0780
0780
0780
0780
0780
0780
0780
0780
0780
0780
0780
0780
0780
0780
0780
0780
ENDCHAR
STARTCHAR 012A
ENCODING 298
SWIDTH 275 0
DWIDTH 13 0
BBX 12 42 1 0
BITMAP
FFF0
FFF0
FFF0
0000
0000
0000
0000
0000
0F00
0F00
0F00
0F00
0F00
0F00
0F00
0F00
0F00
0F00
0F00
0F00
0F00
0F00
0F00
0F00
0F00
0F00
0F00
0F00
0F00
0F00
0F00
0F00
0F00
0F00
0F00
0F00
0F00
0F00
0F00
0F00
0F00
0F00
ENDCHAR
STARTCHAR 012B
ENCODING 299
SWIDTH 275 0
DWIDTH 13 0
BBX 11 33 1 0
BITMAP
FFE0
FFE0
FFE0
0000
0000
0000
0000
0000
0F00
0F00
0F00
0F00
0F00
0F00
0F00
0F00
0F00
0F00
0F00
0F00
0F00
0F00
0F00
0F00
0F00
0F00
0F00
0F00
0F00
0F00
0F00
0F00
0F00
ENDCHAR
STARTCHAR 012C
ENCODING 300
SWIDTH 275 0
DWIDTH 13 0
BBX 15 43 -1 0
BITMAP
E00E
701C
7C7C
3FF8
1FF0
0FE0
0000
0000
0000
07C0
07C0
07C0
07C0
07C0
07C0
07C0
07C0
07C0
07C0
07C0
07C0
07C0
07C0
07C0
07C0
07C0
07C0
07C0
07C0
07C0
07C0
07C0
07C0
07C0
07C0
07C0
07C0
07C0
07C0
07C0
07C0
07C0
07C0
ENDCHAR
STARTCHAR 012D
ENCODING 301
SWIDTH 275 0
DWIDTH 13 0
BBX 15 35 -1 0
BITMAP
E00E
701C
783C
7FFC
3FF8
0FE0
0000
0000
0000
0000
0780
0780
0780
0780
0780
0780
0780
0780
0780
0780
0780
0780
0780
0780
0780
0780
0780
0780
0780
0780
0780
0780
0780
0780
0780
ENDCHAR
STARTCHAR 012E
ENCODING 302
SWIDTH 275 0
DWIDTH 13 0
BBX 8 44 3 -10
BITMAP
3C
3C
3C
3C
3C
3C
3C
3C
3C
3C
3C
3C
3C
3C
3C
3C
3C
3C
3C
3C
3C
3C
3C
3C
3C
3C
3C
3C
3C
3C
3C
3C
3C
3C
1C
38
70
70
F0
F0
F0
F8
7F
1F
ENDCHAR
STARTCHAR 012F
ENCODING 303
SWIDTH 211 0
DWIDTH 10 0
BBX 8 44 1 -10
BITMAP
3C
3C
3C
3C
3C
00
00
00
00
3C
3C
3C
3C
3C
3C
3C
3C
3C
3C
3C
3C
3C
3C
3C
3C
3C
3C
3C
3C
3C
3C
3C
3C
3C
1C
38
70
70
F0
F0
F0
78
7F
1F
ENDCHAR
STARTCHAR 0130
ENCODING 304
SWIDTH 275 0
DWIDTH 13 0
BBX 5 43 4 0
BITMAP
F8
F8
F8
F8
F8
00
00
00
00
78
78
78
78
78
78
78
78
78
78
78
78
78
78
78
78
78
78
78
78
78
78
78
78
78
78
78
78
78
78
78
78
78
78
ENDCHAR
STARTCHAR 0131
ENCODING 305
SWIDTH 275 0
DWIDTH 13 0
BBX 4 25 4 0
BITMAP
F0
F0
F0
F0
F0
F0
F0
F0
F0
F0
F0
F0
F0
F0
F0
F0
F0
F0
F0
F0
F0
F0
F0
F0
F0
ENDCHAR
STARTCHAR 0132
ENCODING 306
SWIDTH 741 0
DWIDTH 35 0
BBX 26 35 5 -1
BITMAP
F00003C0
F00003C0
F00003C0
F00003C0
F00003C0
F00003C0
F00003C0
F00003C0
F00003C0
F00003C0
F00003C0
F00003C0
F00003C0
F00003C0
F00003C0
F00003C0
F00003C0
F00003C0
F00003C0
F00003C0
F00003C0
F00003C0
F00003C0
F1E003C0
F1E003C0
F1E003C0
F1E007C0
F1E007C0
F1F007C0
F1F00F80
F0F81F80
F0FFFF00
F07FFE00
F03FFC00
0007F000
ENDCHAR
STARTCHAR 0133
ENCODING 307
SWIDTH 444 0
DWIDTH 21 0
BBX 13 44 4 -10
BITMAP
F078
F078
F078
F078
F078
0000
0000
0000
0000
F078
F078
F078
F078
F078
F078
F078
F078
F078
F078
F078
F078
F078
F078
F078
F078
F078
F078
F078
F078
F078
F078
F078
F078
F078
0078
0078
0078
0078
0078
0078
00F8
07F8
07F0
07E0
ENDCHAR
STARTCHAR 0134
ENCODING 308
SWIDTH 508 0
DWIDTH 24 0
BBX 23 45 1 -1
BITMAP
0003E0
0007E0
000FF0
000F78
001E38
001C1C
00380E
000000
000000
000000
0001E0
0001E0
0001E0
0001E0
0001E0
0001E0
0001E0
0001E0
0001E0
0001E0
0001E0
0001E0
0001E0
0001E0
0001E0
0001E0
0001E0
0001E0
0001E0
0001E0
0001E0
0001E0
0001E0
F001E0
F001E0
F001E0
F001E0
F803E0
F803E0
F807C0
7E0FC0
7FFF80
3FFF00
0FFE00
03F800
ENDCHAR
STARTCHAR 0135
ENCODING 309
SWIDTH 211 0
DWIDTH 10 0
BBX 13 45 -1 -10
BITMAP
1F80
1F80
3FC0
39E0
70E0
F070
E078
0000
0000
0000
0F00
0F00
0F00
0F00
0F00
0F00
0F00
0F00
0F00
0F00
0F00
0F00
0F00
0F00
0F00
0F00
0F00
0F00
0F00
0F00
0F00
0F00
0F00
0F00
0F00
0F00
0F00
0F00
0F00
0F00
0F00
1F00
FF00
FE00
FC00
ENDCHAR
STARTCHAR 0136
ENCODING 310
SWIDTH 677 0
DWIDTH 32 0
BBX 27 48 4 -14
BITMAP
F00007C0
F0000F80
F0001F00
F0003E00
F0007C00
F000F800
F001F000
F003E000
F007C000
F00F8000
F01F0000
F03E0000
F07C0000
F0F80000
F1F80000
F3FC0000
F7FE0000
FFBE0000
FF1F0000
FE0F8000
FC0FC000
F807C000
F003E000
F001F000
F001F000
F000F800
F0007C00
F0007E00
F0003E00
F0001F00
F0001F80
F0000F80
F00007C0
F00003E0
00000000
00000000
00000000
003E0000
003E0000
003E0000
003E0000
003E0000
00060000
00060000
000C0000
001C0000
00380000
00200000
ENDCHAR
STARTCHAR 0137
ENCODING 311
SWIDTH 508 0
DWIDTH 24 0
BBX 20 48 3 -14
BITMAP
F00000
F00000
F00000
F00000
F00000
F00000
F00000
F00000
F00000
F003E0
F007C0
F00F80
F01F00
F03E00
F07C00
F0F800
F1F000
F3E000
F7E000
FFF000
FFF000
FCF800
F87C00
F07C00
F03E00
F01E00
F01F00
F00F80
F00F80
F007C0
F003E0
F003E0
F001F0
F000F0
000000
000000
000000
01F000
01F000
01F000
01F000
01F000
003000
003000
007000
006000
01C000
010000
ENDCHAR
STARTCHAR 0138
ENCODING 312
SWIDTH 508 0
DWIDTH 24 0
BBX 19 24 2 0
BITMAP
E003C0
E00780
E00F00
E01E00
E03C00
E03800
E07000
E0E000
E1C000
E38000
E7C000
EFC000
FDE000
F8F000
F07000
E03800
E03C00
E01E00
E00E00
E00F00
E00780
E00380
E003C0
E001E0
ENDCHAR
STARTCHAR 0139
ENCODING 313
SWIDTH 550 0
DWIDTH 26 0
BBX 21 44 4 0
BITMAP
0F8000
1F0000
3E0000
3C0000
780000
F00000
E00000
000000
000000
000000
F00000
F00000
F00000
F00000
F00000
F00000
F00000
F00000
F00000
F00000
F00000
F00000
F00000
F00000
F00000
F00000
F00000
F00000
F00000
F00000
F00000
F00000
F00000
F00000
F00000
F00000
F00000
F00000
F00000
F00000
FFFFF8
FFFFF8
FFFFF8
FFFFF8
ENDCHAR
STARTCHAR 013A
ENCODING 314
SWIDTH 211 0
DWIDTH 10 0
BBX 9 44 3 0
BITMAP
0F80
0F00
1E00
3C00
3800
7000
E000
0000
0000
0000
F000
F000
F000
F000
F000
F000
F000
F000
F000
F000
F000
F000
F000
F000
F000
F000
F000
F000
F000
F000
F000
F000
F000
F000
F000
F000
F000
F000
F000
F000
F000
F000
F000
F000
ENDCHAR
STARTCHAR 013B
ENCODING 315
SWIDTH 550 0
DWIDTH 26 0
BBX 21 48 4 -14
BITMAP
F00000
F00000
F00000
F00000
F00000
F00000
F00000
F00000
F00000
F00000
F00000
F00000
F00000
F00000
F00000
F00000
F00000
F00000
F00000
F00000
F00000
F00000
F00000
F00000
F00000
F00000
F00000
F00000
F00000
F00000
FFFFF8
FFFFF8
FFFFF8
FFFFF8
000000
000000
000000
00F800
00F800
00F800
00F800
00F800
001800
001800
003000
007000
00E000
008000
ENDCHAR
STARTCHAR 013C
ENCODING 316
SWIDTH 211 0
DWIDTH 10 0
BBX 5 48 3 -14
BITMAP
F0
F0
F0
F0
F0
F0
F0
F0
F0
F0
F0
F0
F0
F0
F0
F0
F0
F0
F0
F0
F0
F0
F0
F0
F0
F0
F0
F0
F0
F0
F0
F0
F0
F0
00
00
00
F8
F8
F8
F8
F8
18
38
30
70
E0
80
ENDCHAR
STARTCHAR 013D
ENCODING 317
SWIDTH 550 0
DWIDTH 26 0
BBX 21 34 4 0
BITMAP
F07C00
F07C00
F07C00
F07C00
F07C00
F01C00
F01800
F01800
F03800
F07000
F00000
F00000
F00000
F00000
F00000
F00000
F00000
F00000
F00000
F00000
F00000
F00000
F00000
F00000
F00000
F00000
F00000
F00000
F00000
F00000
FFFFF8
FFFFF8
FFFFF8
FFFFF8
ENDCHAR
STARTCHAR 013E
ENCODING 318
SWIDTH 296 0
DWIDTH 14 0
BBX 11 34 3 0
BITMAP
F1E0
F1E0
F1E0
F1E0
F1E0
F060
F060
F060
F0C0
F1C0
F000
F000
F000
F000
F000
F000
F000
F000
F000
F000
F000
F000
F000
F000
F000
F000
F000
F000
F000
F000
F000
F000
F000
F000
ENDCHAR
STARTCHAR 013F
ENCODING 319
SWIDTH 550 0
DWIDTH 26 0
BBX 21 34 4 0
BITMAP
F00000
F00000
F00000
F00000
F00000
F00000
F00000
F00000
F00000
F00000
F00000
F00000
F00000
F00000
F00000
F00F80
F00F80
F00F80
F00F80
F00F80
F00000
F00000
F00000
F00000
F00000
F00000
F00000
F00000
F00000
F00000
FFFFF8
FFFFF8
FFFFF8
FFFFF8
ENDCHAR
STARTCHAR 0140
ENCODING 320
SWIDTH 338 0
DWIDTH 16 0
BBX 11 34 4 0
BITMAP
E000
E000
E000
E000
E000
E000
E000
E000
E000
E000
E000
E000
E000
E000
E000
E1E0
E1E0
E1E0
E1E0
E1E0
E000
E000
E000
E000
E000
E000
E000
E000
E000
E000
E000
E000
E000
E000
ENDCHAR
STARTCHAR 0141
ENCODING 321
SWIDTH 550 0
DWIDTH 26 0
BBX 26 34 0 0
BITMAP
0F000000
0F000000
0F000000
0F000000
0F000000
0F000000
0F000000
0F000000
0F000000
0F000000
0F010000
0F070000
0F0F0000
0F3E0000
0F7C0000
0FF80000
0FE00000
0FC00000
3F000000
7F000000
FF000000
EF000000
CF000000
0F000000
0F000000
0F000000
0F000000
0F000000
0F000000
0F000000
0FFFFFC0
0FFFFFC0
0FFFFFC0
0FFFFFC0
ENDCHAR
STARTCHAR 0142
ENCODING 322
SWIDTH 211 0
DWIDTH 10 0
BBX 10 34 0 0
BITMAP
1E00
1E00
1E00
1E00
1E00
1E00
1E00
1E00
1E00
1E00
1E00
1E00
1E40
1EC0
1FC0
1F80
1F00
3E00
FE00
FE00
DE00
1E00
1E00
1E00
1E00
1E00
1E00
1E00
1E00
1E00
1E00
1E00
1E00
1E00
ENDCHAR
STARTCHAR 0143
ENCODING 323
SWIDTH 720 0
DWIDTH 34 0
BBX 27 44 4 0
BITMAP
0003E000
0007C000
00078000
000F0000
000E0000
001C0000
00380000
00000000
00000000
00000000
F80003E0
F80003E0
FC0003E0
FE0003E0
FE0003E0
FF0003E0
FF8003E0
FF8003E0
F7C003E0
F3E003E0
F3E003E0
F1F003E0
F0F003E0
F0F803E0
F07C03E0
F03C03E0
F03E03E0
F01F03E0
F00F03E0
F00F83E0
F007C3E0
F007C3E0
F003E3E0
F001F3E0
F001F3E0
F000FBE0
F0007FE0
F0007FE0
F0003FE0
F0001FE0
F0001FE0
F0000FE0
F00007E0
F00007E0
ENDCHAR
STARTCHAR 0144
ENCODING 324
SWIDTH 550 0
DWIDTH 26 0
BBX 20 35 3 0
BITMAP
001F00
001E00
003C00
007800
007000
00E000
01C000
000000
000000
003F00
F1FF80
F3FFE0
F7DFE0
FE03F0
FC01F0
FC00F0
F800F0
F800F0
F800F0
F000F0
F000F0
F000F0
F000F0
F000F0
F000F0
F000F0
F000F0
F000F0
F000F0
F000F0
F000F0
F000F0
F000F0
F000F0
F000F0
ENDCHAR
STARTCHAR 0145
ENCODING 325
SWIDTH 720 0
DWIDTH 34 0
BBX 27 48 4 -14
BITMAP
F80003E0
F80003E0
FC0003E0
FE0003E0
FE0003E0
FF0003E0
FF8003E0
FF8003E0
F7C003E0
F3E003E0
F3E003E0
F1F003E0
F0F003E0
F0F803E0
F07C03E0
F03C03E0
F03E03E0
F01F03E0
F00F03E0
F00F83E0
F007C3E0
F007C3E0
F003E3E0
F001F3E0
F001F3E0
F000FBE0
F0007FE0
F0007FE0
F0003FE0
F0001FE0
F0001FE0
F0000FE0
F00007E0
F00007E0
00000000
00000000
00000000
003E0000
003E0000
003E0000
003E0000
003E0000
00060000
00060000
000C0000
001C0000
00380000
00200000
ENDCHAR
STARTCHAR 0146
ENCODING 326
SWIDTH 550 0
DWIDTH 26 0
BBX 20 40 3 -14
BITMAP
003F00
F1FF80
F3FFE0
F7DFE0
FE03F0
FC01F0
FC00F0
F800F0
F800F0
F800F0
F000F0
F000F0
F000F0
F000F0
F000F0
F000F0
F000F0
F000F0
F000F0
F000F0
F000F0
F000F0
F000F0
F000F0
F000F0
F000F0
000000
000000
000000
00F800
00F800
00F800
00F800
00F800
003800
003000
003000
007000
00E000
008000
ENDCHAR
STARTCHAR 0147
ENCODING 327
SWIDTH 720 0
DWIDTH 34 0
BBX 27 44 4 0
BITMAP
01C0F000
01C0E000
00E1C000
00F3C000
007F8000
003F0000
003F0000
00000000
00000000
00000000
F80003E0
F80003E0
FC0003E0
FE0003E0
FE0003E0
FF0003E0
FF8003E0
FF8003E0
F7C003E0
F3E003E0
F3E003E0
F1F003E0
F0F003E0
F0F803E0
F07C03E0
F03C03E0
F03E03E0
F01F03E0
F00F03E0
F00F83E0
F007C3E0
F007C3E0
F003E3E0
F001F3E0
F001F3E0
F000FBE0
F0007FE0
F0007FE0
F0003FE0
F0001FE0
F0001FE0
F0000FE0
F00007E0
F00007E0
ENDCHAR
STARTCHAR 0148
ENCODING 328
SWIDTH 550 0
DWIDTH 26 0
BBX 20 35 3 0
BITMAP
0E0780
0F0700
078E00
039E00
03FC00
01F800
00F800
000000
000000
003F00
F1FF80
F3FFE0
F7DFE0
FE03F0
FC01F0
FC00F0
F800F0
F800F0
F800F0
F000F0
F000F0
F000F0
F000F0
F000F0
F000F0
F000F0
F000F0
F000F0
F000F0
F000F0
F000F0
F000F0
F000F0
F000F0
F000F0
ENDCHAR
STARTCHAR 0149
ENCODING 329
SWIDTH 614 0
DWIDTH 29 0
BBX 25 37 0 0
BITMAP
F8000000
F8000000
F8000000
F8000000
F8000000
18000000
18000000
18000000
30000000
F0000000
E0000000
0001F800
0387FE00
039FFF00
03BFFF80
03B80F80
03F00780
03E00780
03C00780
03C00780
03C00780
03C00780
03C00780
03C00780
03C00780
03C00780
03C00780
03C00780
03C00780
03C00780
03C00780
03C00780
03C00780
03C00780
03C00780
03C00780
03C00780
ENDCHAR
STARTCHAR 014A
ENCODING 330
SWIDTH 720 0
DWIDTH 34 0
BBX 26 49 4 -14
BITMAP
000FE000
F03FFC00
F0FFFE00
F1FFFF00
F3E03F80
F7801F80
FF000FC0
FE0007C0
FC0007C0
FC0007C0
F80003C0
F80003C0
F80003C0
F80003C0
F80003C0
F80003C0
F80003C0
F80003C0
F80003C0
F80003C0
F80003C0
F80003C0
F80003C0
F80003C0
F80003C0
F80003C0
F80003C0
F80003C0
F80003C0
F80003C0
F80003C0
F80003C0
F80003C0
F80003C0
F80003C0
000003C0
000003C0
000003C0
000003C0
000003C0
000003C0
000003C0
000007C0
000007C0
00000FC0
0001FF80
0001FF80
0001FF00
0001FC00
ENDCHAR
STARTCHAR 014B
ENCODING 331
SWIDTH 550 0
DWIDTH 26 0
BBX 20 36 3 -10
BITMAP
007E00
F1FF80
F3FFE0
F7FFE0
FF03F0
FC01F0
FC00F0
F800F0
F800F0
F800F0
F000F0
F000F0
F000F0
F000F0
F000F0
F000F0
F000F0
F000F0
F000F0
F000F0
F000F0
F000F0
F000F0
F000F0
F000F0
F000F0
0000F0
0000F0
0000F0
0000F0
0000F0
0000F0
0001F0
000FF0
000FE0
000FC0
ENDCHAR
STARTCHAR 014C
ENCODING 332
SWIDTH 783 0
DWIDTH 37 0
BBX 33 43 2 -1
BITMAP
003FFE0000
003FFE0000
003FFE0000
0000000000
0000000000
0000000000
0000000000
000FF80000
007FFF0000
01FFFFC000
03FFFFE000
07F00FF000
0FC001F800
1F8000FC00
1F00007C00
3E00003E00
3C00001E00
7C00001F00
7800001F00
F800000F00
F800000F80
F800000F80
F000000F80
F000000780
F000000780
F000000780
F000000780
F000000780
F800000F80
F800000F80
F800000F00
7800000F00
7C00001F00
7C00001E00
3E00003E00
3F00007C00
1F8000FC00
0FC001F800
07F80FF000
03FFFFE000
01FFFFC000
007FFF0000
000FF80000
ENDCHAR
STARTCHAR 014D
ENCODING 333
SWIDTH 550 0
DWIDTH 26 0
BBX 22 34 2 -1
BITMAP
0FFF80
0FFF80
0FFF80
000000
000000
000000
000000
01FE00
07FF80
0FFFC0
1FFFE0
3F03F0
7C01F0
7C00F8
780078
F8007C
F0007C
F0003C
F0003C
F0003C
F0003C
F0003C
F0003C
F0003C
F0003C
F8007C
780078
7C00F8
7C00F0
3F03F0
1FFFE0
0FFFC0
07FF80
01FC00
ENDCHAR
STARTCHAR 014E
ENCODING 334
SWIDTH 783 0
DWIDTH 37 0
BBX 33 45 2 -1
BITMAP
0070060000
00780E0000
003C1E0000
003FFC0000
001FFC0000
0007F00000
0000000000
0000000000
0000000000
000FF80000
007FFF0000
01FFFFC000
03FFFFE000
07F00FF000
0FC001F800
1F8000FC00
1F00007C00
3E00003E00
3C00001E00
7C00001F00
7800001F00
F800000F00
F800000F80
F800000F80
F000000F80
F000000780
F000000780
F000000780
F000000780
F000000780
F800000F80
F800000F80
F800000F00
7800000F00
7C00001F00
7C00001E00
3E00003E00
3F00007C00
1F8000FC00
0FC001F800
07F80FF000
03FFFFE000
01FFFFC000
007FFF0000
000FF80000
ENDCHAR
STARTCHAR 014F
ENCODING 335
SWIDTH 550 0
DWIDTH 26 0
BBX 22 36 2 -1
BITMAP
0E01C0
0E01C0
0F0780
07FF80
03FF00
01FE00
000000
000000
000000
01FE00
07FF80
0FFFC0
1FFFE0
3F03F0
7C01F0
7C00F8
780078
F8007C
F0007C
F0003C
F0003C
F0003C
F0003C
F0003C
F0003C
F0003C
F0003C
F8007C
780078
7C00F8
7C00F0
3F03F0
1FFFE0
0FFFC0
07FF80
01FC00
ENDCHAR
STARTCHAR 0150
ENCODING 336
SWIDTH 783 0
DWIDTH 37 0
BBX 33 45 2 -1
BITMAP
0001F1F000
0003E3E000
0007C3C000
0007878000
000F0F0000
001E0E0000
001C1C0000
0000000000
0000000000
000FF80000
007FFF0000
01FFFFC000
03FFFFE000
07F00FF000
0FC001F800
1F8000FC00
1F00007C00
3E00003E00
3C00001E00
7C00001F00
7800001F00
F800000F00
F800000F80
F800000F80
F000000F80
F000000780
F000000780
F000000780
F000000780
F000000780
F800000F80
F800000F80
F800000F00
7800000F00
7C00001F00
7C00001E00
3E00003E00
3F00007C00
1F8000FC00
0FC001F800
07F80FF000
03FFFFE000
01FFFFC000
007FFF0000
000FF80000
ENDCHAR
STARTCHAR 0151
ENCODING 337
SWIDTH 550 0
DWIDTH 26 0
BBX 22 36 2 -1
BITMAP
007C7C
00F878
00F0F0
01E1E0
03C3C0
038380
070700
000000
000000
01FE00
07FF80
0FFFC0
1FFFE0
3F03F0
7C01F0
7C00F8
780078
F8007C
F0007C
F0003C
F0003C
F0003C
F0003C
F0003C
F0003C
F0003C
F0003C
F8007C
780078
7C00F8
7C00F0
3F03F0
1FFFE0
0FFFC0
07FF80
01FC00
ENDCHAR
STARTCHAR 0152
ENCODING 338
SWIDTH 995 0
DWIDTH 47 0
BBX 43 36 2 -1
BITMAP
001FC0000000
00FFF1FFFFE0
03FFF9FFFFE0
07FFFDFFFFE0
0FE03FFFFFE0
1F800FE00000
1F0007E00000
3E0003E00000
3C0003E00000
7C0001E00000
780001E00000
780001E00000
780001E00000
F80001E00000
F80001E00000
F80001E00000
F00001FFFFE0
F00001FFFFE0
F00001FFFFE0
F00001FFFFE0
F80001E00000
F80001E00000
F80001E00000
F80001E00000
780001E00000
780001E00000
7C0001E00000
3C0003E00000
3E0003E00000
1F0007E00000
1F800FE00000
0FE03FFFFFE0
07FFFDFFFFE0
03FFF9FFFFE0
00FFF1FFFFE0
003FC0000000
ENDCHAR
STARTCHAR 0153
ENCODING 339
SWIDTH 952 0
DWIDTH 45 0
BBX 40 27 2 -1
BITMAP
00FE003F80
07FF80FFE0
0FFFC1FFF8
1FFFE3FFFC
3F03F7C07C
3E00FF803E
7C00FF001E
78007E001F
78007E000F
F8003E000F
F0003E000F
F0003C000F
F0003FFFFF
F0003FFFFF
F0003FFFFF
F0003C0000
F0003C0000
F0003C0000
F8003E000F
78007E000F
7C007F001E
7E00FF803E
3F01FFC07C
1FFFE7FFFC
0FFFC3FFF8
07FF80FFE0
01FE003F80
ENDCHAR
STARTCHAR 0154
ENCODING 340
SWIDTH 720 0
DWIDTH 34 0
BBX 28 44 4 0
BITMAP
0003E000
0007C000
00078000
000F0000
001E0000
001C0000
00380000
00000000
00000000
00000000
FFFFF000
FFFFFE00
FFFFFF00
FFFFFF80
F8001FC0
F80007C0
F80007E0
F80003E0
F80003E0
F80003E0
F80003E0
F80003C0
F80003C0
F80007C0
F8001F80
FFFFFF00
FFFFFC00
FFFFFE00
FFFFFF00
F8001F80
F8000F80
F80007C0
F80007C0
F80003C0
F80003C0
F80003C0
F80003C0
F80003C0
F80003C0
F80003C0
F80003C0
F80003E0
F80003F0
F80001F0
ENDCHAR
STARTCHAR 0155
ENCODING 341
SWIDTH 338 0
DWIDTH 16 0
BBX 12 35 3 0
BITMAP
01F0
03E0
03C0
0780
0F00
0E00
1C00
0000
0000
00F0
F1F0
F3F0
F7F0
FFE0
FE00
FC00
F800
F800
F800
F000
F000
F000
F000
F000
F000
F000
F000
F000
F000
F000
F000
F000
F000
F000
F000
ENDCHAR
STARTCHAR 0156
ENCODING 342
SWIDTH 720 0
DWIDTH 34 0
BBX 28 48 4 -14
BITMAP
FFFFF000
FFFFFE00
FFFFFF00
FFFFFF80
F8001FC0
F80007C0
F80007E0
F80003E0
F80003E0
F80003E0
F80003E0
F80003C0
F80003C0
F80007C0
F8001F80
FFFFFF00
FFFFFC00
FFFFFE00
FFFFFF00
F8001F80
F8000F80
F80007C0
F80007C0
F80003C0
F80003C0
F80003C0
F80003C0
F80003C0
F80003C0
F80003C0
F80003C0
F80003E0
F80003F0
F80001F0
00000000
00000000
00000000
001F0000
001F0000
001F0000
001F0000
001F0000
00030000
00030000
00060000
000E0000
001C0000
00100000
ENDCHAR
STARTCHAR 0157
ENCODING 343
SWIDTH 338 0
DWIDTH 16 0
BBX 12 40 3 -14
BITMAP
00F0
F1F0
F3F0
F7F0
FFE0
FE00
FC00
F800
F800
F800
F000
F000
F000
F000
F000
F000
F000
F000
F000
F000
F000
F000
F000
F000
F000
F000
0000
0000
0000
F800
F800
F800
F800
F800
1800
1800
3000
7000
E000
8000
ENDCHAR
STARTCHAR 0158
ENCODING 344
SWIDTH 720 0
DWIDTH 34 0
BBX 28 44 4 0
BITMAP
0380E000
01C1E000
00E1C000
00F38000
007F8000
003F0000
003E0000
00000000
00000000
00000000
FFFFF000
FFFFFE00
FFFFFF00
FFFFFF80
F8001FC0
F80007C0
F80007E0
F80003E0
F80003E0
F80003E0
F80003E0
F80003C0
F80003C0
F80007C0
F8001F80
FFFFFF00
FFFFFC00
FFFFFE00
FFFFFF00
F8001F80
F8000F80
F80007C0
F80007C0
F80003C0
F80003C0
F80003C0
F80003C0
F80003C0
F80003C0
F80003C0
F80003C0
F80003E0
F80003F0
F80001F0
ENDCHAR
STARTCHAR 0159
ENCODING 345
SWIDTH 338 0
DWIDTH 16 0
BBX 12 35 3 0
BITMAP
E070
F070
70E0
39E0
3FC0
1F80
0F80
0000
0000
00F0
F1F0
F3F0
F7F0
FFE0
FE00
FC00
F800
F800
F800
F000
F000
F000
F000
F000
F000
F000
F000
F000
F000
F000
F000
F000
F000
F000
F000
ENDCHAR
STARTCHAR 015A
ENCODING 346
SWIDTH 677 0
DWIDTH 32 0
BBX 27 45 2 -1
BITMAP
0001F000
0003E000
0007C000
00078000
000F0000
001E0000
001C0000
00000000
00000000
007FC000
01FFF800
07FFFC00
0FFFFF00
1F803F00
3F000F80
3E000780
3C0007C0
7C0003C0
7C0003C0
7C0003C0
7C000000
3E000000
3F000000
3FE00000
1FFE0000
0FFFE000
03FFFC00
003FFF00
0007FF80
00007FC0
00000FC0
000007E0
000003E0
F00001E0
F80001E0
F80001E0
780001E0
7C0003E0
7C0003C0
3F0007C0
1FC01F80
0FFFFF00
07FFFE00
03FFFC00
007FE000
ENDCHAR
STARTCHAR 015B
ENCODING 347
SWIDTH 508 0
DWIDTH 24 0
BBX 20 36 2 -1
BITMAP
001F00
003E00
007C00
007800
00F000
01E000
018000
000000
000000
03FC00
0FFF00
3FFF80
3FFFC0
7C07C0
7803C0
F003E0
F003E0
F80000
F80000
7E0000
7FE000
3FFC00
0FFF80
03FFC0
003FE0
0003E0
0001F0
F001F0
F000F0
F001F0
F801E0
FC03E0
7FFFC0
3FFF80
1FFF00
07F800
ENDCHAR
STARTCHAR 015C
ENCODING 348
SWIDTH 677 0
DWIDTH 32 0
BBX 27 45 2 -1
BITMAP
001F0000
003F8000
003BC000
0071C000
00F0E000
00E0F000
01C07000
00000000
00000000
007FC000
01FFF800
07FFFC00
0FFFFF00
1F803F00
3F000F80
3E000780
3C0007C0
7C0003C0
7C0003C0
7C0003C0
7C000000
3E000000
3F000000
3FE00000
1FFE0000
0FFFE000
03FFFC00
003FFF00
0007FF80
00007FC0
00000FC0
000007E0
000003E0
F00001E0
F80001E0
F80001E0
780001E0
7C0003E0
7C0003C0
3F0007C0
1FC01F80
0FFFFF00
07FFFE00
03FFFC00
007FE000
ENDCHAR
STARTCHAR 015D
ENCODING 349
SWIDTH 508 0
DWIDTH 24 0
BBX 20 36 2 -1
BITMAP
01F000
01F800
03FC00
079C00
0F0E00
0E0F00
1C0700
000000
000000
03FC00
0FFF00
3FFF80
3FFFC0
7C07C0
7803C0
F003E0
F003E0
F80000
F80000
7E0000
7FE000
3FFC00
0FFF80
03FFC0
003FE0
0003E0
0001F0
F001F0
F000F0
F001F0
F801E0
FC03E0
7FFFC0
3FFF80
1FFF00
07F800
ENDCHAR
STARTCHAR 015E
ENCODING 350
SWIDTH 677 0
DWIDTH 32 0
BBX 27 45 2 -10
BITMAP
007FC000
01FFF800
07FFFE00
0FFFFF00
1F803F80
1F000F80
3E0007C0
3C0007C0
3C0003C0
7C0003C0
7C0003C0
3C000000
3E000000
3F800000
1FE00000
1FFE0000
07FFE000
03FFFC00
003FFF00
0003FF80
00007FC0
00000FE0
000003E0
000003E0
F80001E0
F80001E0
780001E0
780001E0
7C0003E0
3E0003E0
3F0007C0
1FC01F80
0FFFFF00
07FFFE00
01FFFC00
003FC000
000C0000
001F0000
001FC000
0003C000
0001C000
0001C000
01C3C000
01FF8000
007E0000
ENDCHAR
STARTCHAR 015F
ENCODING 351
SWIDTH 508 0
DWIDTH 24 0
BBX 20 36 2 -10
BITMAP
03FC00
0FFF00
3FFF80
3FFFC0
7C07C0
7803C0
F003E0
F003E0
F80000
F80000
7E0000
7FE000
3FFE00
0FFF80
01FFC0
001FE0
0003E0
0001F0
F001F0
F000F0
F001F0
F801E0
FC07E0
7FFFC0
3FFF80
1FFF00
03F000
018000
01F000
03F800
003C00
003C00
003C00
183800
3FF800
07E000
ENDCHAR
STARTCHAR 0160
ENCODING 352
SWIDTH 677 0
DWIDTH 32 0
BBX 27 45 2 -1
BITMAP
01E07000
00F0E000
0071E000
007BC000
003F8000
001F8000
001F0000
00000000
00000000
007FC000
01FFF800
07FFFC00
0FFFFF00
1F803F00
3F000F80
3E000780
3C0007C0
7C0003C0
7C0003C0
7C0003C0
7C000000
3E000000
3F000000
3FE00000
1FFE0000
0FFFE000
03FFFC00
003FFF00
0007FF80
00007FC0
00000FC0
000007E0
000003E0
F00001E0
F80001E0
F80001E0
780001E0
7C0003E0
7C0003C0
3F0007C0
1FC01F80
0FFFFF00
07FFFE00
03FFFC00
007FE000
ENDCHAR
STARTCHAR 0161
ENCODING 353
SWIDTH 508 0
DWIDTH 24 0
BBX 20 36 2 -1
BITMAP
1C0700
0E0E00
071E00
07BC00
03F800
01F800
01F000
000000
000000
03FC00
0FFF00
3FFF80
3FFFC0
7C07C0
7803C0
F003E0
F003E0
F80000
F80000
7E0000
7FE000
3FFC00
0FFF80
03FFC0
003FE0
0003E0
0001F0
F001F0
F000F0
F001F0
F801E0
FC03E0
7FFFC0
3FFF80
1FFF00
07F800
ENDCHAR
STARTCHAR 0162
ENCODING 354
SWIDTH 614 0
DWIDTH 29 0
BBX 27 44 1 -10
BITMAP
FFFFFFE0
FFFFFFE0
FFFFFFE0
FFFFFFE0
001F0000
001F0000
001F0000
001F0000
001F0000
001F0000
001F0000
001F0000
001F0000
001F0000
001F0000
001F0000
001F0000
001F0000
001F0000
001F0000
001F0000
001F0000
001F0000
001F0000
001F0000
001F0000
001F0000
001F0000
001F0000
001F0000
001F0000
001F0000
001F0000
001F0000
00060000
00060000
000C0000
000FE000
000BE000
0000E000
0000E000
00E1E000
00FFC000
003F0000
ENDCHAR
STARTCHAR 0163
ENCODING 355
SWIDTH 275 0
DWIDTH 13 0
BBX 11 42 1 -10
BITMAP
1E00
1E00
1E00
1E00
1E00
1E00
1E00
FFE0
FFE0
FFE0
1E00
1E00
1E00
1E00
1E00
1E00
1E00
1E00
1E00
1E00
1E00
1E00
1E00
1E00
1E00
1E00
1E00
1E00
1E00
1FA0
1FE0
0FE0
07E0
0600
0D00
0FC0
03E0
00E0
00E0
E1E0
FFC0
3F00
ENDCHAR
STARTCHAR 0164
ENCODING 356
SWIDTH 614 0
DWIDTH 29 0
BBX 27 44 1 0
BITMAP
01C07000
00E0E000
00F1E000
007BC000
003B8000
003F8000
001F0000
00000000
00000000
00000000
FFFFFFE0
FFFFFFE0
FFFFFFE0
FFFFFFE0
001F0000
001F0000
001F0000
001F0000
001F0000
001F0000
001F0000
001F0000
001F0000
001F0000
001F0000
001F0000
001F0000
001F0000
001F0000
001F0000
001F0000
001F0000
001F0000
001F0000
001F0000
001F0000
001F0000
001F0000
001F0000
001F0000
001F0000
001F0000
001F0000
001F0000
ENDCHAR
STARTCHAR 0165
ENCODING 357
SWIDTH 317 0
DWIDTH 15 0
BBX 14 39 1 -1
BITMAP
007C
007C
007C
007C
007C
000C
1E0C
1E0C
1E18
1E70
1E40
1E00
1E00
FFE0
FFE0
FFE0
1E00
1E00
1E00
1E00
1E00
1E00
1E00
1E00
1E00
1E00
1E00
1E00
1E00
1E00
1E00
1E00
1E00
1E00
1E00
1FA0
1FE0
0FE0
07E0
ENDCHAR
STARTCHAR 0166
ENCODING 358
SWIDTH 614 0
DWIDTH 29 0
BBX 27 34 1 0
BITMAP
FFFFFFE0
FFFFFFE0
FFFFFFE0
FFFFFFE0
001F0000
001F0000
001F0000
001F0000
001F0000
001F0000
001F0000
001F0000
0FFFFE00
0FFFFE00
0FFFFE00
001F0000
001F0000
001F0000
001F0000
001F0000
001F0000
001F0000
001F0000
001F0000
001F0000
001F0000
001F0000
001F0000
001F0000
001F0000
001F0000
001F0000
001F0000
001F0000
ENDCHAR
STARTCHAR 0167
ENCODING 359
SWIDTH 275 0
DWIDTH 13 0
BBX 11 33 1 -1
BITMAP
1E00
1E00
1E00
1E00
1E00
1E00
1E00
FFE0
FFE0
FFE0
1E00
1E00
1E00
1E00
FFE0
FFE0
FFE0
1E00
1E00
1E00
1E00
1E00
1E00
1E00
1E00
1E00
1E00
1E00
1E00
1FA0
1FE0
0FE0
07E0
ENDCHAR
STARTCHAR 0168
ENCODING 360
SWIDTH 720 0
DWIDTH 34 0
BBX 26 44 4 -1
BITMAP
00F07000
01FC7000
03FFF000
039FE000
0303C000
00000000
00000000
00000000
00000000
F00003C0
F00003C0
F00003C0
F00003C0
F00003C0
F00003C0
F00003C0
F00003C0
F00003C0
F00003C0
F00003C0
F00003C0
F00003C0
F00003C0
F00003C0
F00003C0
F00003C0
F00003C0
F00003C0
F00003C0
F00003C0
F00003C0
F00003C0
F00003C0
F00003C0
F80003C0
F80003C0
780007C0
7C000F80
7E001F80
3F807F00
1FFFFE00
0FFFFC00
03FFF000
007FC000
ENDCHAR
STARTCHAR 0169
ENCODING 361
SWIDTH 550 0
DWIDTH 26 0
BBX 20 35 3 -1
BITMAP
078380
0FE380
1FFF80
1CFF00
181E00
000000
000000
000000
000000
F000F0
F000F0
F000F0
F000F0
F000F0
F000F0
F000F0
F000F0
F000F0
F000F0
F000F0
F000F0
F000F0
F000F0
F000F0
F000F0
F000F0
F001F0
F001F0
F001F0
F803F0
FC07F0
7FBFF0
3FFEF0
1FF8F0
07F000
ENDCHAR
STARTCHAR 016A
ENCODING 362
SWIDTH 720 0
DWIDTH 34 0
BBX 26 43 4 -1
BITMAP
01FFF000
01FFF000
01FFF000
00000000
00000000
00000000
00000000
00000000
F00003C0
F00003C0
F00003C0
F00003C0
F00003C0
F00003C0
F00003C0
F00003C0
F00003C0
F00003C0
F00003C0
F00003C0
F00003C0
F00003C0
F00003C0
F00003C0
F00003C0
F00003C0
F00003C0
F00003C0
F00003C0
F00003C0
F00003C0
F00003C0
F00003C0
F80003C0
F80003C0
780007C0
7C000F80
7E001F80
3F807F00
1FFFFE00
0FFFFC00
03FFF000
007FC000
ENDCHAR
STARTCHAR 016B
ENCODING 363
SWIDTH 550 0
DWIDTH 26 0
BBX 20 34 3 -1
BITMAP
1FFF00
1FFF00
1FFF00
000000
000000
000000
000000
000000
F000F0
F000F0
F000F0
F000F0
F000F0
F000F0
F000F0
F000F0
F000F0
F000F0
F000F0
F000F0
F000F0
F000F0
F000F0
F000F0
F000F0
F001F0
F001F0
F001F0
F803F0
FC07F0
7FBFF0
3FFEF0
1FF8F0
07F000
ENDCHAR
STARTCHAR 016C
ENCODING 364
SWIDTH 720 0
DWIDTH 34 0
BBX 26 44 4 -1
BITMAP
03807000
03807000
03E1E000
01FFE000
00FFC000
003F0000
00000000
00000000
00000000
F00003C0
F00003C0
F00003C0
F00003C0
F00003C0
F00003C0
F00003C0
F00003C0
F00003C0
F00003C0
F00003C0
F00003C0
F00003C0
F00003C0
F00003C0
F00003C0
F00003C0
F00003C0
F00003C0
F00003C0
F00003C0
F00003C0
F00003C0
F00003C0
F00003C0
F80003C0
F80003C0
780007C0
7C000F80
7E001F80
3F807F00
1FFFFE00
0FFFFC00
03FFF000
007FC000
ENDCHAR
STARTCHAR 016D
ENCODING 365
SWIDTH 550 0
DWIDTH 26 0
BBX 20 36 3 -1
BITMAP
1C0380
1C0380
1F0780
0FFF00
07FE00
03FC00
000000
000000
000000
000000
F000F0
F000F0
F000F0
F000F0
F000F0
F000F0
F000F0
F000F0
F000F0
F000F0
F000F0
F000F0
F000F0
F000F0
F000F0
F000F0
F000F0
F001F0
F001F0
F001F0
F803F0
FC07F0
7FBEF0
3FFEF0
1FF8F0
07E000
ENDCHAR
STARTCHAR 016E
ENCODING 366
SWIDTH 720 0
DWIDTH 34 0
BBX 26 46 4 -1
BITMAP
001E0000
003F0000
00338000
00618000
00618000
00618000
00738000
003F0000
001E0000
00000000
00000000
F00003C0
F00003C0
F00003C0
F00003C0
F00003C0
F00003C0
F00003C0
F00003C0
F00003C0
F00003C0
F00003C0
F00003C0
F00003C0
F00003C0
F00003C0
F00003C0
F00003C0
F00003C0
F00003C0
F00003C0
F00003C0
F00003C0
F00003C0
F00003C0
F00003C0
F80003C0
F80003C0
780007C0
7C000F80
7E001F80
3F807F00
1FFFFE00
0FFFFC00
03FFF000
007FC000
ENDCHAR
STARTCHAR 016F
ENCODING 367
SWIDTH 550 0
DWIDTH 26 0
BBX 20 37 3 -1
BITMAP
00F000
01F800
039C00
030C00
030C00
039C00
01F800
00F000
000000
000000
000000
F000F0
F000F0
F000F0
F000F0
F000F0
F000F0
F000F0
F000F0
F000F0
F000F0
F000F0
F000F0
F000F0
F000F0
F000F0
F000F0
F000F0
F001F0
F001F0
F001F0
F803F0
FC07F0
7FBEF0
3FFEF0
1FF8F0
07E000
ENDCHAR
STARTCHAR 0170
ENCODING 368
SWIDTH 720 0
DWIDTH 34 0
BBX 26 45 4 -1
BITMAP
001F1F80
001E1F00
003C3E00
00783C00
00707800
00E0F000
01E0E000
00000000
00000000
00000000
F00003C0
F00003C0
F00003C0
F00003C0
F00003C0
F00003C0
F00003C0
F00003C0
F00003C0
F00003C0
F00003C0
F00003C0
F00003C0
F00003C0
F00003C0
F00003C0
F00003C0
F00003C0
F00003C0
F00003C0
F00003C0
F00003C0
F00003C0
F00003C0
F00003C0
F80003C0
F80003C0
780007C0
7C000F80
7E001F80
3F807F00
1FFFFE00
0FFFFC00
03FFF000
007FC000
ENDCHAR
STARTCHAR 0171
ENCODING 369
SWIDTH 550 0
DWIDTH 26 0
BBX 22 36 3 -1
BITMAP
00F8FC
00F0F8
01E1F0
03C3E0
0383C0
070780
0E0700
000000
000000
000000
F000F0
F000F0
F000F0
F000F0
F000F0
F000F0
F000F0
F000F0
F000F0
F000F0
F000F0
F000F0
F000F0
F000F0
F000F0
F000F0
F000F0
F001F0
F001F0
F001F0
F803F0
FC07F0
7FBFF0
3FFEF0
1FF8F0
07F000
ENDCHAR
STARTCHAR 0172
ENCODING 370
SWIDTH 720 0
DWIDTH 34 0
BBX 26 44 4 -10
BITMAP
F00003C0
F00003C0
F00003C0
F00003C0
F00003C0
F00003C0
F00003C0
F00003C0
F00003C0
F00003C0
F00003C0
F00003C0
F00003C0
F00003C0
F00003C0
F00003C0
F00003C0
F00003C0
F00003C0
F00003C0
F00003C0
F00003C0
F00003C0
F00003C0
F00003C0
F80003C0
F80003C0
780007C0
7C000FC0
7E001F80
3F807F00
1FFFFF00
0FFFFE00
03FFFC00
007FB800
00007000
0000E000
0001C000
0001C000
0001C000
0001C000
0001F000
0000FF00
00003F00
ENDCHAR
STARTCHAR 0173
ENCODING 371
SWIDTH 550 0
DWIDTH 26 0
BBX 22 35 3 -10
BITMAP
F000F0
F000F0
F000F0
F000F0
F000F0
F000F0
F000F0
F000F0
F000F0
F000F0
F000F0
F000F0
F000F0
F000F0
F000F0
F000F0
F000F0
F001F0
F001F0
F001F0
F803F0
FC07F0
7FBEF0
3FFEF0
1FF8F0
07E0E0
0001C0
000380
000780
000700
000700
000700
000784
0003FC
0000FC
ENDCHAR
STARTCHAR 0174
ENCODING 372
SWIDTH 952 0
DWIDTH 45 0
BBX 43 44 1 0
BITMAP
00001F000000
00003F000000
00007F800000
000073C00000
0000F1C00000
0001E0E00000
0001C0E00000
000000000000
000000000000
000000000000
F8001F0003E0
F8001F0003C0
7C003F8007C0
7C003F8007C0
7C003F8007C0
7C003F800780
3C007FC00F80
3E007BC00F80
3E007BC00F80
3E00F3C00F00
1E00F1E00F00
1F00F1E01F00
1F00F1E01F00
0F01E1F01E00
0F01E0F01E00
0F81E0F03E00
0F83E0F03E00
0783C0783C00
0783C0783C00
07C3C0787C00
07C7807C7C00
03C7803C7800
03C7803C7800
03C7803C7800
03EF001EF800
01EF001EF000
01EF001EF000
01FE001FF000
01FE000FF000
00FE000FE000
00FE000FE000
00FC0007E000
00FC0007E000
007C0007C000
ENDCHAR
STARTCHAR 0175
ENCODING 373
SWIDTH 720 0
DWIDTH 34 0
BBX 33 35 0 0
BITMAP
0003E00000
0003F00000
0007F80000
000F380000
000E3C0000
001C1E0000
00380E0000
0000000000
0000000000
0000000000
F803E00780
7803F00780
7803F00F80
7C03F00F00
3C07F00F00
3C07F80F00
3C07781F00
3E07781E00
1E0F781E00
1E0F3C1E00
1E0E3C3C00
0F0E3C3C00
0F1E3C3C00
0F1E1E3800
0F1C1E7800
079C1E7800
07BC1E7800
07BC0F7000
03B80FF000
03F80FF000
03F807E000
03F807E000
01F807E000
01F007E000
01F003C000
ENDCHAR
STARTCHAR 0176
ENCODING 374
SWIDTH 677 0
DWIDTH 32 0
BBX 30 44 1 0
BITMAP
0007C000
000FC000
001FE000
001CF000
003C7000
00383800
00703C00
00000000
00000000
00000000
F800007C
7C0000F8
7E0001F8
3E0001F0
3F0003E0
1F0003E0
0F8007C0
0FC007C0
07C00F80
03E01F00
03E01F00
01F03E00
00F83C00
00F87C00
007CF800
003EF800
003FF000
001FE000
001FE000
000FC000
00078000
00078000
00078000
00078000
00078000
00078000
00078000
00078000
00078000
00078000
00078000
00078000
00078000
00078000
ENDCHAR
STARTCHAR 0177
ENCODING 375
SWIDTH 508 0
DWIDTH 24 0
BBX 21 45 1 -10
BITMAP
00F800
00FC00
01FE00
03CE00
038F00
070780
0E0380
000000
000000
000000
F00078
F80078
7800F8
7800F0
7C00F0
3C01F0
3C01E0
3E01E0
1E03C0
1E03C0
1F03C0
0F0780
0F0780
0F8780
078F00
078F00
07DF00
03DE00
03DE00
03FC00
01FC00
01FC00
00F800
00F800
00F800
00F000
00F000
01E000
01E000
03E000
03C000
3FC000
3F8000
3F0000
3E0000
ENDCHAR
STARTCHAR 0178
ENCODING 376
SWIDTH 677 0
DWIDTH 32 0
BBX 30 43 1 0
BITMAP
007CF800
007CF800
007CF800
007CF800
007CF800
00000000
00000000
00000000
00000000
F800007C
7C0000F8
7E0001F8
3E0001F0
3F0003E0
1F0003E0
0F8007C0
0FC007C0
07C00F80
03E01F00
03E01F00
01F03E00
00F83C00
00F87C00
007CF800
003EF800
003FF000
001FE000
001FE000
000FC000
00078000
00078000
00078000
00078000
00078000
00078000
00078000
00078000
00078000
00078000
00078000
00078000
00078000
00078000
ENDCHAR
STARTCHAR 0179
ENCODING 377
SWIDTH 614 0
DWIDTH 29 0
BBX 27 44 1 0
BITMAP
0001F000
0003E000
0003C000
00078000
00070000
000E0000
001C0000
00000000
00000000
00000000
3FFFFFC0
3FFFFFC0
3FFFFFC0
3FFFFFC0
00000FC0
00000F80
00001F00
00003F00
00007E00
00007C00
0000F800
0001F800
0003F000
0007E000
0007C000
000F8000
001F8000
003F0000
007E0000
007C0000
00F80000
01F80000
03F00000
03E00000
07C00000
0F800000
1F800000
3F000000
3E000000
7C000000
FFFFFFE0
FFFFFFE0
FFFFFFE0
FFFFFFE0
ENDCHAR
STARTCHAR 017A
ENCODING 378
SWIDTH 508 0
DWIDTH 24 0
BBX 21 35 1 0
BITMAP
000F80
001F00
001E00
003C00
007800
007000
00E000
000000
000000
000000
7FFFF0
7FFFF0
7FFFF0
0001F0
0003E0
0003C0
000780
000F80
001F00
003E00
007C00
007800
00F800
01F000
03E000
07C000
078000
0F8000
1F0000
3E0000
7C0000
F80000
FFFFF8
FFFFF8
FFFFF8
ENDCHAR
STARTCHAR 017B
ENCODING 379
SWIDTH 614 0
DWIDTH 29 0
BBX 27 43 1 0
BITMAP
000F8000
000F8000
000F8000
000F8000
000F8000
00000000
00000000
00000000
00000000
3FFFFFC0
3FFFFFC0
3FFFFFC0
3FFFFFC0
00000FC0
00000F80
00001F00
00003F00
00007E00
00007C00
0000F800
0001F800
0003F000
0007E000
0007C000
000F8000
001F8000
003F0000
007E0000
007C0000
00F80000
01F80000
03F00000
03E00000
07C00000
0F800000
1F800000
3F000000
3E000000
7C000000
FFFFFFE0
FFFFFFE0
FFFFFFE0
FFFFFFE0
ENDCHAR
STARTCHAR 017C
ENCODING 380
SWIDTH 508 0
DWIDTH 24 0
BBX 21 34 1 0
BITMAP
00F800
00F800
00F800
00F800
00F800
000000
000000
000000
000000
7FFFF0
7FFFF0
7FFFF0
0001F0
0003E0
0003C0
000780
000F80
001F00
003E00
007C00
007800
00F800
01F000
03E000
07C000
078000
0F8000
1F0000
3E0000
7C0000
F80000
FFFFF8
FFFFF8
FFFFF8
ENDCHAR
STARTCHAR 017D
ENCODING 381
SWIDTH 614 0
DWIDTH 29 0
BBX 27 44 1 0
BITMAP
00E07800
00F07000
0070E000
0079E000
003FC000
001F8000
001F8000
00000000
00000000
00000000
3FFFFFC0
3FFFFFC0
3FFFFFC0
3FFFFFC0
00000FC0
00000F80
00001F00
00003F00
00007E00
00007C00
0000F800
0001F800
0003F000
0007E000
0007C000
000F8000
001F8000
003F0000
007E0000
007C0000
00F80000
01F80000
03F00000
03E00000
07C00000
0F800000
1F800000
3F000000
3E000000
7C000000
FFFFFFE0
FFFFFFE0
FFFFFFE0
FFFFFFE0
ENDCHAR
STARTCHAR 017E
ENCODING 382
SWIDTH 508 0
DWIDTH 24 0
BBX 21 35 1 0
BITMAP
0E0380
070780
038F00
03CE00
01FE00
00FC00
00F800
000000
000000
000000
7FFFF0
7FFFF0
7FFFF0
0001F0
0003E0
0003C0
000780
000F80
001F00
003E00
007C00
007800
00F800
01F000
03E000
07C000
078000
0F8000
1F0000
3E0000
7C0000
F80000
FFFFF8
FFFFF8
FFFFF8
ENDCHAR
STARTCHAR 017F
ENCODING 383
SWIDTH 211 0
DWIDTH 10 0
BBX 11 35 0 0
BITMAP
03E0
0FE0
0FE0
1F80
1E00
1E00
1E00
1E00
1E00
1E00
FE00
FE00
FE00
1E00
1E00
1E00
1E00
1E00
1E00
1E00
1E00
1E00
1E00
1E00
1E00
1E00
1E00
1E00
1E00
1E00
1E00
1E00
1E00
1E00
1E00
ENDCHAR
STARTCHAR 0192
ENCODING 402
SWIDTH 550 0
DWIDTH 26 0
BBX 24 45 1 -10
BITMAP
00003F
0000FF
0001FF
0003FF
0003E0
0007C0
000780
000780
000F80
000F00
000F00
000F00
000F00
03FFF8
03FFF8
03FFF8
001E00
001E00
001E00
003C00
003C00
003C00
003C00
003C00
007C00
007800
007800
007800
007800
00F800
00F000
00F000
00F000
00F000
00F000
01E000
01E000
01E000
01E000
03C000
07C000
FF8000
FF0000
FE0000
F80000
ENDCHAR
STARTCHAR 01FA
ENCODING 506
SWIDTH 677 0
DWIDTH 32 0
BBX 30 51 1 0
BITMAP
000F8000
001F0000
001E0000
003C0000
00780000
00700000
00E78000
000FC000
001CE000
00186000
00186000
00186000
001CE000
000FC000
00078000
00000000
00000000
000FC000
000FC000
001FE000
001FE000
003FE000
003FF000
003DF000
007CF000
0078F800
00787800
00F87800
00F07C00
00F03C00
01F03E00
01E03E00
03E01E00
03C01F00
03C01F00
07C00F00
07800F80
07FFFF80
0FFFFF80
0FFFFFC0
0FFFFFC0
1F0003C0
1E0003E0
3E0003E0
3E0001F0
3C0001F0
7C0001F0
7C0000F8
780000F8
F80000F8
F800007C
ENDCHAR
STARTCHAR 01FB
ENCODING 507
SWIDTH 550 0
DWIDTH 26 0
BBX 23 44 2 -1
BITMAP
007C00
00F800
00F000
01E000
03C000
038000
070000
007800
00FE00
01CE00
018600
018600
01C600
00FC00
007800
000000
000000
01FE00
07FFC0
1FFFE0
3FFFF0
3E01F0
7C00F0
7800F0
7800F0
0000F0
0000F0
0001F0
001FF0
07FFF0
1FFFF0
3FF0F0
7E00F0
7800F0
F800F0
F000F0
F000F0
F000F0
F801F0
F807F0
7FBF78
3FFE7E
1FFC7E
07E03E
ENDCHAR
STARTCHAR 01FC
ENCODING 508
SWIDTH 995 0
DWIDTH 47 0
BBX 44 44 1 0
BITMAP
0000000F8000
0000001F0000
0000003E0000
0000003C0000
000000780000
000000F00000
000000E00000
000000000000
000000000000
000000000000
0007FFFFFFE0
0007FFFFFFE0
0007FFFFFFE0
000FFFFFFFE0
000F07800000
001F07800000
001E07800000
001E07800000
003E07800000
003C07800000
007C07800000
007807800000
00F807800000
00F807800000
00F007800000
01F007FFFFC0
01E007FFFFC0
03E007FFFFC0
03E007FFFFC0
03C007800000
07FFFF800000
07FFFF800000
0FFFFF800000
0FFFFF800000
1F0007800000
1F0007800000
1E0007800000
3E0007800000
3E0007800000
7C0007800000
7C0007FFFFF0
780007FFFFF0
F80007FFFFF0
F80007FFFFF0
ENDCHAR
STARTCHAR 01FD
ENCODING 509
SWIDTH 889 0
DWIDTH 42 0
BBX 38 36 2 -1
BITMAP
00000F8000
00001F0000
00003E0000
00003C0000
0000780000
0000F00000
0000C00000
0000000000
0000000000
01FC00FC00
0FFF87FF80
1FFFCFFFC0
3FFFFFFFE0
7E03FF03F0
7C01FC01F0
7800F800F8
7800F80078
0000F00078
0000F0007C
0000F0003C
0003F0003C
03FFFFFFFC
1FFFFFFFFC
3FFCFFFFFC
7F00F00000
F800F00000
F000F00000
F000F00078
F000F80078
F001F80078
F003FC00F0
F807BE03F0
7F7F1FFFE0
7FFE0FFFC0
3FF807FF80
0FE001FC00
ENDCHAR
STARTCHAR 01FE
ENCODING 510
SWIDTH 783 0
DWIDTH 37 0
BBX 33 45 2 -1
BITMAP
0000F80000
0001F00000
0001E00000
0003C00000
0007800000
0007000000
000E000000
0000000000
0000000000
000FF80380
007FFF0780
01FFFF8F00
03FFFFFE00
07F00FFC00
0FC003F800
1F8000FC00
3F0000FC00
3E0001FE00
7C0003BE00
7C00071F00
78000F1F00
F8001E0F00
F8003C0F00
F000780F80
F000F00F80
F000E00F80
F001C00F80
F003800F80
F007000F80
F00E000F80
F01C000F80
F838000F00
F870000F00
78F0001F00
7DE0001F00
7FC0003E00
3F80003E00
3F00007C00
1F8000FC00
1FC001F800
3FF00FF000
73FFFFE000
E1FFFF8000
C07FFE0000
000FF00000
ENDCHAR
STARTCHAR 01FF
ENCODING 511
SWIDTH 614 0
DWIDTH 29 0
BBX 24 37 1 -1
BITMAP
000F80
000F00
001E00
003C00
003800
007000
00E000
000000
000000
000000
00FF02
03FFC7
07FFEE
0FFFFC
1F81F8
3E00F8
3E007C
3C00FC
7C01FE
78039E
78071E
780E1E
780C1E
78181E
78381E
78701E
78E01E
79C01E
7F803E
3F003C
3E007C
3E0078
1F81F8
3FFFF0
77FFE0
E3FFC0
C0FE00
ENDCHAR
STARTCHAR 0218
ENCODING 536
SWIDTH 677 0
DWIDTH 32 0
BBX 27 49 2 -14
BITMAP
007FC000
01FFF800
07FFFC00
0FFFFF00
1F803F00
3F000F80
3E000780
3C0007C0
7C0003C0
7C0003C0
7C0003C0
7C000000
3E000000
3F000000
3FE00000
1FFE0000
0FFFE000
03FFFC00
003FFF00
0007FF80
00007FC0
00000FC0
000007E0
000003E0
F00001E0
F80001E0
F80001E0
780001E0
7C0003E0
7C0003C0
3F0007C0
1FC01F80
0FFFFF00
07FFFE00
03FFFC00
007FE000
00000000
00000000
000F0000
000F0000
000F0000
000F0000
000F0000
00030000
00030000
00030000
00070000
000E0000
00080000
ENDCHAR
STARTCHAR 0219
ENCODING 537
SWIDTH 508 0
DWIDTH 24 0
BBX 20 40 2 -14
BITMAP
03FC00
0FFF00
3FFF80
3FFFC0
7C07C0
7803C0
F003E0
F003E0
F80000
F80000
7E0000
7FE000
3FFC00
0FFF80
03FFC0
003FE0
0003E0
0001F0
F001F0
F000F0
F001F0
F801E0
FC03E0
7FFFC0
3FFF80
1FFF00
07F800
000000
000000
01F000
01F000
01F000
01F000
01F000
003000
003000
007000
006000
01C000
010000
ENDCHAR
STARTCHAR 021A
ENCODING 538
SWIDTH 614 0
DWIDTH 29 0
BBX 27 48 1 -14
BITMAP
FFFFFFE0
FFFFFFE0
FFFFFFE0
FFFFFFE0
001F0000
001F0000
001F0000
001F0000
001F0000
001F0000
001F0000
001F0000
001F0000
001F0000
001F0000
001F0000
001F0000
001F0000
001F0000
001F0000
001F0000
001F0000
001F0000
001F0000
001F0000
001F0000
001F0000
001F0000
001F0000
001F0000
001F0000
001F0000
001F0000
001F0000
00000000
00000000
00000000
001F0000
001F0000
001F0000
001F0000
001F0000
00030000
00030000
00070000
00060000
001C0000
00100000
ENDCHAR
STARTCHAR 021B
ENCODING 539
SWIDTH 275 0
DWIDTH 13 0
BBX 11 46 1 -14
BITMAP
1E00
1E00
1E00
1E00
1E00
1E00
1E00
FFE0
FFE0
FFE0
1E00
1E00
1E00
1E00
1E00
1E00
1E00
1E00
1E00
1E00
1E00
1E00
1E00
1E00
1E00
1E00
1E00
1E00
1E00
1FA0
1FE0
0FE0
07E0
0000
0000
0F80
0F80
0F80
0F80
0F80
0180
0180
0380
0300
0E00
0800
ENDCHAR
STARTCHAR 02C6
ENCODING 710
SWIDTH 338 0
DWIDTH 16 0
BBX 13 7 1 28
BITMAP
0F80
0FC0
1FE0
3DE0
38F0
7070
E038
ENDCHAR
STARTCHAR 02C7
ENCODING 711
SWIDTH 338 0
DWIDTH 16 0
BBX 13 7 1 28
BITMAP
E038
7070
78F0
3CE0
1FE0
1FC0
0F80
ENDCHAR
STARTCHAR 02C9
ENCODING 713
SWIDTH 338 0
DWIDTH 16 0
BBX 13 3 1 30
BITMAP
FFF8
FFF8
FFF8
ENDCHAR
STARTCHAR 02D8
ENCODING 728
SWIDTH 338 0
DWIDTH 16 0
BBX 14 6 1 29
BITMAP
E01C
E01C
F078
7FF8
3FF0
1FE0
ENDCHAR
STARTCHAR 02D9
ENCODING 729
SWIDTH 338 0
DWIDTH 16 0
BBX 5 5 5 29
BITMAP
F8
F8
F8
F8
F8
ENDCHAR
STARTCHAR 02DA
ENCODING 730
SWIDTH 338 0
DWIDTH 16 0
BBX 8 9 4 27
BITMAP
3C
7E
E7
C3
C3
C3
E7
7E
3C
ENDCHAR
STARTCHAR 02DB
ENCODING 731
SWIDTH 338 0
DWIDTH 16 0
BBX 10 10 3 -10
BITMAP
1E00
3800
7000
E000
E000
E000
E000
F840
7FC0
1FC0
ENDCHAR
STARTCHAR 02DC
ENCODING 732
SWIDTH 338 0
DWIDTH 16 0
BBX 15 5 0 29
BITMAP
1E0E
3F9E
7FFC
73FC
E078
ENDCHAR
STARTCHAR 02DD
ENCODING 733
SWIDTH 338 0
DWIDTH 16 0
BBX 17 7 -1 28
BITMAP
0F8F80
1F1F00
3E1E00
3C3C00
787800
F07000
E0E000
ENDCHAR
STARTCHAR 0384
ENCODING 900
SWIDTH 338 0
DWIDTH 16 0
BBX 4 9 6 28
BITMAP
F0
F0
F0
F0
F0
F0
E0
60
60
ENDCHAR
STARTCHAR 0385
ENCODING 901
SWIDTH 338 0
DWIDTH 16 0
BBX 12 12 2 28
BITMAP
0F00
0F00
0F00
0F00
0F00
0E00
0600
F6F0
F6F0
F0F0
F0F0
F0F0
ENDCHAR
STARTCHAR 0386
ENCODING 902
SWIDTH 677 0
DWIDTH 32 0
BBX 30 34 1 0
BITMAP
380FC000
380FC000
381FE000
381FE000
383FE000
383FF000
383DF000
387CF000
1078F800
00787800
00F87800
00F07C00
00F03C00
01F03E00
01E03E00
03E01E00
03C01F00
03C01F00
07C00F00
07800F80
07FFFF80
0FFFFF80
0FFFFFC0
0FFFFFC0
1F0003C0
1E0003E0
3E0003E0
3E0001F0
3C0001F0
7C0001F0
7C0000F8
780000F8
F80000F8
F800007C
ENDCHAR
STARTCHAR 0387
ENCODING 903
SWIDTH 275 0
DWIDTH 13 0
BBX 5 5 5 11
BITMAP
F8
F8
F8
F8
F8
ENDCHAR
STARTCHAR 0388
ENCODING 904
SWIDTH 783 0
DWIDTH 37 0
BBX 31 34 1 0
BITMAP
F1FFFFFE
F1FFFFFE
F1FFFFFE
F1FFFFFE
F1E00000
71E00000
71E00000
61E00000
61E00000
01E00000
01E00000
01E00000
01E00000
01E00000
01E00000
01FFFFFC
01FFFFFC
01FFFFFC
01FFFFFC
01E00000
01E00000
01E00000
01E00000
01E00000
01E00000
01E00000
01E00000
01E00000
01E00000
01E00000
01FFFFFE
01FFFFFE
01FFFFFE
01FFFFFE
ENDCHAR
STARTCHAR 0389
ENCODING 905
SWIDTH 847 0
DWIDTH 40 0
BBX 33 34 1 0
BITMAP
F3E0000F80
F3E0000F80
F3E0000F80
F3E0000F80
F3E0000F80
F3E0000F80
E3E0000F80
63E0000F80
63E0000F80
03E0000F80
03E0000F80
03E0000F80
03E0000F80
03E0000F80
03E0000F80
03FFFFFF80
03FFFFFF80
03FFFFFF80
03FFFFFF80
03E0000F80
03E0000F80
03E0000F80
03E0000F80
03E0000F80
03E0000F80
03E0000F80
03E0000F80
03E0000F80
03E0000F80
03E0000F80
03E0000F80
03E0000F80
03E0000F80
03E0000F80
ENDCHAR
STARTCHAR 038A
ENCODING 906
SWIDTH 381 0
DWIDTH 18 0
BBX 11 34 1 0
BITMAP
F1E0
F1E0
F1E0
F1E0
F1E0
71E0
71E0
61E0
61E0
01E0
01E0
01E0
01E0
01E0
01E0
01E0
01E0
01E0
01E0
01E0
01E0
01E0
01E0
01E0
01E0
01E0
01E0
01E0
01E0
01E0
01E0
01E0
01E0
01E0
ENDCHAR
STARTCHAR 038C
ENCODING 908
SWIDTH 783 0
DWIDTH 37 0
BBX 36 36 -1 -1
BITMAP
0001FF0000
F00FFFE000
F03FFFF000
F07FFFFC00
F0FE01FE00
F1F8007F00
E3F0001F80
E7E0000F80
67C00007C0
6F800007C0
0F800003E0
0F000003E0
1F000001E0
1F000001E0
1E000001F0
1E000001F0
1E000001F0
1E000001F0
1E000001F0
1E000001F0
1E000001F0
1E000001F0
1F000001E0
1F000001E0
0F000003E0
0F800003E0
0F800007C0
07C00007C0
07E0000F80
03F0001F80
01F8003F00
00FE01FE00
007FFFFC00
003FFFF000
000FFFE000
0001FE0000
ENDCHAR
STARTCHAR 038E
ENCODING 910
SWIDTH 847 0
DWIDTH 40 0
BBX 35 34 2 0
BITMAP
E7E00003E0
E3E00007E0
E3F00007C0
E1F0000F80
E0F8000F80
E0FC001F00
E07C003E00
E03E003E00
403E007C00
001F007800
000F80F800
000F81F000
0007C1F000
0007E3E000
0003E3C000
0001F7C000
0001FF8000
0000FF0000
00007F0000
00007E0000
00003E0000
00003E0000
00003E0000
00003E0000
00003E0000
00003E0000
00003E0000
00003E0000
00003E0000
00003E0000
00003E0000
00003E0000
00003E0000
00003E0000
ENDCHAR
STARTCHAR 038F
ENCODING 911
SWIDTH 762 0
DWIDTH 36 0
BBX 35 35 -1 0
BITMAP
0001FE0000
F00FFFC000
F03FFFF000
F07FFFF800
F1FE01FC00
F1F8007E00
F3E0003F00
E7C0001F00
67C0000F80
6F80000F80
0F800007C0
0F000007C0
1F000003C0
1F000003C0
1F000003C0
1F000003C0
1E000003C0
1F000003C0
1F000003C0
1F000003C0
1F000003C0
0F000007C0
0F00000780
0F80000780
0780000F80
07C0000F00
03C0001E00
01E0003E00
00F0007C00
007C00F000
003E01E000
3FFF07FFE0
3FFF07FFE0
3FFF07FFE0
3FFF07FFE0
ENDCHAR
STARTCHAR 0390
ENCODING 912
SWIDTH 211 0
DWIDTH 10 0
BBX 13 40 -1 0
BITMAP
0F00
0F00
0F00
0F00
0F00
0700
0700
F6F8
F6F8
F0F8
F0F8
F0F8
0000
0000
0000
0F00
0F00
0F00
0F00
0F00
0F00
0F00
0F00
0F00
0F00
0F00
0F00
0F00
0F00
0F00
0F00
0F00
0F00
0F00
0F00
0F00
0F00
0F00
0F00
0F00
ENDCHAR
STARTCHAR 0391
ENCODING 913
SWIDTH 677 0
DWIDTH 32 0
BBX 30 34 1 0
BITMAP
000FC000
000FC000
001FE000
001FE000
003FE000
003FF000
003DF000
007CF000
0078F800
00787800
00F87800
00F07C00
00F03C00
01F03E00
01E03E00
03E01E00
03C01F00
03C01F00
07C00F00
07800F80
07FFFF80
0FFFFF80
0FFFFFC0
0FFFFFC0
1F0003C0
1E0003E0
3E0003E0
3E0001F0
3C0001F0
7C0001F0
7C0000F8
780000F8
F80000F8
F800007C
ENDCHAR
STARTCHAR 0392
ENCODING 914
SWIDTH 677 0
DWIDTH 32 0
BBX 25 34 4 0
BITMAP
FFFFC000
FFFFF000
FFFFF800
FFFFFC00
F0007E00
F0003E00
F0001F00
F0001F00
F0001F00
F0000F00
F0001F00
F0001F00
F0001E00
F0003E00
F000FC00
FFFFF800
FFFFE000
FFFFF800
FFFFFE00
F0003F00
F0001F80
F0000F80
F0000780
F0000780
F0000780
F0000780
F0000780
F0000F80
F0000F80
F0003F00
FFFFFE00
FFFFFC00
FFFFF800
FFFFE000
ENDCHAR
STARTCHAR 0393
ENCODING 915
SWIDTH 550 0
DWIDTH 26 0
BBX 22 34 4 0
BITMAP
FFFFFC
FFFFFC
FFFFFC
FFFFFC
F00000
F00000
F00000
F00000
F00000
F00000
F00000
F00000
F00000
F00000
F00000
F00000
F00000
F00000
F00000
F00000
F00000
F00000
F00000
F00000
F00000
F00000
F00000
F00000
F00000
F00000
F00000
F00000
F00000
F00000
ENDCHAR
STARTCHAR 0394
ENCODING 916
SWIDTH 677 0
DWIDTH 32 0
BBX 32 34 0 0
BITMAP
0007C000
0007E000
000FE000
000FE000
001FF000
001FF000
001EF800
003E7800
003C7C00
007C7C00
007C3C00
00783E00
00F81E00
00F01F00
01F01F00
01F00F00
01E00F80
03E00780
03C007C0
07C007C0
07C003E0
078003E0
0F8001E0
0F0001F0
1F0001F0
1F0000F8
3E0000F8
3E000078
3C00007C
7C00007C
7FFFFFFE
FFFFFFFE
FFFFFFFE
FFFFFFFF
ENDCHAR
STARTCHAR 0395
ENCODING 917
SWIDTH 677 0
DWIDTH 32 0
BBX 25 34 4 0
BITMAP
FFFFFF00
FFFFFF00
FFFFFF00
FFFFFF00
F8000000
F8000000
F8000000
F8000000
F8000000
F8000000
F8000000
F8000000
F8000000
F8000000
F8000000
FFFFFE00
FFFFFE00
FFFFFE00
FFFFFE00
F8000000
F8000000
F8000000
F8000000
F8000000
F8000000
F8000000
F8000000
F8000000
F8000000
F8000000
FFFFFF80
FFFFFF80
FFFFFF80
FFFFFF80
ENDCHAR
STARTCHAR 0396
ENCODING 918
SWIDTH 614 0
DWIDTH 29 0
BBX 27 34 1 0
BITMAP
3FFFFFC0
3FFFFFC0
3FFFFFC0
3FFFFFC0
00000FC0
00000F80
00001F00
00003F00
00007E00
00007C00
0000F800
0001F800
0003F000
0007E000
0007C000
000F8000
001F8000
003F0000
007E0000
007C0000
00F80000
01F80000
03F00000
03E00000
07C00000
0F800000
1F800000
3F000000
3E000000
7C000000
FFFFFFE0
FFFFFFE0
FFFFFFE0
FFFFFFE0
ENDCHAR
STARTCHAR 0397
ENCODING 919
SWIDTH 720 0
DWIDTH 34 0
BBX 26 34 4 0
BITMAP
F00003C0
F00003C0
F00003C0
F00003C0
F00003C0
F00003C0
F00003C0
F00003C0
F00003C0
F00003C0
F00003C0
F00003C0
F00003C0
F00003C0
F00003C0
FFFFFFC0
FFFFFFC0
FFFFFFC0
FFFFFFC0
F00003C0
F00003C0
F00003C0
F00003C0
F00003C0
F00003C0
F00003C0
F00003C0
F00003C0
F00003C0
F00003C0
F00003C0
F00003C0
F00003C0
F00003C0
ENDCHAR
STARTCHAR 0398
ENCODING 920
SWIDTH 783 0
DWIDTH 37 0
BBX 33 36 2 -1
BITMAP
000FF80000
007FFF0000
01FFFFC000
03FFFFE000
07F00FF000
0FC001F800
1F8000FC00
3F00007C00
3E00003E00
7C00001E00
7C00001F00
7800001F00
F800000F00
F800000F80
F000000F80
F000000F80
F07FFE0780
F07FFE0780
F07FFE0780
F000000780
F000000F80
F800000F80
F800000F80
F800000F00
7800001F00
7C00001F00
7C00003E00
3E00003E00
3F00007C00
1F8000FC00
0FC001F800
07F80FF000
03FFFFE000
01FFFF8000
007FFF0000
000FF80000
ENDCHAR
STARTCHAR 0399
ENCODING 921
SWIDTH 275 0
DWIDTH 13 0
BBX 4 34 5 0
BITMAP
F0
F0
F0
F0
F0
F0
F0
F0
F0
F0
F0
F0
F0
F0
F0
F0
F0
F0
F0
F0
F0
F0
F0
F0
F0
F0
F0
F0
F0
F0
F0
F0
F0
F0
ENDCHAR
STARTCHAR 039A
ENCODING 922
SWIDTH 677 0
DWIDTH 32 0
BBX 27 34 4 0
BITMAP
F00007C0
F0000F80
F0001F00
F0003E00
F0007C00
F000F800
F001F000
F003E000
F007C000
F00F8000
F01F0000
F03E0000
F07C0000
F0F80000
F1F80000
F3FC0000
F7FE0000
FFBE0000
FF1F0000
FE0F8000
FC0FC000
F807C000
F003E000
F001F000
F001F000
F000F800
F0007C00
F0007E00
F0003E00
F0001F00
F0001F80
F0000F80
F00007C0
F00003E0
ENDCHAR
STARTCHAR 039B
ENCODING 923
SWIDTH 677 0
DWIDTH 32 0
BBX 30 34 1 0
BITMAP
000FC000
001FC000
001FE000
001FE000
003FE000
003DF000
003DF000
007CF000
0078F800
00F8F800
00F87800
00F07C00
01F07C00
01F03E00
01E03E00
03E03E00
03E01F00
03C01F00
07C00F00
07C00F80
07800F80
0F800780
0F8007C0
1F0007C0
1F0003C0
1F0003E0
3E0003E0
3E0001E0
3E0001F0
7C0001F0
7C0000F8
7C0000F8
F80000F8
F800007C
ENDCHAR
STARTCHAR 039C
ENCODING 924
SWIDTH 825 0
DWIDTH 39 0
BBX 32 34 4 0
BITMAP
FC00003F
FC00007F
FE00007F
FE00007F
FE0000FF
FF0000FF
FF0000EF
FF0001EF
F78001EF
F78001CF
F78003CF
F3C003CF
F3C0038F
F3C0078F
F1E0078F
F1E0070F
F1E00F0F
F0F00F0F
F0F00E0F
F0F01E0F
F0781E0F
F0781C0F
F0383C0F
F03C3C0F
F03C380F
F01C780F
F01E780F
F01E700F
F00EF00F
F00FF00F
F00FE00F
F007E00F
F007E00F
F007C00F
ENDCHAR
STARTCHAR 039D
ENCODING 925
SWIDTH 720 0
DWIDTH 34 0
BBX 27 34 4 0
BITMAP
F80003E0
F80003E0
FC0003E0
FE0003E0
FE0003E0
FF0003E0
FF8003E0
FF8003E0
F7C003E0
F3E003E0
F3E003E0
F1F003E0
F0F003E0
F0F803E0
F07C03E0
F03C03E0
F03E03E0
F01F03E0
F00F03E0
F00F83E0
F007C3E0
F007C3E0
F003E3E0
F001F3E0
F001F3E0
F000FBE0
F0007FE0
F0007FE0
F0003FE0
F0001FE0
F0001FE0
F0000FE0
F00007E0
F00007E0
ENDCHAR
STARTCHAR 039E
ENCODING 926
SWIDTH 656 0
DWIDTH 31 0
BBX 25 34 3 0
BITMAP
FFFFFF80
FFFFFF80
FFFFFF80
FFFFFF80
00000000
00000000
00000000
00000000
00000000
00000000
00000000
00000000
00000000
00000000
00000000
7FFFFE00
7FFFFE00
7FFFFE00
7FFFFE00
00000000
00000000
00000000
00000000
00000000
00000000
00000000
00000000
00000000
00000000
00000000
FFFFFF80
FFFFFF80
FFFFFF80
FFFFFF80
ENDCHAR
STARTCHAR 039F
ENCODING 927
SWIDTH 783 0
DWIDTH 37 0
BBX 33 36 2 -1
BITMAP
000FF80000
007FFF0000
01FFFFC000
03FFFFE000
07F00FF000
0FC001F800
1F8000FC00
1F00007C00
3E00003E00
3C00001E00
7C00001F00
7800001F00
F800000F00
F800000F80
F800000F80
F000000F80
F000000780
F000000780
F000000780
F000000780
F000000780
F800000F80
F800000F80
F800000F00
7800000F00
7C00001F00
7C00001E00
3E00003E00
3F00007C00
1F8000FC00
0FC001F800
07F80FF000
03FFFFE000
01FFFFC000
007FFF0000
000FF80000
ENDCHAR
STARTCHAR 03A0
ENCODING 928
SWIDTH 720 0
DWIDTH 34 0
BBX 26 34 4 0
BITMAP
FFFFFFC0
FFFFFFC0
FFFFFFC0
FFFFFFC0
F00003C0
F00003C0
F00003C0
F00003C0
F00003C0
F00003C0
F00003C0
F00003C0
F00003C0
F00003C0
F00003C0
F00003C0
F00003C0
F00003C0
F00003C0
F00003C0
F00003C0
F00003C0
F00003C0
F00003C0
F00003C0
F00003C0
F00003C0
F00003C0
F00003C0
F00003C0
F00003C0
F00003C0
F00003C0
F00003C0
ENDCHAR
STARTCHAR 03A1
ENCODING 929
SWIDTH 677 0
DWIDTH 32 0
BBX 25 34 4 0
BITMAP
FFFFE000
FFFFF800
FFFFFC00
FFFFFE00
F8007F00
F8001F00
F8000F80
F8000F80
F8000F80
F8000780
F8000780
F8000F80
F8000F80
F8000F80
F8001F00
F8007F00
FFFFFE00
FFFFFC00
FFFFF800
FFFFC000
F8000000
F8000000
F8000000
F8000000
F8000000
F8000000
F8000000
F8000000
F8000000
F8000000
F8000000
F8000000
F8000000
F8000000
ENDCHAR
STARTCHAR 03A3
ENCODING 931
SWIDTH 614 0
DWIDTH 29 0
BBX 25 34 2 0
BITMAP
FFFFFF00
FFFFFF00
FFFFFF00
FFFFFF00
7E000000
3F000000
1F800000
0FC00000
07E00000
03F00000
01F80000
00FC0000
007E0000
003F0000
001F8000
000FC000
0007E000
0007C000
000F8000
001F0000
003E0000
007C0000
00F80000
01F00000
03E00000
07C00000
0F800000
1F000000
3E000000
7C000000
FFFFFF80
FFFFFF80
FFFFFF80
FFFFFF80
ENDCHAR
STARTCHAR 03A4
ENCODING 932
SWIDTH 614 0
DWIDTH 29 0
BBX 27 34 1 0
BITMAP
FFFFFFE0
FFFFFFE0
FFFFFFE0
FFFFFFE0
001F0000
001F0000
001F0000
001F0000
001F0000
001F0000
001F0000
001F0000
001F0000
001F0000
001F0000
001F0000
001F0000
001F0000
001F0000
001F0000
001F0000
001F0000
001F0000
001F0000
001F0000
001F0000
001F0000
001F0000
001F0000
001F0000
001F0000
001F0000
001F0000
001F0000
ENDCHAR
STARTCHAR 03A5
ENCODING 933
SWIDTH 677 0
DWIDTH 32 0
BBX 30 34 1 0
BITMAP
F800007C
7C0000F8
7E0001F8
3E0001F0
3F0003E0
1F0003E0
0F8007C0
0FC007C0
07C00F80
03E01F00
03E01F00
01F03E00
00F83C00
00F87C00
007CF800
003EF800
003FF000
001FE000
001FE000
000FC000
00078000
00078000
00078000
00078000
00078000
00078000
00078000
00078000
00078000
00078000
00078000
00078000
00078000
00078000
ENDCHAR
STARTCHAR 03A6
ENCODING 934
SWIDTH 804 0
DWIDTH 38 0
BBX 30 36 4 -1
BITMAP
00078000
00078000
00078000
00078000
000FC000
00FFFC00
03FFFF00
0FFFFFC0
1FE7BFE0
3F0787F0
3E0781F0
7C0780F8
780780F8
F8078078
F807807C
F007807C
F007803C
F007803C
F007803C
F007803C
F007807C
F807807C
F8078078
780780F8
7C0780F8
3E0781F0
3F8787F0
1FE7BFE0
0FFFFFC0
03FFFF00
00FFFC00
000FC000
00078000
00078000
00078000
00078000
ENDCHAR
STARTCHAR 03A7
ENCODING 935
SWIDTH 677 0
DWIDTH 32 0
BBX 29 34 1 0
BITMAP
7C0001F8
3E0001F0
3F0003E0
1F0003E0
0F8007C0
07C00F80
07C00F80
03E01F00
01F03E00
01F03C00
00F87C00
007CF800
007CF000
003FF000
001FE000
001FC000
000FC000
000FC000
001FE000
003FF000
007DF000
007CF800
00F87C00
01F07C00
01F03E00
03E01F00
07C01F00
07C00F80
0F8007C0
1F0007E0
3F0003E0
3E0001F0
7C0001F8
FC0000F8
ENDCHAR
STARTCHAR 03A8
ENCODING 936
SWIDTH 825 0
DWIDTH 39 0
BBX 33 34 3 0
BITMAP
F801E00780
F801E00780
F801E00780
F801E00780
F801E00780
F801E00780
F801E00780
F801E00780
F801E00780
F801E00780
F801E00780
F801E00780
F801E00780
F801E00780
F801E00780
F801E00780
F801E00780
7801E00F80
7801E00F80
7C01E00F00
7C01E01F00
3E01E03F00
1F81E0FE00
1FF1E7FC00
0FFFFFF800
03FFFFE000
00FFFF8000
0003F00000
0001E00000
0001E00000
0001E00000
0001E00000
0001E00000
0001E00000
ENDCHAR
STARTCHAR 03A9
ENCODING 937
SWIDTH 741 0
DWIDTH 35 0
BBX 33 35 1 0
BITMAP
0007F80000
003FFF0000
00FFFFC000
01FFFFE000
07F807F000
0FE001F800
0F8000FC00
1F00007C00
1F00003E00
3E00003E00
3C00001F00
3C00001F00
7C00000F00
7C00000F00
7C00000F00
7800000F00
7800000F00
7800000F00
7C00000F00
7C00000F00
7C00000F00
3C00001F00
3C00001E00
3E00001E00
1E00003E00
1F00003C00
0F00007800
078000F800
03C001F000
01E003C000
00F8078000
FFFC1FFF80
FFFC1FFF80
FFFC1FFF80
FFFC1FFF80
ENDCHAR
STARTCHAR 03AA
ENCODING 938
SWIDTH 275 0
DWIDTH 13 0
BBX 13 43 0 0
BITMAP
F8F8
F8F8
F8F8
F8F8
F8F8
0000
0000
0000
0000
0780
0780
0780
0780
0780
0780
0780
0780
0780
0780
0780
0780
0780
0780
0780
0780
0780
0780
0780
0780
0780
0780
0780
0780
0780
0780
0780
0780
0780
0780
0780
0780
0780
0780
ENDCHAR
STARTCHAR 03AB
ENCODING 939
SWIDTH 677 0
DWIDTH 32 0
BBX 30 43 1 0
BITMAP
00F8F800
00F8F800
00F8F800
00F8F800
00F8F800
00000000
00000000
00000000
00000000
F800007C
7C0000F8
7E0001F8
3E0001F0
3F0003E0
1F0003E0
0F8007C0
0FC007C0
07C00F80
03E01F00
03E01F00
01F03E00
00F83C00
00F87C00
007CF800
003EF800
003FF000
001FE000
001FE000
000FC000
00078000
00078000
00078000
00078000
00078000
00078000
00078000
00078000
00078000
00078000
00078000
00078000
00078000
00078000
ENDCHAR
STARTCHAR 03AC
ENCODING 940
SWIDTH 571 0
DWIDTH 27 0
BBX 28 38 0 -1
BITMAP
00380000
00380000
00380000
00380000
00380000
00380000
00380000
00380000
00100000
00000000
00000000
00FC0000
03FF01F0
07FF81E0
0FFFC1E0
1F03E3C0
3E01F3C0
3C00F3C0
7C007F80
78007F80
78003F00
78003F00
F8001F00
F0001E00
F0001E00
F0001F00
F8003F00
78003F00
78007F80
78007F80
7C0077C0
3C00F3C0
3E01E3C0
1F03E1E0
0FFFC1E0
07FF81E0
03FF00F0
00FC0000
ENDCHAR
STARTCHAR 03AD
ENCODING 941
SWIDTH 444 0
DWIDTH 21 0
BBX 20 38 1 -1
BITMAP
00E000
00E000
00E000
00E000
00E000
00E000
00E000
00E000
004000
000000
000000
03F800
0FFE00
1FFF80
3FFFC0
7C07C0
7803E0
7801E0
7801E0
780000
7C0000
3E0000
1FF800
0FF800
1FF800
3FF800
7C0000
F80000
F00000
F000F0
F000F0
F001E0
F801E0
7C03C0
7FFFC0
3FFF80
0FFE00
03F800
ENDCHAR
STARTCHAR 03AE
ENCODING 942
SWIDTH 550 0
DWIDTH 26 0
BBX 20 47 3 -10
BITMAP
007800
007800
007800
007800
007800
007800
003000
003000
003000
000000
000000
003F00
F1FF80
F3FFE0
F7DFE0
FF03F0
FE01F0
FC00F0
F800F0
F800F0
F800F0
F000F0
F000F0
F000F0
F000F0
F000F0
F000F0
F000F0
F000F0
F000F0
F000F0
F000F0
F000F0
F000F0
F000F0
F000F0
F000F0
0000F0
0000F0
0000F0
0000F0
0000F0
0000F0
0000F0
0000F0
0000F0
0000F0
ENDCHAR
STARTCHAR 03AF
ENCODING 943
SWIDTH 211 0
DWIDTH 10 0
BBX 4 37 3 0
BITMAP
F0
F0
F0
F0
F0
70
70
60
60
00
00
00
F0
F0
F0
F0
F0
F0
F0
F0
F0
F0
F0
F0
F0
F0
F0
F0
F0
F0
F0
F0
F0
F0
F0
F0
F0
ENDCHAR
STARTCHAR 03B0
ENCODING 944
SWIDTH 550 0
DWIDTH 26 0
BBX 20 41 3 -1
BITMAP
00F000
00F000
00F000
00F000
00F000
00F000
006000
0F6F00
0F6F00
0F0F00
0F0F00
0F0F00
000000
000000
000000
F000F0
F000F0
F000F0
F000F0
F000F0
F000F0
F000F0
F000F0
F000F0
F000F0
F000F0
F000F0
F000F0
F000F0
F000F0
F000F0
F000F0
F000F0
F000F0
F801F0
F801E0
7C03E0
7FFFC0
3FFFC0
0FFF00
03FC00
ENDCHAR
STARTCHAR 03B1
ENCODING 945
SWIDTH 571 0
DWIDTH 27 0
BBX 26 27 2 -1
BITMAP
01F00000
07FC07C0
0FFF0780
1FFF0780
3E0F8F00
7C03CF00
7803CF00
F801FE00
F001FE00
F000FE00
F000FC00
F0007C00
F0007800
F0007800
F0007C00
F000FC00
F000FE00
F000FE00
F001FE00
F801EF00
7803CF00
7C07CF00
3E0F8780
3FFF0780
1FFE07C0
0FFC03C0
03F00000
ENDCHAR
STARTCHAR 03B2
ENCODING 946
SWIDTH 571 0
DWIDTH 27 0
BBX 21 45 4 -10
BITMAP
03F800
0FFE00
3FFF00
7FFF80
7C07C0
F803C0
F003E0
F001E0
F001E0
F001E0
F003E0
F003C0
F007C0
F00F80
F0FF00
F0FE00
F0FF80
F09FC0
F003E0
F001F0
F000F0
F000F0
F000F8
F00078
F00078
F00078
F00078
F000F8
F000F0
F001F0
F001F0
FC07E0
FFFFC0
FFFF80
F7FF00
F1FC00
F00000
F00000
F00000
F00000
F00000
F00000
F00000
F00000
F00000
ENDCHAR
STARTCHAR 03B3
ENCODING 947
SWIDTH 508 0
DWIDTH 24 0
BBX 22 35 1 -10
BITMAP
F0007C
F80078
780078
7800F8
7C00F0
3C00F0
3C01F0
1E01E0
1E01E0
1F03C0
0F03C0
0F07C0
0F8780
078780
07CF80
03CF00
03CF00
03FE00
01FE00
01FE00
00FC00
00FC00
00FC00
007800
007800
007800
007800
007800
007800
007800
007800
007800
007800
007800
007800
ENDCHAR
STARTCHAR 03B4
ENCODING 948
SWIDTH 550 0
DWIDTH 26 0
BBX 22 35 2 -1
BITMAP
1FFFF0
1FFFF0
1FFFF0
1FFFF0
0FC000
07E000
01F000
00F800
007E00
00FF00
07FF80
0FFFE0
1FEFF0
3F01F0
3C00F8
7C0078
78007C
78003C
F0003C
F0003C
F0003C
F0003C
F0003C
F0003C
F0003C
F8003C
F8003C
78007C
7C0078
3E00F8
3F01F0
1FFFE0
0FFFC0
07FF80
01FE00
ENDCHAR
STARTCHAR 03B5
ENCODING 949
SWIDTH 444 0
DWIDTH 21 0
BBX 20 27 1 -1
BITMAP
03F800
0FFE00
1FFF80
3FFFC0
7C07C0
7803E0
7801E0
7801E0
780000
7C0000
3E0000
1FF800
0FF800
1FF800
3FF800
7C0000
F80000
F00000
F000F0
F000F0
F001E0
F801E0
7C03C0
7FFFC0
3FFF80
0FFE00
03F800
ENDCHAR
STARTCHAR 03B6
ENCODING 950
SWIDTH 444 0
DWIDTH 21 0
BBX 19 45 2 -11
BITMAP
3FFFC0
3FFFC0
3FFFC0
0007C0
001F80
003E00
007C00
00F800
01E000
03E000
07C000
0F8000
0F0000
1E0000
3E0000
3C0000
7C0000
780000
780000
780000
F00000
F00000
F00000
F00000
F00000
F00000
F00000
F80000
780000
7C0000
7F8000
3FFF00
1FFFC0
07FFE0
000FE0
0001E0
0001E0
0001E0
0001E0
0001E0
0001E0
0003C0
0003C0
0003C0
000780
ENDCHAR
STARTCHAR 03B7
ENCODING 951
SWIDTH 550 0
DWIDTH 26 0
BBX 20 36 3 -10
BITMAP
003F00
F1FF80
F3FFE0
F7DFE0
FF03F0
FE01F0
FC00F0
F800F0
F800F0
F800F0
F000F0
F000F0
F000F0
F000F0
F000F0
F000F0
F000F0
F000F0
F000F0
F000F0
F000F0
F000F0
F000F0
F000F0
F000F0
F000F0
0000F0
0000F0
0000F0
0000F0
0000F0
0000F0
0000F0
0000F0
0000F0
0000F0
ENDCHAR
STARTCHAR 03B8
ENCODING 952
SWIDTH 550 0
DWIDTH 26 0
BBX 22 36 2 -1
BITMAP
00FE00
03FF80
0FFFC0
1FFFE0
1F03F0
3E00F0
3C00F8
780078
780078
780038
78003C
78003C
F0003C
F0003C
F0003C
FFFFFC
FFFFFC
FFFFFC
F0003C
F0003C
F0003C
F0003C
F0003C
70003C
78003C
78003C
780078
780078
7C0078
3C00F0
3E00F0
1F03F0
1FFFE0
0FFFC0
03FF80
00FC00
ENDCHAR
STARTCHAR 03B9
ENCODING 953
SWIDTH 211 0
DWIDTH 10 0
BBX 4 25 3 0
BITMAP
F0
F0
F0
F0
F0
F0
F0
F0
F0
F0
F0
F0
F0
F0
F0
F0
F0
F0
F0
F0
F0
F0
F0
F0
F0
ENDCHAR
STARTCHAR 03BA
ENCODING 954
SWIDTH 508 0
DWIDTH 24 0
BBX 20 25 3 0
BITMAP
F003E0
F007C0
F00F80
F01F00
F03E00
F07C00
F0F800
F1F000
F3E000
F7E000
FFF000
FFF000
FEF800
FC7C00
F87C00
F03E00
F01E00
F01F00
F00F80
F00F80
F007C0
F003E0
F003E0
F001F0
F001F0
ENDCHAR
STARTCHAR 03BB
ENCODING 955
SWIDTH 508 0
DWIDTH 24 0
BBX 21 34 1 0
BITMAP
078000
07C000
03C000
03C000
03E000
01E000
01E000
00F000
00F000
00F800
00F800
00F800
00FC00
01FC00
01FC00
01FE00
03DE00
03DF00
03CF00
078F00
078F80
078780
0F0780
0F07C0
1F03C0
1E03E0
1E01E0
3E01E0
3C01F0
3C00F0
7C00F0
7800F8
780078
F00078
ENDCHAR
STARTCHAR 03BC
ENCODING 956
SWIDTH 571 0
DWIDTH 27 0
BBX 19 35 4 -10
BITMAP
F001E0
F001E0
F001E0
F001E0
F001E0
F001E0
F001E0
F001E0
F001E0
F001E0
F001E0
F001E0
F001E0
F001E0
F001E0
F001E0
F001E0
F001E0
F001E0
F003E0
F807E0
F80FE0
FF7EE0
FFFCE0
FFF8E0
FFE000
F00000
F00000
F00000
F00000
F00000
F00000
F00000
F00000
F00000
ENDCHAR
STARTCHAR 03BD
ENCODING 957
SWIDTH 508 0
DWIDTH 24 0
BBX 22 25 1 0
BITMAP
F0007C
F80078
F80078
7800F8
7C00F0
7C00F0
3C01F0
3E01E0
3E01E0
1E03C0
1F03C0
0F03C0
0F0780
0F8780
078F80
078F00
07CF00
03DE00
03DE00
03FE00
01FC00
01FC00
01F800
00F800
00F800
ENDCHAR
STARTCHAR 03BE
ENCODING 958
SWIDTH 444 0
DWIDTH 21 0
BBX 21 45 1 -11
BITMAP
7FFFE0
7FFFE0
7FFFE0
03FFE0
078000
0F0000
1E0000
1E0000
3E0000
3E0000
3E0000
1E0000
1F0000
0FC000
07FE00
03FFC0
01FFC0
07FFC0
1FC000
3E0000
7C0000
780000
780000
780000
F80000
F80000
780000
780000
7C0000
7E0000
3FE000
1FFFC0
0FFFF0
03FFF0
0003F8
0000F8
000078
000078
000070
0000F0
0000F0
0000F0
0001E0
0001E0
0003E0
ENDCHAR
STARTCHAR 03BF
ENCODING 959
SWIDTH 550 0
DWIDTH 26 0
BBX 22 27 2 -1
BITMAP
00FE00
07FF80
0FFFC0
1FFFE0
3F03F0
3E00F8
7C00F8
780078
78007C
F0003C
F0003C
F0003C
F0003C
F0003C
F0003C
F0003C
F0003C
F8003C
78003C
780078
7C0078
3E00F8
3F03F0
1FFFE0
0FFFC0
07FF80
01FE00
ENDCHAR
STARTCHAR 03C0
ENCODING 960
SWIDTH 698 0
DWIDTH 33 0
BBX 26 25 3 0
BITMAP
FFFFFFC0
FFFFFFC0
FFFFFFC0
0F001FC0
0F001E00
0F001E00
0F001E00
0F001E00
0F001E00
0F001E00
0F001E00
0F001E00
0F001E00
0F001E00
0F001E00
0F001E00
0F001E00
0F001E00
0F001E00
0F001E00
0F001E00
0F001E00
0F001E00
0F001E00
0F001E00
ENDCHAR
STARTCHAR 03C1
ENCODING 961
SWIDTH 571 0
DWIDTH 27 0
BBX 22 36 3 -10
BITMAP
00FE00
07FF80
0FFFC0
1FFFE0
3F03F0
7C01F0
7C00F8
780078
F80078
F0007C
F0003C
F0003C
F0003C
F0003C
F0003C
F0003C
F0003C
F0007C
F80078
F80078
FC00F8
FC01F0
FF03F0
FFFFE0
F7FFC0
F3FF80
F0FC00
F00000
F00000
F00000
F00000
F00000
F00000
F00000
F00000
F00000
ENDCHAR
STARTCHAR 03C2
ENCODING 962
SWIDTH 487 0
DWIDTH 23 0
BBX 22 36 1 -10
BITMAP
00FE00
03FF80
07FFE0
1FFFF0
1F01F8
3E00F8
3C007C
78007C
78003C
780000
F00000
F00000
F00000
F00000
F80000
780000
780000
7C0000
3E0000
3F0000
1FC000
0FF800
07FE00
01FFC0
003FF0
0007F8
0001F8
000078
000078
000078
000078
0000F0
0000F0
0000F0
0001E0
0001E0
ENDCHAR
STARTCHAR 03C3
ENCODING 963
SWIDTH 614 0
DWIDTH 29 0
BBX 24 27 3 -1
BITMAP
00FE00
07FFFF
0FFFFF
1FFFFF
3F03FF
3C00F0
7C00F8
780078
F8007C
F0003C
F0003C
F0003C
F0003C
F0003C
F0003C
F0003C
F0003C
F0003C
F8007C
780078
7C00F8
3E00F8
3F03F0
1FFFE0
0FFFC0
07FF80
01FE00
ENDCHAR
STARTCHAR 03C4
ENCODING 964
SWIDTH 402 0
DWIDTH 19 0
BBX 21 25 -1 0
BITMAP
FFFFF8
FFFFF8
FFFFF8
00FFF8
00F000
00F000
00F000
00F000
00F000
00F000
00F000
00F000
00F000
00F000
00F000
00F000
00F000
00F000
00F000
00F000
00F000
00F000
00F000
00F000
00F000
ENDCHAR
STARTCHAR 03C5
ENCODING 965
SWIDTH 550 0
DWIDTH 26 0
BBX 20 26 3 -1
BITMAP
F000F0
F000F0
F000F0
F000F0
F000F0
F000F0
F000F0
F000F0
F000F0
F000F0
F000F0
F000F0
F000F0
F000F0
F000F0
F000F0
F000F0
F000F0
F000F0
F801F0
F801E0
7C03E0
7FFFC0
3FFFC0
0FFF00
03FC00
ENDCHAR
STARTCHAR 03C6
ENCODING 966
SWIDTH 656 0
DWIDTH 31 0
BBX 28 36 1 -10
BITMAP
000FC000
018FF800
078FFE00
0F8FFF00
1F8F1F80
1E0F07C0
3C0F03C0
7C0F03E0
7C0F01E0
780F01E0
780F01E0
F80F01F0
F80F01F0
F80F01F0
F80F01F0
780F01F0
780F01E0
780F01E0
7C0F03E0
3C0F03C0
3E0F07C0
1F0F0F80
1FCF3F80
0FFFFF00
03FFFC00
01FFF000
000F0000
000F0000
000F0000
000F0000
000F0000
000F0000
000F0000
000F0000
000F0000
000F0000
ENDCHAR
STARTCHAR 03C7
ENCODING 967
SWIDTH 529 0
DWIDTH 25 0
BBX 21 35 2 -10
BITMAP
F800F0
7800F0
7C01E0
7C01E0
3C03C0
3E03C0
1E0780
1F0780
0F0F00
0F8F00
079F00
07DE00
03FE00
03FC00
01FC00
01F800
00F800
00F800
01F800
01FC00
03FC00
03FE00
07DE00
079F00
0F8F00
0F0F80
1F0780
1E07C0
1E03C0
3C03E0
3C01E0
7801F0
7800F0
F000F8
F00078
ENDCHAR
STARTCHAR 03C8
ENCODING 968
SWIDTH 720 0
DWIDTH 34 0
BBX 26 35 4 -10
BITMAP
F01E03C0
F01E03C0
F01E03C0
F01E03C0
F01E03C0
F01E03C0
F01E03C0
F01E03C0
F01E03C0
F01E03C0
F01E03C0
F01E03C0
F01E03C0
F01E03C0
F01E03C0
F01E03C0
F01E03C0
F81E03C0
781E03C0
781E07C0
7C1E0F80
3F1E1F80
1FFFFF00
0FFFFE00
03FFF800
007FC000
001E0000
001E0000
001E0000
001E0000
001E0000
001E0000
001E0000
001E0000
001E0000
ENDCHAR
STARTCHAR 03C9
ENCODING 969
SWIDTH 783 0
DWIDTH 37 0
BBX 29 26 4 -1
BITMAP
07801F00
0F800F80
1F0007C0
1E0003C0
3E0003E0
3C0001E0
7C0F01F0
780F00F0
780F00F0
780F00F0
F80F00F0
F00F00F8
F00F0078
F00F0078
F00F0078
F00F0078
F00F00F8
F80F00F0
780F80F0
780F80F0
7C0F81F0
3C1FC3E0
3FFDFFE0
1FF9FFC0
0FF0FF80
03E03E00
ENDCHAR
STARTCHAR 03CA
ENCODING 970
SWIDTH 211 0
DWIDTH 10 0
BBX 12 34 -1 0
BITMAP
F9F0
F9F0
F9F0
F9F0
F9F0
0000
0000
0000
0000
0F00
0F00
0F00
0F00
0F00
0F00
0F00
0F00
0F00
0F00
0F00
0F00
0F00
0F00
0F00
0F00
0F00
0F00
0F00
0F00
0F00
0F00
0F00
0F00
0F00
ENDCHAR
STARTCHAR 03CB
ENCODING 971
SWIDTH 550 0
DWIDTH 26 0
BBX 20 35 3 -1
BITMAP
0F9F00
0F9F00
0F9F00
0F9F00
0F9F00
000000
000000
000000
000000
F000F0
F000F0
F000F0
F000F0
F000F0
F000F0
F000F0
F000F0
F000F0
F000F0
F000F0
F000F0
F000F0
F000F0
F000F0
F000F0
F000F0
F000F0
F000F0
F801F0
F801E0
7C03E0
7FFFC0
3FFFC0
0FFF00
03FC00
ENDCHAR
STARTCHAR 03CC
ENCODING 972
SWIDTH 550 0
DWIDTH 26 0
BBX 22 38 2 -1
BITMAP
007800
007800
007800
007800
007800
003800
003000
003000
003000
000000
000000
00FE00
07FF80
0FFFC0
1FFFE0
3F03F0
3E00F8
7C00F8
780078
78007C
F0003C
F0003C
F0003C
F0003C
F0003C
F0003C
F0003C
F0003C
F8003C
78003C
780078
7C0078
3E00F8
3F03F0
1FFFE0
0FFFC0
07FF80
01FE00
ENDCHAR
STARTCHAR 03CD
ENCODING 973
SWIDTH 550 0
DWIDTH 26 0
BBX 20 38 3 -1
BITMAP
00F000
00F000
00F000
00F000
00F000
00F000
006000
006000
006000
000000
000000
000000
F000F0
F000F0
F000F0
F000F0
F000F0
F000F0
F000F0
F000F0
F000F0
F000F0
F000F0
F000F0
F000F0
F000F0
F000F0
F000F0
F000F0
F000F0
F000F0
F801F0
F801E0
7C03E0
7FFFC0
3FFFC0
0FFF00
03FC00
ENDCHAR
STARTCHAR 03CE
ENCODING 974
SWIDTH 783 0
DWIDTH 37 0
BBX 29 38 4 -1
BITMAP
000F0000
000F0000
000F0000
000F0000
00070000
00070000
00070000
00070000
00020000
00000000
00000000
00000000
07801F00
0F800F80
1F0007C0
1E0003C0
3E0003E0
3C0001E0
7C0F01F0
780F00F0
780F00F0
780F00F0
F80F00F0
F00F00F8
F00F0078
F00F0078
F00F0078
F00F0078
F00F00F8
F80F00F0
780F80F0
780F80F0
7C0F81F0
3C1FC3E0
3FFDFFE0
1FF9FFC0
0FF0FF80
03E03E00
ENDCHAR
STARTCHAR 03D1
ENCODING 977
SWIDTH 550 0
DWIDTH 26 0
BBX 25 36 0 -1
BITMAP
00FF0000
03FFC000
07FFE000
07C3F000
0F80F800
0F007800
0F003C00
0E003C00
0E003C00
0F001E00
0F001E00
0F001E00
07801E00
07C01E00
03F01E00
01FF1E00
00FFFF80
003FFF80
0007FF80
00001E00
00001E00
FC001E00
FC001E00
FC001E00
3C001E00
3C001E00
3C001C00
1C003C00
1E003C00
1E007C00
1F007800
0F80F800
07FFF000
07FFE000
01FFC000
007F0000
ENDCHAR
STARTCHAR 03D5
ENCODING 981
SWIDTH 550 0
DWIDTH 26 0
BBX 25 41 1 -10
BITMAP
003C0000
003C0000
003C0000
003C0000
003C0000
003C0000
03FFC000
0FFFF000
1FFFF800
3F3CFC00
3E3C3E00
7C3C1E00
783C1F00
F83C0F00
F03C0F00
F03C0F80
F03C0780
F03C0780
F03C0780
F03C0780
F03C0780
F03C0780
F03C0F80
F03C0F00
783C0F00
783C1F00
7C3C3E00
3E3C7E00
1FFFFC00
0FFFF800
07FFE000
01FF8000
003C0000
003C0000
003C0000
003C0000
003C0000
003C0000
003C0000
003C0000
003C0000
ENDCHAR
STARTCHAR 03D6
ENCODING 982
SWIDTH 783 0
DWIDTH 37 0
BBX 30 26 3 -1
BITMAP
FFFFE000
FFFFFC00
FFFFFF00
07C0FF80
0F800FC0
1F0003E0
3E0001F0
3C0000F0
3C0000F8
78000078
78000078
7807807C
7807807C
7807803C
7807803C
7807803C
7807803C
7807C078
7807C078
3C07C078
3C0FC0F8
3E1FE0F0
1FFFFFE0
0FFCFFE0
07F87FC0
01F01F00
ENDCHAR
STARTCHAR 0400
ENCODING 1024
SWIDTH 677 0
DWIDTH 32 0
BBX 25 44 4 0
BITMAP
01F00000
00F80000
00780000
003C0000
001C0000
000E0000
00070000
00000000
00000000
00000000
FFFFFF00
FFFFFF00
FFFFFF00
FFFFFF00
F8000000
F8000000
F8000000
F8000000
F8000000
F8000000
F8000000
F8000000
F8000000
F8000000
F8000000
FFFFFE00
FFFFFE00
FFFFFE00
FFFFFE00
F8000000
F8000000
F8000000
F8000000
F8000000
F8000000
F8000000
F8000000
F8000000
F8000000
F8000000
FFFFFF80
FFFFFF80
FFFFFF80
FFFFFF80
ENDCHAR
STARTCHAR 0401
ENCODING 1025
SWIDTH 677 0
DWIDTH 32 0
BBX 25 43 4 0
BITMAP
03E7C000
03E7C000
03E7C000
03E7C000
03E7C000
00000000
00000000
00000000
00000000
FFFFFF00
FFFFFF00
FFFFFF00
FFFFFF00
F0000000
F0000000
F0000000
F0000000
F0000000
F0000000
F0000000
F0000000
F0000000
F0000000
F0000000
FFFFFE00
FFFFFE00
FFFFFE00
FFFFFE00
F0000000
F0000000
F0000000
F0000000
F0000000
F0000000
F0000000
F0000000
F0000000
F0000000
F0000000
FFFFFF80
FFFFFF80
FFFFFF80
FFFFFF80
ENDCHAR
STARTCHAR 0402
ENCODING 1026
SWIDTH 868 0
DWIDTH 41 0
BBX 36 34 1 0
BITMAP
FFFFFF0000
FFFFFF0000
FFFFFF0000
FFFFFF0000
001F000000
001F000000
001F000000
001F000000
001F000000
001F000000
001F000000
001F0FFC00
001F3FFF00
001F7FFF80
001FFFFFC0
001FE007E0
001FC003E0
001F8001F0
001F0001F0
001F0001F0
001F0001F0
001F0001F0
001F0001F0
001F0001F0
001F0001F0
001F0001F0
001F0001F0
001F0001F0
001F0001E0
001F0003E0
001F03FFE0
001F03FFC0
001F03FF80
001F03FE00
ENDCHAR
STARTCHAR 0403
ENCODING 1027
SWIDTH 550 0
DWIDTH 26 0
BBX 22 44 4 0
BITMAP
003E00
007C00
007800
00F000
01E000
01C000
038000
000000
000000
000000
FFFFFC
FFFFFC
FFFFFC
FFFFFC
F80000
F80000
F80000
F80000
F80000
F80000
F80000
F80000
F80000
F80000
F80000
F80000
F80000
F80000
F80000
F80000
F80000
F80000
F80000
F80000
F80000
F80000
F80000
F80000
F80000
F80000
F80000
F80000
F80000
F80000
ENDCHAR
STARTCHAR 0404
ENCODING 1028
SWIDTH 720 0
DWIDTH 34 0
BBX 32 36 1 -1
BITMAP
000FF800
007FFF00
01FFFFC0
03FFFFE0
07F00FF0
0FC003F8
1F8000FC
3F00007C
3E00003E
7C00003E
7C00001F
78000000
F8000000
F8000000
F0000000
F0000000
FFFFE000
FFFFE000
FFFFE000
FFFFE000
F0000000
F0000000
F8000000
F800000E
7800001F
7C00001F
7C00001E
3E00003E
3F00007C
1F8000FC
0FC001F8
07F00FF0
03FFFFE0
01FFFF80
007FFF00
000FF000
ENDCHAR
STARTCHAR 0405
ENCODING 1029
SWIDTH 677 0
DWIDTH 32 0
BBX 27 36 2 -1
BITMAP
007FC000
01FFF800
07FFFC00
0FFFFF00
1F803F00
3F000F80
3E000780
3C0007C0
7C0003C0
7C0003C0
7C0003C0
7C000000
3E000000
3F000000
3FE00000
1FFE0000
0FFFE000
03FFFC00
003FFF00
0007FF80
00007FC0
00000FC0
000007E0
000003E0
F00001E0
F80001E0
F80001E0
780001E0
7C0003E0
7C0003C0
3F0007C0
1FC01F80
0FFFFF00
07FFFE00
03FFFC00
007FE000
ENDCHAR
STARTCHAR 0406
ENCODING 1030
SWIDTH 275 0
DWIDTH 13 0
BBX 5 34 4 0
BITMAP
F8
F8
F8
F8
F8
F8
F8
F8
F8
F8
F8
F8
F8
F8
F8
F8
F8
F8
F8
F8
F8
F8
F8
F8
F8
F8
F8
F8
F8
F8
F8
F8
F8
F8
ENDCHAR
STARTCHAR 0407
ENCODING 1031
SWIDTH 275 0
DWIDTH 13 0
BBX 13 43 0 0
BITMAP
F8F8
F8F8
F8F8
F8F8
F8F8
0000
0000
0000
0000
0F80
0F80
0F80
0F80
0F80
0F80
0F80
0F80
0F80
0F80
0F80
0F80
0F80
0F80
0F80
0F80
0F80
0F80
0F80
0F80
0F80
0F80
0F80
0F80
0F80
0F80
0F80
0F80
0F80
0F80
0F80
0F80
0F80
0F80
ENDCHAR
STARTCHAR 0408
ENCODING 1032
SWIDTH 508 0
DWIDTH 24 0
BBX 19 35 1 -1
BITMAP
0001E0
0001E0
0001E0
0001E0
0001E0
0001E0
0001E0
0001E0
0001E0
0001E0
0001E0
0001E0
0001E0
0001E0
0001E0
0001E0
0001E0
0001E0
0001E0
0001E0
0001E0
0001E0
0001E0
F001E0
F001E0
F001E0
F003E0
F003E0
F803E0
F807C0
7E0FC0
7FFF80
3FFF00
1FFE00
03F800
ENDCHAR
STARTCHAR 0409
ENCODING 1033
SWIDTH 1058 0
DWIDTH 50 0
BBX 48 34 1 0
BITMAP
03FFFFF00000
03FFFFF00000
03FFFFF00000
03FFFFF00000
03C001F00000
03C001F00000
03C001F00000
03C001F00000
03C001F00000
03C001F00000
03C001F00000
03C001F00000
03C001F00000
03C001F00000
03C001FFFF00
03C001FFFFE0
03C001FFFFF8
03C001FFFFFC
03C001F000FC
03C001F0007E
03C001F0003E
03C001F0001F
03C001F0001F
03C001F0001F
03C001F0001F
07C001F0001F
07C001F0001F
078001F0003E
0F8001F0003E
1F0001F000FC
FF0001FFFFFC
FE0001FFFFF8
FC0001FFFFF0
F00001FFFF80
ENDCHAR
STARTCHAR 040A
ENCODING 1034
SWIDTH 1016 0
DWIDTH 48 0
BBX 44 34 3 0
BITMAP
F0003C000000
F0003C000000
F0003C000000
F0003C000000
F0003C000000
F0003C000000
F0003C000000
F0003C000000
F0003C000000
F0003C000000
F0003C000000
F0003C000000
F0003C000000
F0003C000000
FFFFFFFFF000
FFFFFFFFFE00
FFFFFFFFFF00
FFFFFFFFFF80
F0003C001FC0
F0003C0007E0
F0003C0003E0
F0003C0001E0
F0003C0001F0
F0003C0001F0
F0003C0001F0
F0003C0001F0
F0003C0001E0
F0003C0003E0
F0003C0007E0
F0003C000FC0
F0003FFFFFC0
F0003FFFFF80
F0003FFFFE00
F0003FFFF800
ENDCHAR
STARTCHAR 040B
ENCODING 1035
SWIDTH 847 0
DWIDTH 40 0
BBX 34 34 1 0
BITMAP
FFFFFF8000
FFFFFF8000
FFFFFF8000
FFFFFF8000
001E000000
001E000000
001E000000
001E000000
001E000000
001E000000
001E000000
001E07F000
001E3FFE00
001E7FFF00
001EFFFF80
001FF01F80
001F8007C0
001F0003C0
001F0003C0
001E0003C0
001E0003C0
001E0003C0
001E0003C0
001E0003C0
001E0003C0
001E0003C0
001E0003C0
001E0003C0
001E0003C0
001E0003C0
001E0003C0
001E0003C0
001E0003C0
001E0003C0
ENDCHAR
STARTCHAR 040C
ENCODING 1036
SWIDTH 592 0
DWIDTH 28 0
BBX 23 44 3 0
BITMAP
000F80
001F00
003E00
003C00
007800
00F000
00E000
000000
000000
000000
F001F0
F001F0
F003E0
F003E0
F007C0
F00F80
F00F80
F01F00
F01F00
F03E00
F07C00
F07C00
F0F800
F0F800
FFF000
FFE000
FFE000
FFF000
F0F800
F0F800
F07C00
F03E00
F03E00
F01F00
F00F80
F00F80
F007C0
F003E0
F003E0
F001F0
F000F8
F000F8
F0007C
F0003E
ENDCHAR
STARTCHAR 040D
ENCODING 1037
SWIDTH 720 0
DWIDTH 34 0
BBX 26 44 4 0
BITMAP
00F80000
00780000
003C0000
001E0000
000E0000
00070000
00038000
00000000
00000000
00000000
F00003C0
F00003C0
F00003C0
F00003C0
F00007C0
F0000FC0
F0000FC0
F0001FC0
F0003FC0
F0007FC0
F000FFC0
F001FBC0
F003F3C0
F007E3C0
F00FC3C0
F01F83C0
F01F03C0
F03E03C0
F07C03C0
F0FC03C0
F1F803C0
F3F003C0
F7E003C0
FFC003C0
FF8003C0
FF0003C0
FE0003C0
FC0003C0
FC0003C0
F80003C0
F00003C0
F00003C0
F00003C0
F00003C0
ENDCHAR
STARTCHAR 040E
ENCODING 1038
SWIDTH 635 0
DWIDTH 30 0
BBX 28 43 1 0
BITMAP
01C03800
01C03800
01F0F000
00FFF000
007FE000
001F8000
00000000
00000000
00000000
F80001F0
7C0001F0
7C0003F0
3E0003E0
3E0003E0
3F0007C0
1F0007C0
1F000F80
0F800F80
0F800F00
07C01F00
07C01F00
03E03E00
03E03E00
01F07C00
01F07C00
00F07800
00F8F800
0078F000
007DF000
007DF000
003FE000
003FE000
001FC000
001FC000
000F8000
000F8000
000F8000
000F0000
001F0000
03FE0000
03FE0000
03FC0000
03F00000
ENDCHAR
STARTCHAR 040F
ENCODING 1039
SWIDTH 720 0
DWIDTH 34 0
BBX 26 42 4 -8
BITMAP
F00003C0
F00003C0
F00003C0
F00003C0
F00003C0
F00003C0
F00003C0
F00003C0
F00003C0
F00003C0
F00003C0
F00003C0
F00003C0
F00003C0
F00003C0
F00003C0
F00003C0
F00003C0
F00003C0
F00003C0
F00003C0
F00003C0
F00003C0
F00003C0
F00003C0
F00003C0
F00003C0
F00003C0
F00003C0
F00003C0
FFFFFFC0
FFFFFFC0
FFFFFFC0
FFFFFFC0
001E0000
001E0000
001E0000
001E0000
001E0000
001E0000
001E0000
001E0000
ENDCHAR
STARTCHAR 0410
ENCODING 1040
SWIDTH 677 0
DWIDTH 32 0
BBX 30 34 1 0
BITMAP
000FC000
001FC000
001FE000
001FE000
003FE000
003FF000
003DF000
007CF000
0078F800
0078F800
00F87800
00F07C00
00F03C00
01F03E00
01E03E00
03E01E00
03C01F00
03C01F00
07C00F00
07800F80
07FFFF80
0FFFFF80
0FFFFFC0
0FFFFFC0
1F0003C0
1E0003E0
3E0003E0
3E0001E0
3C0001F0
7C0001F0
7C0000F8
780000F8
F80000F8
F800007C
ENDCHAR
STARTCHAR 0411
ENCODING 1041
SWIDTH 656 0
DWIDTH 31 0
BBX 25 34 4 0
BITMAP
FFFFFC00
FFFFFC00
FFFFFC00
FFFFFC00
F0000000
F0000000
F0000000
F0000000
F0000000
F0000000
F0000000
F0000000
F0000000
F0000000
FFFFC000
FFFFF800
FFFFFC00
FFFFFE00
F0007F00
F0001F00
F0000F80
F0000F80
F0000780
F0000780
F0000780
F0000780
F0000F80
F0000F80
F0001F00
F0003F00
FFFFFE00
FFFFFC00
FFFFF800
FFFFC000
ENDCHAR
STARTCHAR 0412
ENCODING 1042
SWIDTH 677 0
DWIDTH 32 0
BBX 26 34 4 0
BITMAP
FFFFC000
FFFFF000
FFFFF800
FFFFFC00
F0007E00
F0003E00
F0001F00
F0001F00
F0000F00
F0000F00
F0000F00
F0001F00
F0001E00
F0003E00
F000FC00
FFFFF800
FFFFF000
FFFFFC00
FFFFFE00
F0003F00
F0000F80
F0000F80
F0000780
F00007C0
F00007C0
F0000780
F0000780
F0000F80
F0000F80
F0003F00
FFFFFE00
FFFFFC00
FFFFF800
FFFFE000
ENDCHAR
STARTCHAR 0413
ENCODING 1043
SWIDTH 550 0
DWIDTH 26 0
BBX 21 34 4 0
BITMAP
FFFFF8
FFFFF8
FFFFF8
FFFFF8
F00000
F00000
F00000
F00000
F00000
F00000
F00000
F00000
F00000
F00000
F00000
F00000
F00000
F00000
F00000
F00000
F00000
F00000
F00000
F00000
F00000
F00000
F00000
F00000
F00000
F00000
F00000
F00000
F00000
F00000
ENDCHAR
STARTCHAR 0414
ENCODING 1044
SWIDTH 677 0
DWIDTH 32 0
BBX 31 42 0 -8
BITMAP
007FFFF8
007FFFF8
007FFFF8
007FFFF8
007800F8
007800F8
007800F8
007800F8
007800F8
007800F8
007800F8
007800F8
007800F8
007800F8
007800F8
007800F8
007800F8
007800F8
007800F8
007800F8
007800F8
007800F8
00F800F8
00F000F8
00F000F8
01F000F8
01E000F8
03E000F8
07C000F8
1F8000F8
FFFFFFFE
FFFFFFFE
FFFFFFFE
FFFFFFFE
F800001E
F800001E
F800001E
F800001E
F800001E
F800001E
F800001E
F800001E
ENDCHAR
STARTCHAR 0415
ENCODING 1045
SWIDTH 677 0
DWIDTH 32 0
BBX 25 34 4 0
BITMAP
FFFFFF00
FFFFFF00
FFFFFF00
FFFFFF00
F0000000
F0000000
F0000000
F0000000
F0000000
F0000000
F0000000
F0000000
F0000000
F0000000
F0000000
FFFFFE00
FFFFFE00
FFFFFE00
FFFFFE00
F0000000
F0000000
F0000000
F0000000
F0000000
F0000000
F0000000
F0000000
F0000000
F0000000
F0000000
FFFFFF80
FFFFFF80
FFFFFF80
FFFFFF80
ENDCHAR
STARTCHAR 0416
ENCODING 1046
SWIDTH 931 0
DWIDTH 44 0
BBX 44 34 0 0
BITMAP
3E000F0007C0
3E000F000F80
1F000F000F00
0F800F001F00
0F800F003E00
07C00F003E00
07C00F007C00
03E00F007800
01F00F00F800
01F00F01F000
00F80F01F000
00780F03E000
007C0F07C000
003E0F07C000
003FFFFF8000
001FFFFF8000
001FFFFF8000
003FFFFF8000
003E0F07C000
007C0F03E000
00F80F03E000
00F80F01F000
01F00F00F800
03E00F00F800
03E00F007C00
07C00F003E00
0F800F003E00
0F800F001F00
1F000F000F80
3E000F000F80
3E000F0007C0
7C000F0003E0
F8000F0003E0
F8000F0001F0
ENDCHAR
STARTCHAR 0417
ENCODING 1047
SWIDTH 614 0
DWIDTH 29 0
BBX 23 36 3 -1
BITMAP
00FE00
03FF80
0FFFE0
1FFFF0
3F03F0
3E00F8
7C00F8
7C0078
78007C
78007C
78007C
000078
000078
0000F8
0003F0
007FE0
007FC0
007FC0
007FF0
0003F8
0000FC
00007C
00003C
00003E
F0003E
F0003E
F0003E
F0003C
F8003C
F8007C
7C00F8
3F01F8
3FFFF0
1FFFE0
07FFC0
01FE00
ENDCHAR
STARTCHAR 0418
ENCODING 1048
SWIDTH 720 0
DWIDTH 34 0
BBX 26 34 4 0
BITMAP
F00003C0
F00003C0
F00003C0
F00003C0
F00007C0
F0000FC0
F0000FC0
F0001FC0
F0003FC0
F0007FC0
F000FFC0
F001FBC0
F003F3C0
F007E3C0
F00FC3C0
F01F83C0
F01F03C0
F03E03C0
F07C03C0
F0FC03C0
F1F803C0
F3F003C0
F7E003C0
FFC003C0
FF8003C0
FF0003C0
FE0003C0
FC0003C0
FC0003C0
F80003C0
F00003C0
F00003C0
F00003C0
F00003C0
ENDCHAR
STARTCHAR 0419
ENCODING 1049
SWIDTH 720 0
DWIDTH 34 0
BBX 26 43 4 0
BITMAP
03807000
03807000
03E1E000
01FFE000
00FFC000
003F0000
00000000
00000000
00000000
F00003C0
F00003C0
F00003C0
F00003C0
F00007C0
F0000FC0
F0001FC0
F0001FC0
F0003FC0
F0007FC0
F000FBC0
F001FBC0
F003F3C0
F007E3C0
F00FC3C0
F01F83C0
F01F03C0
F03E03C0
F07C03C0
F0F803C0
F1F803C0
F3F003C0
F7E003C0
FFC003C0
FF8003C0
FF0003C0
FE0003C0
FC0003C0
F80003C0
F80003C0
F00003C0
F00003C0
F00003C0
F00003C0
ENDCHAR
STARTCHAR 041A
ENCODING 1050
SWIDTH 592 0
DWIDTH 28 0
BBX 23 34 3 0
BITMAP
F000F0
F001F0
F003E0
F003E0
F007C0
F00780
F00F80
F01F00
F01F00
F03E00
F03C00
F07C00
F0F800
F0F800
FFF000
FFE000
FFE000
FFF000
F0F800
F07800
F07C00
F03E00
F03E00
F01F00
F00F80
F00F80
F007C0
F003E0
F003E0
F001F0
F000F8
F000F8
F0007C
F0003E
ENDCHAR
STARTCHAR 041B
ENCODING 1051
SWIDTH 656 0
DWIDTH 31 0
BBX 29 34 0 0
BITMAP
03FFFFF8
03FFFFF8
03FFFFF8
03FFFFF8
03C000F8
03C000F8
03C000F8
03C000F8
03C000F8
03C000F8
03C000F8
03C000F8
03C000F8
03C000F8
03C000F8
03C000F8
03C000F8
03C000F8
03C000F8
03C000F8
03C000F8
03C000F8
03C000F8
03C000F8
03C000F8
07C000F8
078000F8
0F8000F8
0F8000F8
3F0000F8
FE0000F8
FE0000F8
FC0000F8
F00000F8
ENDCHAR
STARTCHAR 041C
ENCODING 1052
SWIDTH 825 0
DWIDTH 39 0
BBX 33 34 3 0
BITMAP
FE00001F80
FE00003F80
FE00003F80
FF00003F80
FF00007F80
FF00007F80
FF80007780
FF8000F780
FBC000F780
FBC000E780
FBC001E780
F9E001E780
F9E001C780
F9E003C780
F8F003C780
F8F0038780
F8F0078780
F878078780
F878070780
F8780F0780
F83C0F0780
F83C0E0780
F83C1E0780
F81E1E0780
F81E1C0780
F81E3C0780
F80F3C0780
F80F780780
F807780780
F807F80780
F807F00780
F803F00780
F803F00780
F803E00780
ENDCHAR
STARTCHAR 041D
ENCODING 1053
SWIDTH 720 0
DWIDTH 34 0
BBX 26 34 4 0
BITMAP
F00003C0
F00003C0
F00003C0
F00003C0
F00003C0
F00003C0
F00003C0
F00003C0
F00003C0
F00003C0
F00003C0
F00003C0
F00003C0
F00003C0
F00003C0
FFFFFFC0
FFFFFFC0
FFFFFFC0
FFFFFFC0
F00003C0
F00003C0
F00003C0
F00003C0
F00003C0
F00003C0
F00003C0
F00003C0
F00003C0
F00003C0
F00003C0
F00003C0
F00003C0
F00003C0
F00003C0
ENDCHAR
STARTCHAR 041E
ENCODING 1054
SWIDTH 783 0
DWIDTH 37 0
BBX 33 36 2 -1
BITMAP
000FF80000
007FFF0000
01FFFFC000
03FFFFE000
07F00FF000
0FC001F800
1F8000FC00
3F00007C00
3E00003E00
7C00003E00
7C00001F00
7800001F00
F800000F00
F800000F80
F000000F80
F000000F80
F000000780
F000000780
F000000780
F000000780
F000000F80
F000000F80
F800000F80
F800000F00
7800000F00
7C00001F00
7C00001E00
3E00003E00
3F00007C00
1F8000FC00
0FC001F800
07F00FF000
03FFFFE000
01FFFF8000
007FFF0000
000FF80000
ENDCHAR
STARTCHAR 041F
ENCODING 1055
SWIDTH 720 0
DWIDTH 34 0
BBX 26 34 4 0
BITMAP
FFFFFFC0
FFFFFFC0
FFFFFFC0
FFFFFFC0
F00003C0
F00003C0
F00003C0
F00003C0
F00003C0
F00003C0
F00003C0
F00003C0
F00003C0
F00003C0
F00003C0
F00003C0
F00003C0
F00003C0
F00003C0
F00003C0
F00003C0
F00003C0
F00003C0
F00003C0
F00003C0
F00003C0
F00003C0
F00003C0
F00003C0
F00003C0
F00003C0
F00003C0
F00003C0
F00003C0
ENDCHAR
STARTCHAR 0420
ENCODING 1056
SWIDTH 677 0
DWIDTH 32 0
BBX 25 34 4 0
BITMAP
FFFFE000
FFFFF800
FFFFFC00
FFFFFE00
F8007F00
F8001F00
F8000F80
F8000F80
F8000F80
F8000780
F8000780
F8000F80
F8000F80
F8000F80
F8001F00
F8007F00
FFFFFE00
FFFFFC00
FFFFF800
FFFFC000
F8000000
F8000000
F8000000
F8000000
F8000000
F8000000
F8000000
F8000000
F8000000
F8000000
F8000000
F8000000
F8000000
F8000000
ENDCHAR
STARTCHAR 0421
ENCODING 1057
SWIDTH 720 0
DWIDTH 34 0
BBX 30 36 2 -1
BITMAP
000FF000
007FFE00
01FFFF80
03FFFFC0
07F00FE0
0FC003F0
1F8001F0
1F0000F8
3E0000F8
3C00007C
7C00007C
7800007C
78000000
F8000000
F8000000
F8000000
F8000000
F0000000
F0000000
F8000000
F8000000
F8000000
F8000000
7800003C
7800007C
7C00007C
3C00007C
3E0000F8
3F0000F8
1F8001F0
0FC003F0
07F00FE0
03FFFFC0
01FFFF00
007FFE00
001FF000
ENDCHAR
STARTCHAR 0422
ENCODING 1058
SWIDTH 614 0
DWIDTH 29 0
BBX 27 34 1 0
BITMAP
FFFFFFE0
FFFFFFE0
FFFFFFE0
FFFFFFE0
001F0000
001F0000
001F0000
001F0000
001F0000
001F0000
001F0000
001F0000
001F0000
001F0000
001F0000
001F0000
001F0000
001F0000
001F0000
001F0000
001F0000
001F0000
001F0000
001F0000
001F0000
001F0000
001F0000
001F0000
001F0000
001F0000
001F0000
001F0000
001F0000
001F0000
ENDCHAR
STARTCHAR 0423
ENCODING 1059
SWIDTH 635 0
DWIDTH 30 0
BBX 28 34 1 0
BITMAP
F80001F0
7C0001F0
7C0003F0
3E0003E0
3E0003E0
3F0007C0
1F0007C0
1F000F80
0F800F80
0F800F00
07C01F00
07C01F00
03E03E00
03E03E00
01F07C00
01F07C00
00F07800
00F8F800
0078F000
007DF000
007DF000
003FE000
003FE000
001FC000
001FC000
000F8000
000F8000
000F8000
000F0000
001F0000
03FE0000
03FE0000
03FC0000
03F00000
ENDCHAR
STARTCHAR 0424
ENCODING 1060
SWIDTH 762 0
DWIDTH 36 0
BBX 34 36 1 -1
BITMAP
0001E00000
0001E00000
0001E00000
0001E00000
0003F00000
007FFF8000
01FFFFE000
07FFFFF800
0FF9E7FC00
1FC1E0FE00
1F01E03F00
3E01E01F00
7C01E00F80
7C01E00F80
7801E00780
7801E00780
F801E007C0
F801E007C0
F801E007C0
F801E007C0
7801E00780
7801E00780
7C01E00F80
7C01E00F80
3E01E01F00
3F01E03F00
1FC1E0FE00
0FF9E7FC00
07FFFFF800
01FFFFE000
007FFF8000
0003F00000
0001E00000
0001E00000
0001E00000
0001E00000
ENDCHAR
STARTCHAR 0425
ENCODING 1061
SWIDTH 677 0
DWIDTH 32 0
BBX 29 34 1 0
BITMAP
7C0001F8
3E0001F0
3F0003E0
1F0007E0
0F8007C0
0FC00F80
07C01F00
03E01F00
01F03E00
01F07C00
00F87C00
007CF800
007DF000
003FF000
001FE000
001FC000
000F8000
001FC000
001FE000
003FE000
007DF000
007CF800
00F8FC00
01F07C00
01F03E00
03E03F00
07C01F00
0FC00F80
0F800FC0
1F0007C0
3F0003E0
3E0003F0
7C0001F8
FC0000F8
ENDCHAR
STARTCHAR 0426
ENCODING 1062
SWIDTH 741 0
DWIDTH 35 0
BBX 29 42 4 -8
BITMAP
F00003C0
F00003C0
F00003C0
F00003C0
F00003C0
F00003C0
F00003C0
F00003C0
F00003C0
F00003C0
F00003C0
F00003C0
F00003C0
F00003C0
F00003C0
F00003C0
F00003C0
F00003C0
F00003C0
F00003C0
F00003C0
F00003C0
F00003C0
F00003C0
F00003C0
F00003C0
F00003C0
F00003C0
F00003C0
F00003C0
FFFFFFF8
FFFFFFF8
FFFFFFF8
FFFFFFF8
00000078
00000078
00000078
00000078
00000078
00000078
00000078
00000078
ENDCHAR
STARTCHAR 0427
ENCODING 1063
SWIDTH 677 0
DWIDTH 32 0
BBX 26 34 2 0
BITMAP
F80003C0
F80003C0
F80003C0
F80003C0
F80003C0
F80003C0
F80003C0
F80003C0
F80003C0
F80003C0
F80003C0
F80003C0
F80003C0
F80003C0
F80003C0
F80003C0
7C0003C0
7F001FC0
3FFFFFC0
1FFFFFC0
07FFFFC0
00FFC3C0
000003C0
000003C0
000003C0
000003C0
000003C0
000003C0
000003C0
000003C0
000003C0
000003C0
000003C0
000003C0
ENDCHAR
STARTCHAR 0428
ENCODING 1064
SWIDTH 910 0
DWIDTH 43 0
BBX 39 34 2 0
BITMAP
F8007C003E
F8007C003E
F8007C003E
F8007C003E
F8007C003E
F8007C003E
F8007C003E
F8007C003E
F8007C003E
F8007C003E
F8007C003E
F8007C003E
F8007C003E
F8007C003E
F8007C003E
F8007C003E
F8007C003E
F8007C003E
F8007C003E
F8007C003E
F8007C003E
F8007C003E
F8007C003E
F8007C003E
F8007C003E
F8007C003E
F8007C003E
F8007C003E
F8007C003E
F8007C003E
FFFFFFFFFE
FFFFFFFFFE
FFFFFFFFFE
FFFFFFFFFE
ENDCHAR
STARTCHAR 0429
ENCODING 1065
SWIDTH 931 0
DWIDTH 44 0
BBX 41 42 3 -8
BITMAP
F00078003E00
F00078003E00
F00078003E00
F00078003E00
F00078003E00
F00078003E00
F00078003E00
F00078003E00
F00078003E00
F00078003E00
F00078003E00
F00078003E00
F00078003E00
F00078003E00
F00078003E00
F00078003E00
F00078003E00
F00078003E00
F00078003E00
F00078003E00
F00078003E00
F00078003E00
F00078003E00
F00078003E00
F00078003E00
F00078003E00
F00078003E00
F00078003E00
F00078003E00
F00078003E00
FFFFFFFFFF80
FFFFFFFFFF80
FFFFFFFFFF80
FFFFFFFFFF80
000000000780
000000000780
000000000780
000000000780
000000000780
000000000780
000000000780
000000000780
ENDCHAR
STARTCHAR 042A
ENCODING 1066
SWIDTH 783 0
DWIDTH 37 0
BBX 37 34 -1 0
BITMAP
FFFF800000
FFFF800000
FFFF800000
FFFF800000
0007800000
0007800000
0007800000
0007800000
0007800000
0007800000
0007800000
0007800000
0007800000
0007800000
0007FFF800
0007FFFF80
0007FFFFC0
0007FFFFE0
00078007F0
00078001F0
00078000F8
00078000F8
00078000F8
0007800078
0007800078
00078000F8
00078000F8
00078000F8
00078001F0
00078007F0
0007FFFFE0
0007FFFFC0
0007FFFF80
0007FFFC00
ENDCHAR
STARTCHAR 042B
ENCODING 1067
SWIDTH 889 0
DWIDTH 42 0
BBX 34 34 4 0
BITMAP
F0000007C0
F0000007C0
F0000007C0
F0000007C0
F0000007C0
F0000007C0
F0000007C0
F0000007C0
F0000007C0
F0000007C0
F0000007C0
F0000007C0
F0000007C0
F0000007C0
FFFFC007C0
FFFFF807C0
FFFFFE07C0
FFFFFF07C0
F0007F07C0
F0001F87C0
F0000F87C0
F0000787C0
F00007C7C0
F00007C7C0
F00007C7C0
F00007C7C0
F00007C7C0
F0000F87C0
F0001F87C0
F0003F07C0
FFFFFF07C0
FFFFFE07C0
FFFFF807C0
FFFFE007C0
ENDCHAR
STARTCHAR 042C
ENCODING 1068
SWIDTH 656 0
DWIDTH 31 0
BBX 25 34 4 0
BITMAP
F0000000
F0000000
F0000000
F0000000
F0000000
F0000000
F0000000
F0000000
F0000000
F0000000
F0000000
F0000000
F0000000
F0000000
FFFFC000
FFFFF800
FFFFFC00
FFFFFE00
F0007F00
F0001F80
F0000F80
F0000F80
F0000780
F0000780
F0000780
F0000780
F0000780
F0000F80
F0001F80
F0003F00
FFFFFE00
FFFFFC00
FFFFF800
FFFFE000
ENDCHAR
STARTCHAR 042D
ENCODING 1069
SWIDTH 720 0
DWIDTH 34 0
BBX 32 36 1 -1
BITMAP
001FF000
00FFFE00
01FFFF80
07FFFFC0
0FF01FE0
1F8003F0
1F0001F8
3E0000FC
7C00007C
7C00003E
F800003E
0000001E
0000001F
0000001F
0000000F
0000000F
0007FFFF
0007FFFF
0007FFFF
0007FFFF
0000000F
0000000F
0000001F
7000001F
F800001E
F800003E
7800003E
7C00007C
3E0000FC
3F0001F8
1F8003F0
0FF00FE0
07FFFFC0
03FFFF80
00FFFE00
001FF000
ENDCHAR
STARTCHAR 042E
ENCODING 1070
SWIDTH 1016 0
DWIDTH 48 0
BBX 43 36 3 -1
BITMAP
000000FF0000
F80007FFC000
F8001FFFF000
F8003FFFF800
F8007F01FC00
F800FC007E00
F801F8003F00
F803F0001F00
F803E0000F80
F807C0000780
F807C00007C0
F807800007C0
F80F800003C0
F80F800003C0
F80F000003E0
FFFF000003E0
FFFF000003E0
FFFF000003E0
FFFF000003E0
F80F000003E0
F80F000003E0
F80F800003C0
F80F800003C0
F807800003C0
F807800007C0
F807C00007C0
F803C0000780
F803E0000F80
F803F0001F00
F801F8003F00
F800FC007E00
F8007F01FC00
F8003FFFF800
F8001FFFF000
F80007FFC000
000000FF0000
ENDCHAR
STARTCHAR 042F
ENCODING 1071
SWIDTH 720 0
DWIDTH 34 0
BBX 27 34 3 0
BITMAP
01FFFFE0
07FFFFE0
1FFFFFE0
3FFFFFE0
3F0003E0
7E0003E0
7C0003E0
780003E0
780003E0
780003E0
780003E0
780003E0
7C0003E0
3E0003E0
1F0003E0
0FFFFFE0
07FFFFE0
07FFFFE0
1FFFFFE0
1F0003E0
3E0003E0
3C0003E0
3C0003E0
3C0003E0
7C0003E0
7C0003E0
7C0003E0
7C0003E0
7C0003E0
7C0003E0
7C0003E0
780003E0
780003E0
F80003E0
ENDCHAR
STARTCHAR 0430
ENCODING 1072
SWIDTH 550 0
DWIDTH 26 0
BBX 23 27 2 -1
BITMAP
01FE00
07FFC0
1FFFE0
3FFFF0
3E01F0
7C00F0
7800F0
7800F0
0000F0
0000F0
0001F0
007FF0
07FFF0
1FFFF0
3FF8F0
7E00F0
7800F0
F800F0
F000F0
F000F0
F000F0
F801F0
F807F0
7FBFF8
3FFE7E
1FFC7E
07E03E
ENDCHAR
STARTCHAR 0431
ENCODING 1073
SWIDTH 571 0
DWIDTH 27 0
BBX 23 39 2 -1
BITMAP
0001E0
0001E0
0001E0
0003C0
0003C0
000FC0
00FF80
03FF00
07FE00
0FE000
1F0000
1E0000
3C7E00
39FF80
7FFFE0
7FFFF0
7F01F8
7E00F8
7C007C
7C007C
78003C
F8003C
F8003E
F8001E
F8001E
F0001E
F8001E
F8001E
78003E
78003C
78003C
7C003C
3C007C
3E00F8
1F01F0
1FFFF0
0FFFE0
03FF80
00FE00
ENDCHAR
STARTCHAR 0432
ENCODING 1074
SWIDTH 529 0
DWIDTH 25 0
BBX 21 25 3 0
BITMAP
FFFF00
FFFF80
FFFFC0
F00FE0
F001F0
F001F0
F000F0
F000F0
F001E0
F003E0
FFFFC0
FFFF80
FFFFC0
F00FF0
F001F0
F000F8
F00078
F00078
F00078
F000F8
F001F0
F007F0
FFFFE0
FFFFC0
FFFF80
ENDCHAR
STARTCHAR 0433
ENCODING 1075
SWIDTH 360 0
DWIDTH 17 0
BBX 15 25 3 0
BITMAP
FFFE
FFFE
FFFE
FFFE
F000
F000
F000
F000
F000
F000
F000
F000
F000
F000
F000
F000
F000
F000
F000
F000
F000
F000
F000
F000
F000
ENDCHAR
STARTCHAR 0434
ENCODING 1076
SWIDTH 592 0
DWIDTH 28 0
BBX 25 30 1 -5
BITMAP
01FFFE00
01FFFE00
01FFFE00
01E01E00
01E01E00
01E01E00
01E01E00
01E01E00
01E01E00
01E01E00
03C01E00
03C01E00
03C01E00
03C01E00
07C01E00
07801E00
07801E00
0F801E00
0F001E00
1E001E00
3E001E00
FC001E00
FFFFFF80
FFFFFF80
FFFFFF80
F0000780
F0000780
F0000780
F0000780
F0000780
ENDCHAR
STARTCHAR 0435
ENCODING 1077
SWIDTH 550 0
DWIDTH 26 0
BBX 22 27 2 -1
BITMAP
00FE00
03FF80
0FFFE0
1FFFE0
1F03F0
3E00F8
7C0078
78007C
78003C
F8003C
F0003C
F0003C
FFFFFC
FFFFFC
FFFFFC
F00000
F00000
F00000
F8003C
78003C
7C0078
3E00F8
3F01F0
1FFFF0
0FFFE0
07FF80
00FE00
ENDCHAR
STARTCHAR 0436
ENCODING 1078
SWIDTH 677 0
DWIDTH 32 0
BBX 32 25 0 0
BITMAP
3C03C07C
3E03C07C
1E03C0F8
1F03C0F0
0F03C1F0
0F83C1E0
0783C3E0
07C3C3C0
03C3C7C0
03E3C780
01FFFF80
01FFFF80
03FFFF80
03E3C7C0
07C3C3C0
0783C3E0
0F83C1E0
0F03C1F0
1F03C0F8
3E03C078
3C03C07C
7C03C03C
7803C03E
F803C01E
F003C01F
ENDCHAR
STARTCHAR 0437
ENCODING 1079
SWIDTH 465 0
DWIDTH 22 0
BBX 18 27 2 -1
BITMAP
03F000
0FFC00
1FFE00
3FFF00
7C1F80
780F80
780780
780780
780780
000F80
001F00
01FE00
01FC00
01FE00
007F00
000F80
000780
000780
F007C0
F007C0
F00780
F80780
7C0F80
7FFF00
3FFE00
1FFC00
07F000
ENDCHAR
STARTCHAR 0438
ENCODING 1080
SWIDTH 550 0
DWIDTH 26 0
BBX 19 25 4 0
BITMAP
F001E0
F001E0
F003E0
F003E0
F007E0
F00FE0
F01FE0
F01FE0
F03DE0
F079E0
F0F9E0
F0F1E0
F1E1E0
F3E1E0
F7C1E0
F781E0
FF01E0
FF01E0
FE01E0
FC01E0
F801E0
F801E0
F001E0
F001E0
F001E0
ENDCHAR
STARTCHAR 0439
ENCODING 1081
SWIDTH 550 0
DWIDTH 26 0
BBX 19 35 4 0
BITMAP
380700
380700
3E0F00
1FFE00
0FFC00
07F800
000000
000000
000000
000000
F001E0
F001E0
F003E0
F003E0
F007E0
F00FE0
F01FE0
F01FE0
F03DE0
F079E0
F0F9E0
F0F1E0
F1E1E0
F3E1E0
F7C1E0
F781E0
FF01E0
FF01E0
FE01E0
FC01E0
F801E0
F801E0
F001E0
F001E0
F001E0
ENDCHAR
STARTCHAR 043A
ENCODING 1082
SWIDTH 444 0
DWIDTH 21 0
BBX 20 25 2 0
BITMAP
F007C0
F00780
F00F80
F00F00
F01F00
F01E00
F03E00
F03C00
F07C00
F07800
FFF800
FFF000
FFF800
F07C00
F07C00
F03E00
F01E00
F01F00
F00F00
F00F80
F007C0
F003C0
F003E0
F001E0
F001F0
ENDCHAR
STARTCHAR 043B
ENCODING 1083
SWIDTH 592 0
DWIDTH 28 0
BBX 23 25 1 0
BITMAP
0FFFFE
0FFFFE
0FFFFE
0F001E
0F001E
0F001E
0F001E
0F001E
0F001E
0F001E
0F001E
0F001E
0F001E
0F001E
0F001E
0F001E
0F001E
0F001E
0F001E
1F001E
3E001E
FE001E
FC001E
F8001E
E0001E
ENDCHAR
STARTCHAR 043C
ENCODING 1084
SWIDTH 677 0
DWIDTH 32 0
BBX 28 25 2 0
BITMAP
FC0003F0
FE0003F0
FE0007F0
FE0007F0
FF0007F0
F7000FF0
F7800EF0
F7801EF0
F3801EF0
F3C01CF0
F1C03CF0
F1E038F0
F1E078F0
F0E078F0
F0F070F0
F070F0F0
F070F0F0
F078E0F0
F039E0F0
F03DC0F0
F03FC0F0
F01FC0F0
F01F80F0
F00F80F0
F00F00F0
ENDCHAR
STARTCHAR 043D
ENCODING 1085
SWIDTH 550 0
DWIDTH 26 0
BBX 20 25 3 0
BITMAP
F000F0
F000F0
F000F0
F000F0
F000F0
F000F0
F000F0
F000F0
F000F0
F000F0
FFFFF0
FFFFF0
FFFFF0
F000F0
F000F0
F000F0
F000F0
F000F0
F000F0
F000F0
F000F0
F000F0
F000F0
F000F0
F000F0
ENDCHAR
STARTCHAR 043E
ENCODING 1086
SWIDTH 550 0
DWIDTH 26 0
BBX 22 27 2 -1
BITMAP
00FE00
07FF80
0FFFC0
1FFFE0
3F03F0
3E00F8
7C00F8
780078
78007C
F0003C
F0003C
F0003C
F0003C
F0003C
F0003C
F0003C
F0003C
F8003C
78003C
780078
7C0078
3E00F8
3F03F0
1FFFE0
0FFFC0
07FF80
01FE00
ENDCHAR
STARTCHAR 043F
ENCODING 1087
SWIDTH 550 0
DWIDTH 26 0
BBX 19 25 3 0
BITMAP
FFFFE0
FFFFE0
FFFFE0
F001E0
F001E0
F001E0
F001E0
F001E0
F001E0
F001E0
F001E0
F001E0
F001E0
F001E0
F001E0
F001E0
F001E0
F001E0
F001E0
F001E0
F001E0
F001E0
F001E0
F001E0
F001E0
ENDCHAR
STARTCHAR 0440
ENCODING 1088
SWIDTH 550 0
DWIDTH 26 0
BBX 22 36 3 -10
BITMAP
00FE00
F3FF80
F7FFC0
FFFFE0
FF03F0
FC01F0
F800F8
F800F8
F80078
F0007C
F0007C
F0003C
F0003C
F0003C
F0003C
F0003C
F0003C
F0007C
F80078
F80078
FC00F8
FC01F0
FF03F0
FFFFE0
F7FFC0
F3FF80
F0FC00
F00000
F00000
F00000
F00000
F00000
F00000
F00000
F00000
F00000
ENDCHAR
STARTCHAR 0441
ENCODING 1089
SWIDTH 508 0
DWIDTH 24 0
BBX 21 27 1 -1
BITMAP
00FE00
03FF80
07FFE0
0FFFE0
1F01F0
3E00F8
3C0078
7C0078
780078
780000
780000
780000
F80000
F80000
F80000
F80000
780000
780078
780078
7C0078
3C00F8
3E00F0
1F01F0
1FFFE0
0FFFC0
03FF80
00FE00
ENDCHAR
STARTCHAR 0442
ENCODING 1090
SWIDTH 465 0
DWIDTH 22 0
BBX 18 25 2 0
BITMAP
FFFFC0
FFFFC0
FFFFC0
01FFC0
01E000
01E000
01E000
01E000
01E000
01E000
01E000
01E000
01E000
01E000
01E000
01E000
01E000
01E000
01E000
01E000
01E000
01E000
01E000
01E000
01E000
ENDCHAR
STARTCHAR 0443
ENCODING 1091
SWIDTH 508 0
DWIDTH 24 0
BBX 21 35 1 -10
BITMAP
F00078
780078
780078
7800F0
3C00F0
3C01F0
3C01E0
1E01E0
1E03E0
1E03C0
0F03C0
0F0780
0F0780
078780
078F00
078F00
03CF00
03DE00
03DE00
01FC00
01FC00
01FC00
00F800
00F800
00F800
00F000
00F000
01F000
01E000
01E000
03C000
3FC000
3F8000
3F0000
3E0000
ENDCHAR
STARTCHAR 0444
ENCODING 1092
SWIDTH 825 0
DWIDTH 39 0
BBX 33 41 3 -10
BITMAP
0003C00000
0003C00000
0003C00000
0003C00000
0003C00000
0003C00000
007FFF0000
01FFFFC000
07FFFFF000
0FF3C7F800
1F83C0FC00
3F03C07E00
3E03C03E00
7C03C01F00
7803C00F00
7803C00F00
7803C00F80
F803C00F80
F803C00780
F803C00780
F803C00F80
7803C00F00
7803C00F00
7C03C00F00
3C03C01E00
3E03C03E00
1F03C07C00
1FC3C1FC00
0FFFFFF000
03FFFFE000
00FFFF8000
003FFE0000
0003C00000
0003C00000
0003C00000
0003C00000
0003C00000
0003C00000
0003C00000
0003C00000
0003C00000
ENDCHAR
STARTCHAR 0445
ENCODING 1093
SWIDTH 508 0
DWIDTH 24 0
BBX 20 25 2 0
BITMAP
F000F0
F801E0
7C03E0
3C03C0
3E0780
1F0F80
0F0F00
0F9E00
07BE00
03FC00
01F800
01F000
01F000
01F800
03FC00
03FC00
079E00
0F1F00
0F0F00
1E0F80
3C0780
3C03C0
7803E0
F001E0
F000F0
ENDCHAR
STARTCHAR 0446
ENCODING 1094
SWIDTH 571 0
DWIDTH 27 0
BBX 21 33 4 -8
BITMAP
F003C0
F003C0
F003C0
F003C0
F003C0
F003C0
F003C0
F003C0
F003C0
F003C0
F003C0
F003C0
F003C0
F003C0
F003C0
F003C0
F003C0
F003C0
F003C0
F003C0
F003C0
F003C0
FFFFF8
FFFFF8
FFFFF8
0000F8
0000F8
0000F8
0000F8
0000F8
0000F8
0000F8
0000F8
ENDCHAR
STARTCHAR 0447
ENCODING 1095
SWIDTH 529 0
DWIDTH 25 0
BBX 18 25 3 0
BITMAP
F003C0
F003C0
F003C0
F003C0
F003C0
F003C0
F003C0
F003C0
F003C0
F003C0
F003C0
F003C0
F803C0
FFFFC0
7FFFC0
3FFFC0
0FE3C0
0003C0
0003C0
0003C0
0003C0
0003C0
0003C0
0003C0
0003C0
ENDCHAR
STARTCHAR 0448
ENCODING 1096
SWIDTH 804 0
DWIDTH 38 0
BBX 32 25 3 0
BITMAP
F003C00F
F003C00F
F003C00F
F003C00F
F003C00F
F003C00F
F003C00F
F003C00F
F003C00F
F003C00F
F003C00F
F003C00F
F003C00F
F003C00F
F003C00F
F003C00F
F003C00F
F003C00F
F003C00F
F003C00F
F003C00F
F003C00F
FFFFFFFF
FFFFFFFF
FFFFFFFF
ENDCHAR
STARTCHAR 0449
ENCODING 1097
SWIDTH 825 0
DWIDTH 39 0
BBX 34 33 3 -8
BITMAP
F003C00F00
F003C00F00
F003C00F00
F003C00F00
F003C00F00
F003C00F00
F003C00F00
F003C00F00
F003C00F00
F003C00F00
F003C00F00
F003C00F00
F003C00F00
F003C00F00
F003C00F00
F003C00F00
F003C00F00
F003C00F00
F003C00F00
F003C00F00
F003C00F00
F003C00F00
FFFFFFFFC0
FFFFFFFFC0
FFFFFFFFC0
00000003C0
00000003C0
00000003C0
00000003C0
00000003C0
00000003C0
00000003C0
00000003C0
ENDCHAR
STARTCHAR 044A
ENCODING 1098
SWIDTH 635 0
DWIDTH 30 0
BBX 30 25 -1 0
BITMAP
FFFC0000
FFFC0000
FFFC0000
003C0000
003C0000
003C0000
003C0000
003C0000
003C0000
003C0000
003FFF80
003FFFE0
003FFFF0
003C03F8
003C00F8
003C0078
003C007C
003C003C
003C007C
003C0078
003C00F8
003C03F8
003FFFF0
003FFFE0
003FFF80
ENDCHAR
STARTCHAR 044B
ENCODING 1099
SWIDTH 720 0
DWIDTH 34 0
BBX 26 25 4 0
BITMAP
F00003C0
F00003C0
F00003C0
F00003C0
F00003C0
F00003C0
F00003C0
F00003C0
F00003C0
F00003C0
FFFE03C0
FFFF83C0
FFFFC3C0
F00FE3C0
F003E3C0
F001E3C0
F001F3C0
F001F3C0
F001F3C0
F001E3C0
F003E3C0
F00FE3C0
FFFFC3C0
FFFF83C0
FFFE03C0
ENDCHAR
STARTCHAR 044C
ENCODING 1100
SWIDTH 529 0
DWIDTH 25 0
BBX 20 25 3 0
BITMAP
F00000
F00000
F00000
F00000
F00000
F00000
F00000
F00000
F00000
F00000
FFFE00
FFFF80
FFFFC0
F00FE0
F001F0
F000F0
F000F0
F000F0
F000F0
F000F0
F001F0
F00FE0
FFFFC0
FFFF80
FFFE00
ENDCHAR
STARTCHAR 044D
ENCODING 1101
SWIDTH 508 0
DWIDTH 24 0
BBX 22 27 1 -1
BITMAP
01FC00
07FF80
0FFFC0
1FFFE0
3F03F0
7C01F0
7800F8
F80078
38007C
00003C
00003C
007FFC
007FFC
007FFC
00003C
00003C
10003C
F0003C
F80078
780078
7C00F8
7C01F0
3F03F0
1FFFE0
0FFFC0
07FF80
01FC00
ENDCHAR
STARTCHAR 044E
ENCODING 1102
SWIDTH 741 0
DWIDTH 35 0
BBX 32 27 2 -1
BITMAP
00003F80
F001FFE0
F003FFF0
F007FFF8
F00FC0FC
F00F803E
F01F003E
F01E001E
F01E001F
F03E000F
F03C000F
FFFC000F
FFFC000F
FFFC000F
F03C000F
F03C000F
F03C000F
F03E000F
F01E000F
F01E001F
F01F001E
F00F803E
F00FC07C
F007FFF8
F003FFF0
F001FFE0
00007F80
ENDCHAR
STARTCHAR 044F
ENCODING 1103
SWIDTH 550 0
DWIDTH 26 0
BBX 20 25 2 0
BITMAP
07FFF0
1FFFF0
3FFFF0
7F00F0
7800F0
F800F0
F000F0
F000F0
F000F0
F800F0
7800F0
7F00F0
3FFFF0
0FFFF0
0FFFF0
1E00F0
3C00F0
3C00F0
3C00F0
3C00F0
3C00F0
3C00F0
3C00F0
3C00F0
7800F0
ENDCHAR
STARTCHAR 0450
ENCODING 1104
SWIDTH 550 0
DWIDTH 26 0
BBX 22 36 2 -1
BITMAP
07C000
03E000
01F000
00F000
007800
003C00
001C00
000000
000000
00FE00
03FF80
0FFFC0
1FFFE0
3F03F0
3E00F8
7C0078
78007C
78007C
F0003C
F0003C
F0003C
FFFFFC
FFFFFC
FFFFFC
F00000
F00000
F00000
F8003C
780078
7C0078
7C00F8
3F01F0
1FFFE0
0FFFC0
07FF80
01FE00
ENDCHAR
STARTCHAR 0451
ENCODING 1105
SWIDTH 550 0
DWIDTH 26 0
BBX 22 35 2 -1
BITMAP
07CF80
07CF80
07CF80
07CF80
07CF80
000000
000000
000000
00FE00
03FF80
0FFFE0
1FFFF0
1F01F0
3E00F8
3C0078
78007C
78003C
78003C
F0003C
F0003C
FFFFFC
FFFFFC
FFFFFC
F00000
F00000
F00000
78003C
78003C
7C0078
3E00F8
3F01F0
1FFFF0
0FFFE0
07FF80
00FE00
ENDCHAR
STARTCHAR 0452
ENCODING 1106
SWIDTH 550 0
DWIDTH 26 0
BBX 24 40 -1 -6
BITMAP
078000
078000
078000
FFFC00
FFFC00
FFFC00
078000
078000
0783F0
078FF8
079FFC
07BFFE
07F81F
07E01F
07C00F
07C00F
07800F
07800F
07800F
07800F
07800F
07800F
07800F
07800F
07800F
07800F
07800F
07800F
07800F
07800F
07800F
07800F
07800F
07800F
00001F
00003E
003FFE
003FFC
003FF0
003FC0
ENDCHAR
STARTCHAR 0453
ENCODING 1107
SWIDTH 360 0
DWIDTH 17 0
BBX 15 35 3 0
BITMAP
00F8
01F0
03E0
03C0
0780
0700
0E00
0000
0000
0000
FFFE
FFFE
FFFE
FFFE
F000
F000
F000
F000
F000
F000
F000
F000
F000
F000
F000
F000
F000
F000
F000
F000
F000
F000
F000
F000
F000
ENDCHAR
STARTCHAR 0454
ENCODING 1108
SWIDTH 508 0
DWIDTH 24 0
BBX 22 27 1 -1
BITMAP
00FE00
03FF80
0FFFE0
1FFFF0
3F03F0
3E00F8
7C0078
78007C
780030
F80000
F00000
FFF800
FFF800
FFF800
FFF800
F00000
F00020
F8003C
78003C
78007C
7C0078
3E00F8
3F01F0
1FFFE0
0FFFC0
07FF80
00FE00
ENDCHAR
STARTCHAR 0455
ENCODING 1109
SWIDTH 508 0
DWIDTH 24 0
BBX 20 27 2 -1
BITMAP
03FC00
0FFF00
3FFF80
3FFFC0
7C07C0
7803C0
F003E0
F003E0
F80000
F80000
7E0000
7FE000
3FFC00
0FFF80
03FFC0
003FE0
0003E0
0001F0
F001F0
F000F0
F001F0
F801E0
FC03E0
7FFFC0
3FFF80
1FFF00
07F800
ENDCHAR
STARTCHAR 0456
ENCODING 1110
SWIDTH 211 0
DWIDTH 10 0
BBX 4 34 3 0
BITMAP
F0
F0
F0
F0
F0
00
00
00
00
F0
F0
F0
F0
F0
F0
F0
F0
F0
F0
F0
F0
F0
F0
F0
F0
F0
F0
F0
F0
F0
F0
F0
F0
F0
ENDCHAR
STARTCHAR 0457
ENCODING 1111
SWIDTH 275 0
DWIDTH 13 0
BBX 13 34 0 0
BITMAP
F8F8
F8F8
F8F8
F8F8
F8F8
0000
0000
0000
0000
0780
0780
0780
0780
0780
0780
0780
0780
0780
0780
0780
0780
0780
0780
0780
0780
0780
0780
0780
0780
0780
0780
0780
0780
0780
ENDCHAR
STARTCHAR 0458
ENCODING 1112
SWIDTH 211 0
DWIDTH 10 0
BBX 8 44 -1 -10
BITMAP
0F
0F
0F
0F
0F
00
00
00
00
0F
0F
0F
0F
0F
0F
0F
0F
0F
0F
0F
0F
0F
0F
0F
0F
0F
0F
0F
0F
0F
0F
0F
0F
0F
0F
0F
0F
0F
0F
0F
FF
FF
FE
F8
ENDCHAR
STARTCHAR 0459
ENCODING 1113
SWIDTH 910 0
DWIDTH 43 0
BBX 39 25 1 0
BITMAP
0FFFFE0000
0FFFFE0000
0FFFFE0000
0F001E0000
0F001E0000
0F001E0000
0F001E0000
0F001E0000
0F001E0000
0F001E0000
0F001FFFC0
0F001FFFF0
0F001FFFF8
0F001E01FC
0F001E003C
0F001E003E
0F001E001E
0F001E001E
0F001E001E
1F001E003E
3E001E003C
FE001E01FC
FC001FFFF8
F8001FFFF0
E0001FFFC0
ENDCHAR
STARTCHAR 045A
ENCODING 1114
SWIDTH 804 0
DWIDTH 38 0
BBX 36 25 2 0
BITMAP
F000F00000
F000F00000
F000F00000
F000F00000
F000F00000
F000F00000
F000F00000
F000F00000
F000F00000
F000F00000
FFFFFFFE00
FFFFFFFF80
FFFFFFFFC0
F000F00FE0
F000F003E0
F000F001E0
F000F001F0
F000F001F0
F000F001F0
F000F001E0
F000F003E0
F000F00FE0
F000FFFFC0
F000FFFF80
F000FFFE00
ENDCHAR
STARTCHAR 045B
ENCODING 1115
SWIDTH 550 0
DWIDTH 26 0
BBX 24 34 -1 0
BITMAP
078000
078000
078000
FFFC00
FFFC00
FFFC00
078000
078000
0783F0
078FF8
079FFC
07BFFE
07F81F
07E01F
07C00F
07C00F
07800F
07800F
07800F
07800F
07800F
07800F
07800F
07800F
07800F
07800F
07800F
07800F
07800F
07800F
07800F
07800F
07800F
07800F
ENDCHAR
STARTCHAR 045C
ENCODING 1116
SWIDTH 444 0
DWIDTH 21 0
BBX 20 35 2 0
BITMAP
007C00
007800
00F000
01E000
01C000
038000
070000
000000
000000
000000
F007C0
F00780
F00F80
F00F00
F01F00
F01E00
F03E00
F03C00
F07C00
F07800
FFF800
FFF000
FFF800
F07C00
F07C00
F03E00
F01E00
F01F00
F00F00
F00F80
F007C0
F003C0
F003E0
F001E0
F001F0
ENDCHAR
STARTCHAR 045D
ENCODING 1117
SWIDTH 550 0
DWIDTH 26 0
BBX 19 35 4 0
BITMAP
3E0000
1F0000
0F8000
078000
03C000
01E000
00E000
000000
000000
000000
F001E0
F001E0
F003E0
F003E0
F007E0
F00FE0
F01FE0
F01FE0
F03DE0
F079E0
F0F9E0
F0F1E0
F1E1E0
F3E1E0
F7C1E0
F781E0
FF01E0
FF01E0
FE01E0
FC01E0
F801E0
F801E0
F001E0
F001E0
F001E0
ENDCHAR
STARTCHAR 045E
ENCODING 1118
SWIDTH 508 0
DWIDTH 24 0
BBX 21 45 1 -10
BITMAP
0E01C0
0E01C0
0F0780
07FF80
07FF00
01FC00
000000
000000
000000
000000
F00078
780078
780078
7800F0
3C00F0
3C01F0
3C01E0
1E01E0
1E03E0
1E03C0
0F03C0
0F0780
0F0780
078780
078F00
078F00
03CF00
03DE00
03DE00
01FC00
01FC00
01FC00
00F800
00F800
00F800
00F000
00F000
01F000
01E000
01E000
03C000
3FC000
3F8000
3F0000
3E0000
ENDCHAR
STARTCHAR 045F
ENCODING 1119
SWIDTH 550 0
DWIDTH 26 0
BBX 18 33 4 -8
BITMAP
F003C0
F003C0
F003C0
F003C0
F003C0
F003C0
F003C0
F003C0
F003C0
F003C0
F003C0
F003C0
F003C0
F003C0
F003C0
F003C0
F003C0
F003C0
F003C0
F003C0
F003C0
F003C0
FFFFC0
FFFFC0
FFFFC0
01E000
01E000
01E000
01E000
01E000
01E000
01E000
01E000
ENDCHAR
STARTCHAR 0462
ENCODING 1122
SWIDTH 783 0
DWIDTH 37 0
BBX 35 34 0 0
BITMAP
0078000000
0078000000
0078000000
0078000000
FFFFFC0000
FFFFFC0000
FFFFFC0000
FFFFFC0000
0078000000
0078000000
0078000000
0078000000
0078000000
0078000000
007FFFE000
007FFFFC00
007FFFFF00
007FFFFF80
0078003F80
0078000FC0
00780007C0
00780003C0
00780003E0
00780003E0
00780003E0
00780003E0
00780003C0
00780007C0
0078000FC0
0078001F80
007FFFFF80
007FFFFF00
007FFFFC00
007FFFF000
ENDCHAR
STARTCHAR 0463
ENCODING 1123
SWIDTH 614 0
DWIDTH 29 0
BBX 23 32 3 0
BITMAP
1E0000
1E0000
1E0000
1E0000
1E0000
1E0000
1E0000
FFE000
FFE000
FFE000
1E0000
1E0000
1E0000
1E0000
1E0000
1E0000
1E0000
1FFFC0
1FFFF0
1FFFF8
1E01FC
1E007C
1E003E
1E003E
1E001E
1E001E
1E003E
1E003C
1E01FC
1FFFF8
1FFFF0
1FFFC0
ENDCHAR
STARTCHAR 0472
ENCODING 1138
SWIDTH 783 0
DWIDTH 37 0
BBX 33 36 2 -1
BITMAP
000FF80000
007FFF0000
01FFFFC000
03FFFFE000
07F00FF000
0FC003F800
1F8000FC00
3F00007C00
3E00003E00
7C00003E00
7C00001F00
7800001F00
F800000F00
F800000F80
F800000F80
F0FE000F80
F7FF800780
FFFFC03F80
FFFFFFFF80
F803FFFF80
F000FFEF80
F8003F0F80
F800000F80
F800000F00
7800001F00
7C00001F00
7C00001E00
3E00003E00
3F00007C00
1F8000FC00
0FC001F800
07F807F000
03FFFFE000
01FFFF8000
007FFF0000
000FF80000
ENDCHAR
STARTCHAR 0473
ENCODING 1139
SWIDTH 550 0
DWIDTH 26 0
BBX 22 27 2 -1
BITMAP
00FE00
07FF80
0FFFC0
1FFFE0
3F03F0
3E00F8
7C00F8
78007C
78007C
F8003C
F0803C
F7F03C
FFF8FC
FFFFFC
FC7FFC
F01FBC
F0003C
F8003C
F8003C
78007C
7C0078
3E00F8
3F01F0
1FFFE0
0FFFC0
07FF80
01FE00
ENDCHAR
STARTCHAR 0474
ENCODING 1140
SWIDTH 804 0
DWIDTH 38 0
BBX 31 35 4 0
BITMAP
0000003E
F80000FE
780001FE
7C0001FE
7C0003F2
3C0003E0
3E0003C0
3E0007C0
1E0007C0
1F000780
1F000F80
0F000F80
0F800F00
07800F00
07C01F00
07C01E00
03C01E00
03E03E00
03E03C00
01E03C00
01F07C00
01F07800
00F07800
00F87800
0078F000
0078F000
007CF000
003DE000
003DE000
003FE000
001FE000
001FC000
001FC000
000FC000
000F8000
ENDCHAR
STARTCHAR 0475
ENCODING 1141
SWIDTH 635 0
DWIDTH 30 0
BBX 22 26 4 0
BITMAP
00003C
F000FC
F800FC
7801FC
7801E0
7C03E0
3C03C0
3C03C0
3E03C0
1E0780
1E0780
1F0780
0F0780
0F0F00
0F8F00
078F00
078E00
07DE00
03DE00
03DE00
03FC00
01FC00
01FC00
00F800
00F800
00F800
ENDCHAR
STARTCHAR 0490
ENCODING 1168
SWIDTH 487 0
DWIDTH 23 0
BBX 27 41 3 0
BITMAP
000003E0
000007C0
00000F80
00000F00
00001E00
00003C00
00003800
FFFFF000
FFFFF000
FFFFF000
FFFFF000
F0000000
F0000000
F0000000
F0000000
F0000000
F0000000
F0000000
F0000000
F0000000
F0000000
F0000000
F0000000
F0000000
F0000000
F0000000
F0000000
F0000000
F0000000
F0000000
F0000000
F0000000
F0000000
F0000000
F0000000
F0000000
F0000000
F0000000
F0000000
F0000000
F0000000
ENDCHAR
STARTCHAR 0491
ENCODING 1169
SWIDTH 402 0
DWIDTH 19 0
BBX 22 32 4 0
BITMAP
0000FC
0000F8
0001F0
0001E0
0003C0
000780
000700
FFFE00
FFFE00
FFFE00
FFFE00
F00000
F00000
F00000
F00000
F00000
F00000
F00000
F00000
F00000
F00000
F00000
F00000
F00000
F00000
F00000
F00000
F00000
F00000
F00000
F00000
F00000
ENDCHAR
STARTCHAR 0492
ENCODING 1170
SWIDTH 529 0
DWIDTH 25 0
BBX 23 34 2 0
BITMAP
3FFFFE
3FFFFE
3FFFFE
3FFFFE
3C0000
3C0000
3C0000
3C0000
3C0000
3C0000
3C0000
3C0000
3C0000
3C0000
3C0000
FFFFC0
FFFFC0
FFFFC0
FFFFC0
3C0000
3C0000
3C0000
3C0000
3C0000
3C0000
3C0000
3C0000
3C0000
3C0000
3C0000
3C0000
3C0000
3C0000
3C0000
ENDCHAR
STARTCHAR 0493
ENCODING 1171
SWIDTH 381 0
DWIDTH 18 0
BBX 16 25 2 0
BITMAP
7FFF
7FFF
7FFF
7FFF
7800
7800
7800
7800
7800
7800
FFF0
FFF0
FFF0
7800
7800
7800
7800
7800
7800
7800
7800
7800
7800
7800
7800
ENDCHAR
STARTCHAR 0496
ENCODING 1174
SWIDTH 1016 0
DWIDTH 48 0
BBX 48 41 0 -7
BITMAP
3E00078001F0
1F00078003E0
0F80078007C0
0F80078007C0
07C007800F80
07C007800F80
03E007801F00
01F007803E00
01F007803E00
00F807807C00
00F807807C00
007C0780F800
003E0781F000
003E0781F000
001FFFFFE000
000FFFFFE000
000FFFFFE000
001FFFFFE000
003E0781F000
003E0780F800
007C0780F800
00F807807C00
00F807803E00
01F007803E00
03E007801F00
03E007800F80
07C007800F80
0F80078007C0
0F80078003C0
1F00078003E0
3E00078001FF
3E00078000FF
7C00078000FF
F8000780007F
00000000000F
00000000000F
00000000000F
00000000000F
00000000000F
00000000000F
00000000000F
ENDCHAR
STARTCHAR 0497
ENCODING 1175
SWIDTH 825 0
DWIDTH 39 0
BBX 39 32 0 -7
BITMAP
3E007803E0
1E007803C0
1F007807C0
0F80780780
0F80780F80
07C0781F00
07C0781F00
03E0783E00
01E0783E00
01F0787C00
00FFFFFC00
00FFFFF800
01FFFFFC00
01E0783C00
03E0783E00
03C0781F00
07C0781F00
0F80780F80
0F80780780
1F007807C0
1E007803E0
3E007803FE
3C007801FE
7C007800FE
F8007800FE
000000001E
000000001E
000000001E
000000001E
000000001E
000000001E
000000001E
ENDCHAR
STARTCHAR 0498
ENCODING 1176
SWIDTH 614 0
DWIDTH 29 0
BBX 23 45 3 -10
BITMAP
00FE00
03FF80
0FFFE0
1FFFF0
1F83F8
3E00F8
3C0078
7C007C
78007C
78007C
78007C
00007C
000078
0000F8
0003F0
007FE0
007FC0
007FC0
007FF0
0003F8
0000FC
00007C
00003E
00003E
F0003E
F0003E
F0003E
F8003E
F8003C
7C007C
7E00FC
3F81F8
1FFFF0
0FFFE0
07FFC0
00FE00
006000
007800
007E00
000F00
000F00
000F00
060F00
0FFE00
01F800
ENDCHAR
STARTCHAR 0499
ENCODING 1177
SWIDTH 465 0
DWIDTH 22 0
BBX 18 36 2 -10
BITMAP
03F000
0FFC00
1FFE00
3FFF00
7C1F80
780F80
780780
780780
780780
000F80
001F00
01FE00
01FC00
01FE00
007F00
000F80
000780
000780
F007C0
F007C0
F00780
F80780
7C0F80
7FFF00
3FFE00
1FFC00
03E000
018000
01F000
03F800
003C00
003C00
003C00
187800
3FF800
07E000
ENDCHAR
STARTCHAR 049A
ENCODING 1178
SWIDTH 656 0
DWIDTH 31 0
BBX 25 42 4 -8
BITMAP
F000F800
F001F000
F001E000
F003E000
F007C000
F007C000
F00F8000
F00F0000
F01F0000
F03E0000
F03E0000
F07C0000
F0780000
F0F80000
FFF00000
FFF00000
FFF00000
FFF00000
F0F80000
F07C0000
F07C0000
F03E0000
F01F0000
F01F0000
F00F8000
F007C000
F007C000
F003E000
F001F000
F001F000
F000FF80
F0007F80
F0007F80
F0003F80
00000780
00000780
00000780
00000780
00000780
00000780
00000780
00000780
ENDCHAR
STARTCHAR 049B
ENCODING 1179
SWIDTH 529 0
DWIDTH 25 0
BBX 22 33 3 -8
BITMAP
F003E0
F007C0
F00780
F00F80
F00F00
F01F00
F01E00
F03E00
F03C00
F07C00
FFF800
FFF800
FFFC00
F07C00
F03E00
F01E00
F01F00
F00F00
F00F80
F00780
F003C0
F003E0
F001FC
F001FC
F000FC
00003C
00003C
00003C
00003C
00003C
00003C
00003C
00003C
ENDCHAR
STARTCHAR 049C
ENCODING 1180
SWIDTH 614 0
DWIDTH 29 0
BBX 25 34 4 0
BITMAP
F0003E00
F0007C00
F000F800
F000F800
F001F000
F1C1F000
F1C3E000
F1C7C000
F1C7C000
F1CF8000
F1CF8000
F1DF0000
F1FE0000
F1FE0000
FFFC0000
FFFC0000
FFFC0000
FFFC0000
F1FE0000
F1DF0000
F1DF0000
F1CF8000
F1C78000
F1C7C000
F1C3E000
F1C1E000
F001F000
F000F800
F0007800
F0007C00
F0003E00
F0001E00
F0001F00
F0000F80
ENDCHAR
STARTCHAR 049D
ENCODING 1181
SWIDTH 508 0
DWIDTH 24 0
BBX 21 25 3 0
BITMAP
F003E0
F007C0
F00780
F18F80
F18F00
F19F00
F19E00
F1BE00
F1BC00
F1FC00
FFF800
FFF800
FFFC00
F1BC00
F1BE00
F19E00
F19F00
F18F80
F18F80
F007C0
F003C0
F003E0
F001E0
F001F0
F000F8
ENDCHAR
STARTCHAR 04A0
ENCODING 1184
SWIDTH 592 0
DWIDTH 28 0
BBX 36 34 -10 0
BITMAP
FFFF800780
FFFF800F80
FFFF801F00
FFFF801F00
0007803E00
0007803C00
0007807C00
000780F800
000780F800
000781F000
000781E000
000783E000
000787C000
000787C000
0007FF8000
0007FF8000
0007FF0000
0007FF8000
000787C000
000787C000
000783E000
000781F000
000781F000
000780F800
0007807C00
0007807C00
0007803E00
0007801F00
0007801F00
0007800F80
00078007C0
00078007C0
00078003E0
00078001F0
ENDCHAR
STARTCHAR 04A1
ENCODING 1185
SWIDTH 444 0
DWIDTH 21 0
BBX 30 25 -8 0
BITMAP
FFFC01F0
FFFC01E0
FFFC03E0
003C03C0
003C07C0
003C0780
003C0F80
003C0F00
003C1F00
003C1E00
003FFE00
003FFC00
003FFE00
003C1F00
003C1F00
003C0F80
003C0780
003C07C0
003C03C0
003C03E0
003C01F0
003C00F0
003C00F8
003C0078
003C007C
ENDCHAR
STARTCHAR 04A2
ENCODING 1186
SWIDTH 720 0
DWIDTH 34 0
BBX 29 42 4 -8
BITMAP
F00003C0
F00003C0
F00003C0
F00003C0
F00003C0
F00003C0
F00003C0
F00003C0
F00003C0
F00003C0
F00003C0
F00003C0
F00003C0
F00003C0
F00003C0
FFFFFFC0
FFFFFFC0
FFFFFFC0
FFFFFFC0
F00003C0
F00003C0
F00003C0
F00003C0
F00003C0
F00003C0
F00003C0
F00003C0
F00003C0
F00003C0
F00003C0
F00003F8
F00003F8
F00003F8
F00003F8
00000078
00000078
00000078
00000078
00000078
00000078
00000078
00000078
ENDCHAR
STARTCHAR 04A3
ENCODING 1187
SWIDTH 550 0
DWIDTH 26 0
BBX 21 33 3 -8
BITMAP
F000F0
F000F0
F000F0
F000F0
F000F0
F000F0
F000F0
F000F0
F000F0
F000F0
FFFFF0
FFFFF0
FFFFF0
F000F0
F000F0
F000F0
F000F0
F000F0
F000F0
F000F0
F000F0
F000F8
F000F8
F000F8
F000F8
000078
000078
000078
000078
000078
000078
000078
000078
ENDCHAR
STARTCHAR 04AA
ENCODING 1194
SWIDTH 720 0
DWIDTH 34 0
BBX 30 45 2 -10
BITMAP
000FF000
007FFE00
01FFFF80
03FFFFC0
07F00FE0
0FC003E0
1F8001F0
1F0001F0
3E0000F8
3C0000F8
7C000078
7C000000
78000000
78000000
78000000
F8000000
F8000000
F8000000
F8000000
F8000000
F8000000
78000000
7800007C
7800007C
7C00007C
7C000078
3E0000F8
3E0000F8
1F0001F0
1F8001F0
0FC007E0
07F81FE0
03FFFFC0
01FFFF00
007FFE00
000FF000
00030000
0003C000
0007F000
0000F800
00007800
00007800
0030F000
007FF000
000FC000
ENDCHAR
STARTCHAR 04AB
ENCODING 1195
SWIDTH 508 0
DWIDTH 24 0
BBX 22 36 1 -10
BITMAP
00FE00
03FF80
07FFE0
0FFFE0
1F01F0
3E00F8
3C00F8
7C0078
780078
780000
780000
780000
780000
F80000
F80000
780000
780000
78003C
780078
7C0078
3C00F8
3E00F0
1F83F0
0FFFE0
07FFC0
03FF80
007C00
003000
003E00
007F00
000F00
000780
000700
070F00
07FE00
00FC00
ENDCHAR
STARTCHAR 04AE
ENCODING 1198
SWIDTH 677 0
DWIDTH 32 0
BBX 30 34 1 0
BITMAP
F800007C
7C0000F8
7E0001F8
3E0001F0
3F0003E0
1F0003E0
0F8007C0
0FC007C0
07C00F80
03E01F00
03E01F00
01F03E00
00F83C00
00F87C00
007CF800
007EF800
003FF000
001FE000
001FE000
000FC000
00078000
00078000
00078000
00078000
00078000
00078000
00078000
00078000
00078000
00078000
00078000
00078000
00078000
00078000
ENDCHAR
STARTCHAR 04AF
ENCODING 1199
SWIDTH 508 0
DWIDTH 24 0
BBX 21 35 1 -10
BITMAP
F00078
780078
780078
7800F0
3C00F0
3C00F0
3C01E0
1E01E0
1E01E0
1E03C0
0F03C0
0F03C0
0F0780
078780
078780
07CF00
03CF00
03CE00
01FE00
01FE00
01FC00
00FC00
00FC00
00F800
007800
007800
007800
007800
007800
007800
007800
007800
007800
007800
007800
ENDCHAR
STARTCHAR 04B0
ENCODING 1200
SWIDTH 677 0
DWIDTH 32 0
BBX 30 34 1 0
BITMAP
F800007C
7C0000F8
7E0000F8
3E0001F0
3F0003E0
1F0003E0
0F8007C0
0FC007C0
07C00F80
03E01F00
03E01F00
01F03E00
01F83C00
00F87C00
007CF800
007CF800
003FF000
001FE000
001FE000
000FC000
0007C000
00078000
00078000
00078000
03FFFF00
03FFFF00
03FFFF00
03FFFF00
00078000
00078000
00078000
00078000
00078000
00078000
ENDCHAR
STARTCHAR 04B1
ENCODING 1201
SWIDTH 508 0
DWIDTH 24 0
BBX 21 35 1 -10
BITMAP
F00078
780078
780078
7800F0
3C00F0
3C00F0
3C01E0
1E01E0
1E01E0
1E03C0
0F03C0
0F03C0
0F0780
078780
078780
07CF00
03CF00
03CE00
01FE00
01FE00
01FC00
00FC00
00FC00
00F800
007800
1FFFC0
1FFFC0
1FFFC0
007800
007800
007800
007800
007800
007800
007800
ENDCHAR
STARTCHAR 04B2
ENCODING 1202
SWIDTH 698 0
DWIDTH 33 0
BBX 32 42 1 -8
BITMAP
7C0001F8
3E0001F0
3F0003E0
1F0007E0
0F8007C0
0FC00F80
07C01F00
03E01F00
01F03E00
01F07C00
00F87C00
007CF800
007DF000
003FF000
001FE000
001FC000
000F8000
001FC000
001FE000
003FE000
007DF000
007CF800
00F8FC00
01F07C00
01F03E00
03E03F00
07C01F00
0FC00F80
0F800FC0
1F0007C0
3F0003FF
3E0003FF
7C0001FF
FC0000FF
0000001F
0000001F
0000001F
0000001F
0000001F
0000001F
0000001F
0000001F
ENDCHAR
STARTCHAR 04B3
ENCODING 1203
SWIDTH 529 0
DWIDTH 25 0
BBX 23 33 1 -8
BITMAP
F800F8
7C00F0
3C01F0
3E03E0
1F03C0
0F0780
078F80
07CF00
03DE00
01FE00
01FC00
00F800
00F800
00FC00
01FC00
03FE00
03DF00
078F00
0F8780
0F0780
1E03C0
3E03E0
3C01FE
7800FE
F800FE
00001E
00001E
00001E
00001E
00001E
00001E
00001E
00001E
ENDCHAR
STARTCHAR 04B6
ENCODING 1206
SWIDTH 698 0
DWIDTH 33 0
BBX 29 42 3 -8
BITMAP
F00003C0
F00003C0
F00003C0
F00003C0
F00003C0
F00003C0
F00003C0
F00003C0
F00003C0
F00003C0
F00003C0
F00003C0
F00003C0
F00003C0
F80003C0
F80003C0
FC0003C0
7F001FC0
3FFFFFC0
1FFFFFC0
0FFFFFC0
01FFC3C0
000003C0
000003C0
000003C0
000003C0
000003C0
000003C0
000003C0
000003C0
000003F8
000003F8
000003F8
000003F8
000000F8
000000F8
000000F8
000000F8
000000F8
000000F8
000000F8
000000F8
ENDCHAR
STARTCHAR 04B7
ENCODING 1207
SWIDTH 508 0
DWIDTH 24 0
BBX 20 33 2 -8
BITMAP
F001E0
F001E0
F001E0
F001E0
F001E0
F001E0
F001E0
F001E0
F001E0
F001E0
F001E0
F801E0
7C03E0
7FFFE0
3FFFE0
1FFFE0
07F1E0
0001E0
0001E0
0001E0
0001E0
0001E0
0001F0
0001F0
0001F0
0000F0
0000F0
0000F0
0000F0
0000F0
0000F0
0000F0
0000F0
ENDCHAR
STARTCHAR 04B8
ENCODING 1208
SWIDTH 698 0
DWIDTH 33 0
BBX 26 34 3 0
BITMAP
F00003C0
F00003C0
F00003C0
F00003C0
F00003C0
F00003C0
F00003C0
F00003C0
F00C03C0
F00C03C0
F00C03C0
F00C03C0
F00C03C0
F00C03C0
F00C03C0
F80C03C0
F80C03C0
7E0C07C0
7FEDFFC0
3FFFFFC0
0FFFFFC0
03FFF3C0
000C03C0
000C03C0
000C03C0
000C03C0
000C03C0
000C03C0
000C03C0
000003C0
000003C0
000003C0
000003C0
000003C0
ENDCHAR
STARTCHAR 04B9
ENCODING 1209
SWIDTH 508 0
DWIDTH 24 0
BBX 18 25 3 0
BITMAP
F003C0
F003C0
F003C0
F003C0
F003C0
F003C0
F003C0
F1C3C0
F1C3C0
F1C3C0
F1C3C0
F1C3C0
F9C7C0
FFFFC0
7FFFC0
3FFFC0
07E3C0
01C3C0
01C3C0
01C3C0
01C3C0
0003C0
0003C0
0003C0
0003C0
ENDCHAR
STARTCHAR 04BA
ENCODING 1210
SWIDTH 698 0
DWIDTH 33 0
BBX 26 34 3 0
BITMAP
F0000000
F0000000
F0000000
F0000000
F0000000
F0000000
F0000000
F0000000
F0000000
F0000000
F0000000
F0000000
F0FFE000
FFFFFC00
FFFFFE00
FFFFFF00
FE003F80
F0000FC0
F00007C0
F00007C0
F00003C0
F00003C0
F00003C0
F00003C0
F00003C0
F00003C0
F00003C0
F00003C0
F00003C0
F00003C0
F00003C0
F00003C0
F00003C0
F00003C0
ENDCHAR
STARTCHAR 04BB
ENCODING 1211
SWIDTH 571 0
DWIDTH 27 0
BBX 20 34 4 0
BITMAP
F00000
F00000
F00000
F00000
F00000
F00000
F00000
F00000
F07E00
F1FF80
F3FFC0
F7FFC0
FF03E0
FE01E0
FC01E0
F800F0
F000F0
F000F0
F000F0
F000F0
F000F0
F000F0
F000F0
F000F0
F000F0
F000F0
F000F0
F000F0
F000F0
F000F0
F000F0
F000F0
F000F0
F000F0
ENDCHAR
STARTCHAR 04C0
ENCODING 1216
SWIDTH 275 0
DWIDTH 13 0
BBX 5 34 4 0
BITMAP
F8
F8
F8
F8
F8
F8
F8
F8
F8
F8
F8
F8
F8
F8
F8
F8
F8
F8
F8
F8
F8
F8
F8
F8
F8
F8
F8
F8
F8
F8
F8
F8
F8
F8
ENDCHAR
STARTCHAR 04CB
ENCODING 1227
SWIDTH 677 0
DWIDTH 32 0
BBX 26 42 2 -8
BITMAP
F80003C0
F80003C0
F80003C0
F80003C0
F80003C0
F80003C0
F80003C0
F80003C0
F80003C0
F80003C0
F80003C0
F80003C0
F80003C0
F80003C0
F80003C0
F80003C0
7C0003C0
7F001FC0
3FFFFFC0
1FFFFFC0
07FFFFC0
00FFC3C0
000003C0
000003C0
000003C0
000003C0
000003C0
000003C0
000003C0
000003C0
00001FC0
00001FC0
00001FC0
00001FC0
00001F00
00001F00
00001F00
00001F00
00001F00
00001F00
00001F00
00001F00
ENDCHAR
STARTCHAR 04CC
ENCODING 1228
SWIDTH 529 0
DWIDTH 25 0
BBX 18 32 3 -7
BITMAP
F003C0
F003C0
F003C0
F003C0
F003C0
F003C0
F003C0
F003C0
F003C0
F003C0
F003C0
F003C0
FC07C0
FFFFC0
7FFFC0
1FFFC0
0383C0
0003C0
0003C0
0003C0
0003C0
001FC0
001FC0
001FC0
001FC0
001E00
001E00
001E00
001E00
001E00
001E00
001E00
ENDCHAR
STARTCHAR 04CF
ENCODING 1231
SWIDTH 275 0
DWIDTH 13 0
BBX 5 34 4 0
BITMAP
F8
F8
F8
F8
F8
F8
F8
F8
F8
F8
F8
F8
F8
F8
F8
F8
F8
F8
F8
F8
F8
F8
F8
F8
F8
F8
F8
F8
F8
F8
F8
F8
F8
F8
ENDCHAR
STARTCHAR 04D8
ENCODING 1240
SWIDTH 783 0
DWIDTH 37 0
BBX 33 36 2 -1
BITMAP
000FF80000
007FFF0000
01FFFFC000
03FFFFE000
07F00FF000
0FC003F800
1F8000FC00
1F00007C00
3E00003E00
7C00003E00
7C00001F00
0000001F00
0000000F00
0000000F80
0000000F80
0000000F80
FFFFFFFF80
FFFFFFFF80
FFFFFFFF80
FFFFFFFF80
F000000F80
F800000F80
F800000F80
F800000F00
7800000F00
7C00001F00
7C00001E00
3E00003E00
3F00007C00
1F8000FC00
0FC001F800
07F007F000
03FFFFE000
01FFFF8000
007FFF0000
000FF80000
ENDCHAR
STARTCHAR 04D9
ENCODING 1241
SWIDTH 550 0
DWIDTH 26 0
BBX 22 27 2 -1
BITMAP
00FE00
07FF80
0FFFC0
1FFFE0
3E03F0
3C00F8
780078
780078
F0003C
00003C
00003C
00003C
FFFFFC
FFFFFC
FFFFFC
F0003C
F0003C
F0003C
F8007C
780078
7C00F8
7E00F0
3F03F0
1FFFE0
0FFFC0
07FF80
01FC00
ENDCHAR
STARTCHAR 04E2
ENCODING 1250
SWIDTH 720 0
DWIDTH 34 0
BBX 26 39 4 0
BITMAP
01FFF000
01FFF000
01FFF000
00000000
00000000
F00003C0
F00003C0
F00003C0
F00003C0
F00007C0
F0000FC0
F0000FC0
F0001FC0
F0003FC0
F0007FC0
F000FFC0
F001FBC0
F003F3C0
F007E3C0
F00FC3C0
F01F83C0
F01F03C0
F03E03C0
F07C03C0
F0FC03C0
F1F803C0
F3F003C0
F7E003C0
FFC003C0
FF8003C0
FF0003C0
FE0003C0
FC0003C0
FC0003C0
F80003C0
F00003C0
F00003C0
F00003C0
F00003C0
ENDCHAR
STARTCHAR 04E3
ENCODING 1251
SWIDTH 550 0
DWIDTH 26 0
BBX 19 31 4 0
BITMAP
3FFE00
3FFE00
3FFE00
000000
000000
000000
F001E0
F001E0
F003E0
F003E0
F007E0
F00FE0
F01FE0
F01FE0
F03DE0
F079E0
F0F9E0
F0F1E0
F1E1E0
F3E1E0
F7C1E0
F781E0
FF01E0
FF01E0
FE01E0
FC01E0
F801E0
F801E0
F001E0
F001E0
F001E0
ENDCHAR
STARTCHAR 04E8
ENCODING 1256
SWIDTH 783 0
DWIDTH 37 0
BBX 33 36 2 -1
BITMAP
000FF80000
007FFF0000
01FFFFC000
03FFFFE000
07F00FF000
0FC001F800
1F8000FC00
3F00007C00
3E00003E00
7C00003E00
7C00001F00
7800001F00
F800000F00
F800000F80
F800000F80
F000000F80
FFFFFFFF80
FFFFFFFF80
FFFFFFFF80
FFFFFFFF80
F000000F80
F800000F80
F800000F80
F800000F00
7800000F00
7C00001F00
7C00001E00
3E00003E00
3F00007C00
1F8000FC00
0FC001F800
07F007F000
03FFFFE000
01FFFF8000
007FFF0000
000FF80000
ENDCHAR
STARTCHAR 04E9
ENCODING 1257
SWIDTH 550 0
DWIDTH 26 0
BBX 22 27 2 -1
BITMAP
00FE00
07FF80
0FFFC0
1FFFE0
3F03F0
3E00F8
7C0078
78007C
78007C
F8003C
F0003C
F0003C
FFFFFC
FFFFFC
FFFFFC
F0003C
F0003C
F8003C
78007C
780078
7C00F8
3E00F8
3F03F0
1FFFE0
0FFFC0
07FF80
01FE00
ENDCHAR
STARTCHAR 04EE
ENCODING 1262
SWIDTH 635 0
DWIDTH 30 0
BBX 28 41 1 0
BITMAP
00FFF800
00FFF800
00FFF800
00000000
00000000
00000000
00000000
F80001F0
7C0001F0
7C0003F0
3E0003E0
3E0003E0
3F0007C0
1F0007C0
1F000F80
0F800F80
0F800F00
07C01F00
07C01F00
03E03E00
03E03E00
01F07C00
01F07C00
00F07800
00F8F800
0078F000
007DF000
007DF000
003FE000
003FE000
001FC000
001FC000
000F8000
000F8000
000F8000
000F0000
001F0000
03FE0000
03FE0000
03FC0000
03F00000
ENDCHAR
STARTCHAR 04EF
ENCODING 1263
SWIDTH 508 0
DWIDTH 24 0
BBX 21 41 1 -10
BITMAP
0FFF80
0FFF80
0FFF80
000000
000000
000000
F00078
780078
780078
7800F0
3C00F0
3C01F0
3C01E0
1E01E0
1E03E0
1E03C0
0F03C0
0F0780
0F0780
078780
078F00
078F00
03CF00
03DE00
03DE00
01FC00
01FC00
01FC00
00F800
00F800
00F800
00F000
00F000
01F000
01E000
01E000
03C000
3FC000
3F8000
3F0000
3E0000
ENDCHAR
STARTCHAR 1E80
ENCODING 7808
SWIDTH 952 0
DWIDTH 45 0
BBX 43 44 1 0
BITMAP
0000F8000000
00007C000000
00003C000000
00001E000000
00000F000000
000007000000
000003800000
000000000000
000000000000
000000000000
F8001F0003E0
F8001F0003C0
7C003F8007C0
7C003F8007C0
7C003F8007C0
7C003F800780
3C007FC00F80
3E007BC00F80
3E007BC00F80
3E00F3C00F00
1E00F1E00F00
1F00F1E01F00
1F00F1E01F00
0F01E1F01E00
0F01E0F01E00
0F81E0F03E00
0F83E0F03E00
0783C0783C00
0783C0783C00
07C3C0787C00
07C7807C7C00
03C7803C7800
03C7803C7800
03C7803C7800
03EF001EF800
01EF001EF000
01EF001EF000
01FE001FF000
01FE000FF000
00FE000FE000
00FE000FE000
00FC0007E000
00FC0007E000
007C0007C000
ENDCHAR
STARTCHAR 1E81
ENCODING 7809
SWIDTH 720 0
DWIDTH 34 0
BBX 33 35 0 0
BITMAP
001F000000
000F800000
0007800000
0003C00000
0001E00000
0000E00000
0000700000
0000000000
0000000000
0000000000
F803E00780
7803F00780
7803F00F80
7C03F00F00
3C07F00F00
3C07F80F00
3C07781F00
3E07781E00
1E0F781E00
1E0F3C1E00
1E0E3C3C00
0F0E3C3C00
0F1E3C3C00
0F1E1E3800
0F1C1E7800
079C1E7800
07BC1E7800
07BC0F7000
03B80FF000
03F80FF000
03F807E000
03F807E000
01F807E000
01F007E000
01F003C000
ENDCHAR
STARTCHAR 1E82
ENCODING 7810
SWIDTH 952 0
DWIDTH 45 0
BBX 43 44 1 0
BITMAP
0000007C0000
000000F80000
000001F00000
000001E00000
000003C00000
000007800000
000007000000
000000000000
000000000000
000000000000
F8001F0003E0
F8001F0003C0
7C003F8007C0
7C003F8007C0
7C003F8007C0
7C003F800780
3C007FC00F80
3E007BC00F80
3E007BC00F80
3E00F3C00F00
1E00F1E00F00
1F00F1E01F00
1F00F1E01F00
0F01E1F01E00
0F01E0F01E00
0F81E0F03E00
0F83E0F03E00
0783C0783C00
0783C0783C00
07C3C0787C00
07C7807C7C00
03C7803C7800
03C7803C7800
03C7803C7800
03EF001EF800
01EF001EF000
01EF001EF000
01FE001FF000
01FE000FF000
00FE000FE000
00FE000FE000
00FC0007E000
00FC0007E000
007C0007C000
ENDCHAR
STARTCHAR 1E83
ENCODING 7811
SWIDTH 720 0
DWIDTH 34 0
BBX 33 35 0 0
BITMAP
00007C0000
0000F80000
0000F00000
0001E00000
0003C00000
0003800000
0007000000
0000000000
0000000000
0000000000
F803E00780
7803F00780
7803F00F80
7C03F00F00
3C07F00F00
3C07F80F00
3C07781F00
3E07781E00
1E0F781E00
1E0F3C1E00
1E0E3C3C00
0F0E3C3C00
0F1E3C3C00
0F1E1E3800
0F1C1E7800
079C1E7800
07BC1E7800
07BC0F7000
03B80FF000
03F80FF000
03F807E000
03F807E000
01F807E000
01F007E000
01F003C000
ENDCHAR
STARTCHAR 1E84
ENCODING 7812
SWIDTH 952 0
DWIDTH 45 0
BBX 43 43 1 0
BITMAP
0001F1F00000
0001F1F00000
0001F1F00000
0001F1F00000
0001F1F00000
000000000000
000000000000
000000000000
000000000000
F8001F0003E0
F8001F0003C0
7C003F8007C0
7C003F8007C0
7C003F8007C0
7C003F800780
3C007FC00F80
3E007BC00F80
3E007BC00F80
3E00F3C00F00
1E00F1E00F00
1F00F1E01F00
1F00F1E01F00
0F01E1F01E00
0F01E0F01E00
0F81E0F03E00
0F83E0F03E00
0783C0783C00
0783C0783C00
07C3C0787C00
07C7807C7C00
03C7803C7800
03C7803C7800
03C7803C7800
03EF001EF800
01EF001EF000
01EF001EF000
01FE001FF000
01FE000FF000
00FE000FE000
00FE000FE000
00FC0007E000
00FC0007E000
007C0007C000
ENDCHAR
ENDFONT
